<svg xmlns="http://www.w3.org/2000/svg" xmlns:xlink="http://www.w3.org/1999/xlink" width="290.466" height="132.272" viewBox="0 0 290.466 132.272"><defs><style>.a{fill:#e9b394;}.b{fill:#e6ebeb;}.c{fill:#4e425b;}.d{fill:#fff;stroke:#2c365a;stroke-linecap:round;stroke-linejoin:round;}.e{fill:#6b2c34;}.f{fill:#5ea290;}.g{fill:#ff8b61;}.h{fill:#ffdd8f;}.i{fill:#e4b954;}.j{fill:#efc056;}.k{fill:#d1a234;}.l{fill:#c9a554;}.m{fill:#b38b2f;}.n{fill:#77b39e;}.o{fill:#99c8b8;}.p{fill:#f36c48;}.q{fill:#5d526a;}.r{clip-path:url(#a);}.s{fill:#3c8c3c;}</style><clipPath id="a"><path class="a" d="M12.906,0h1.581A11.324,11.324,0,0,1,25.811,11.324v8.719A9.256,9.256,0,0,1,16.555,29.3H12.905A12.905,12.905,0,0,1,0,16.394V12.906A12.906,12.906,0,0,1,12.906,0Z" transform="matrix(0.811, 0.585, -0.585, 0.811, 160.909, 112.244)"/></clipPath></defs><g transform="translate(-770 -2538.829)"><g transform="translate(692.517 2426.585)"><path class="b" d="M204.205,244.516H103.819a6.335,6.335,0,0,1-6.335-6.335h0a6.335,6.335,0,0,1,6.335-6.335H204.205a6.335,6.335,0,0,1,6.335,6.335h0A6.335,6.335,0,0,1,204.205,244.516Z"/><path class="c" d="M166.494,193.242A9.335,9.335,0,1,1,171.8,205.33,9.335,9.335,0,0,1,166.494,193.242Z"/><rect class="c" width="18.671" height="45.108" transform="matrix(-0.12, -0.993, 0.993, -0.12, 131.534, 211.326)"/><path class="c" d="M140.536,226.957l-6.988-12.349L170.6,188.493l9.195,16.249Z"/><path class="d" d="M129.288,192.791a9.335,9.335,0,1,1-8.145,10.39A9.335,9.335,0,0,1,129.288,192.791Z"/><path class="e" d="M147.512,239.169h-8.52a5.448,5.448,0,0,1-4.812-2.893l-7.381-13.9a4.809,4.809,0,0,1,3.144-6.936l3.6-.849,7,12.364,1.146,4.1,3.74.821a5.32,5.32,0,0,1,4.178,5.213h0A2.089,2.089,0,0,1,147.512,239.169Z"/><path class="a" d="M163.995,193.421a5.5,5.5,0,1,1-6.655-4.034A5.5,5.5,0,0,1,163.995,193.421Z"/><path class="f" d="M157.468,159.726a7.188,7.188,0,1,1-8.693-5.269A7.188,7.188,0,0,1,157.468,159.726Z"/><path class="g" d="M156.845,159.879,144.129,163l9.177,33.046L164,193.421Z"/><rect class="f" width="14.376" height="16.259" transform="translate(143.506 163.15) rotate(-13.777)"/><path class="a" d="M184.343,217.849a4.46,4.46,0,1,1-6.288-.489A4.459,4.459,0,0,1,184.343,217.849Z"/><path class="a" d="M154.486,198.28l23.08,25.368,6.777-5.8-21.495-26.725Z"/><rect class="h" width="36.474" height="36.474" transform="translate(157.447 202.695)"/><path class="i" d="M0,0H13.169V36.474H0Z" transform="translate(192.858 202.695)"/><g transform="translate(57 -21)"><rect class="j" width="36.474" height="36.474" transform="translate(157.447 202.695)"/><path class="k" d="M0,0H13.169V36.474H0Z" transform="translate(192.858 202.695)"/></g><g transform="translate(141 -62)"><rect class="j" width="36.474" height="36.474" transform="translate(157.447 202.695)"/><path class="k" d="M0,0H13.169V36.474H0Z" transform="translate(192.858 202.695)"/></g><g transform="translate(121 -2.763)"><rect class="l" width="36.474" height="36.474" transform="translate(157.447 202.695)"/><path class="m" d="M0,0H13.169V36.474H0Z" transform="translate(192.858 202.695)"/></g><path class="n" d="M156.636,151.5l-15.6-9.415h0a34.484,34.484,0,0,0-14.889,9.837L102.612,178.48l30.6,21.4,13.323-20.125a62.734,62.734,0,0,0,10.1-28.248Z"/><path class="o" d="M156.827,151.26l-1.1-2.991-3.367,6.522,3.054,6.788,1.339-3.4A9.717,9.717,0,0,0,156.827,151.26Z"/><path class="g" d="M152.359,154.791l-8.246-13.737,8.259-8.43,8.367,7.836Z"/><path class="p" d="M156.708,149.7l-6.663-13.587,2.326-3.485,9.15,9.067Z" transform="translate(-2 1)"/><path class="o" d="M143.689,139.757h0l8.67,15.034-7.087,4.9-4.765-9.88A7.69,7.69,0,0,1,143.689,139.757Z"/><path class="q" d="M106.338,208.242h0a20.023,20.023,0,0,1-4.937-27.883l1.28-1.831,30.534,21.347-2.878,4.118A17.234,17.234,0,0,1,106.338,208.242Z"/><circle class="a" cx="5.503" cy="5.503" r="5.503" transform="translate(137.425 188.321) rotate(-10.609)"/><path class="o" d="M142.664,157.711a7.188,7.188,0,1,1-8.693-5.27A7.188,7.188,0,0,1,142.664,157.711Z"/><path class="g" d="M142.041,157.863l-12.716,3.118,9.177,33.046,10.689-2.621Z"/><rect class="o" width="14.376" height="16.259" transform="translate(128.702 161.134) rotate(-13.777)"/><path class="g" d="M139.682,196.264l23.08,25.368,6.777-5.8-21.495-26.725Z"/><path class="g" d="M168.714,215.22a4.459,4.459,0,1,1-6.226,1.005A4.46,4.46,0,0,1,168.714,215.22Z"/><path class="g" d="M170.492,228.79l-7-6.339,5.221-7.232,8.22,4.647Z"/><path class="g" d="M175.624,231.078h0a1.148,1.148,0,0,1-1.6.259l-3.528-2.547,1.345-1.863,3.528,2.547A1.148,1.148,0,0,1,175.624,231.078Z"/><path class="g" d="M178.97,229.913h0a1.149,1.149,0,0,1-1.6.26l-5.175-3.736,1.345-1.863,5.175,3.735A1.15,1.15,0,0,1,178.97,229.913Z"/><path class="g" d="M181.556,228.2h0a1.148,1.148,0,0,1-1.6.259l-6.062-4.376,1.345-1.863L181.3,226.6A1.15,1.15,0,0,1,181.556,228.2Z"/><path class="g" d="M182.368,225.206h0a1.148,1.148,0,0,1-1.6.259l-5.175-3.735,1.345-1.863,5.175,3.735A1.15,1.15,0,0,1,182.368,225.206Z"/><path class="g" d="M178.571,216.743h0a1.82,1.82,0,0,1-1.872,1.765l-8.335-.246,1.451-2.029a3.542,3.542,0,0,1,2.985-1.48l4.006.118A1.818,1.818,0,0,1,178.571,216.743Z"/><path class="q" d="M151.554,193.242a9.335,9.335,0,1,1,5.308,12.088A9.335,9.335,0,0,1,151.554,193.242Z"/><rect class="q" width="18.671" height="45.108" transform="matrix(-0.12, -0.993, 0.993, -0.12, 116.593, 211.326)"/><path class="q" d="M125.6,226.957l-6.988-12.349,37.051-26.115,9.2,16.249Z"/><circle class="q" cx="9.335" cy="9.335" r="9.335" transform="translate(103.781 208.195) rotate(-72.7)"/><path class="e" d="M132.571,239.169h-8.519a5.451,5.451,0,0,1-4.813-2.893l-7.38-13.9A4.809,4.809,0,0,1,115,215.442l3.6-.849,7,12.364,1.147,4.1,3.739.821a5.32,5.32,0,0,1,4.179,5.213h0A2.089,2.089,0,0,1,132.571,239.169Z"/><path class="g" d="M12.906,0h1.581A11.324,11.324,0,0,1,25.811,11.324v8.719A9.256,9.256,0,0,1,16.555,29.3H12.905A12.905,12.905,0,0,1,0,16.394V12.906A12.906,12.906,0,0,1,12.906,0Z" transform="matrix(0.811, 0.585, -0.585, 0.811, 160.909, 112.244)"/><path class="g" d="M170.744,142.713l.524.379a1.342,1.342,0,0,0,2.124-.989l.252-3.407Z"/><path class="e" d="M155.357,129.572l2.579,1.847,1.866-2.582a3.194,3.194,0,0,1,4.439-.731l6.069,4.32a7.845,7.845,0,0,0,10.94-1.843l2.25-3.161-12.491-8.89-1.253-.892a10.977,10.977,0,0,0-15.309,2.579l-5.588,7.85a4.989,4.989,0,0,0-.806,3.97l.067.3a1.4,1.4,0,0,0,2.175.836Z"/><circle class="g" cx="3.739" cy="3.739" r="3.739" transform="translate(153.938 126.497)"/><path class="e" d="M171.663,123.829l9.555,6.8,2.39-3.359a5.864,5.864,0,0,0-1.377-8.177h0a5.864,5.864,0,0,0-8.177,1.377Z"/><path class="e" d="M166.276,120.3l7.4,5.266,1.851-2.6a4.541,4.541,0,0,0-1.067-6.333h0a4.54,4.54,0,0,0-6.332,1.067Z"/></g><path class="s" d="M673.934,459.36H383.468c0-4.907,2.2-8.885,4.914-8.885H669.021c2.713,0,4.914,3.978,4.914,8.885Z" transform="translate(386.532 2211.74)"/></g></svg>