<svg xmlns="http://www.w3.org/2000/svg" width="326.926" height="191.707" viewBox="0 0 326.926 191.707"><defs><style>.a{fill:#3c8f7c;}.b{fill:#96d9c9;}.c{fill:#50bfa5;}.d{fill:#e59f39;}.e{fill:#eab054;}.f{fill:#f7cc7f;}.g{fill:#ff8b61;}.h{fill:#bf0037;}.i{fill:#4c5d80;}.j{fill:#394966;}.k{fill:#ffb700;}.l{fill:#f36c48;}.m{fill:#5e0a0a;}.n{fill:#e8a205;}</style></defs><g transform="translate(0 -64.107)"><g transform="translate(0)"><path class="a" d="M594.976,205.424c-36.117-28.76-66.428-65.92-89.389-109.574L455.94,135.732c26.553,50.47,61.619,93.456,103.354,126.69Z" transform="translate(-433.006 -31.743)"/><path class="b" d="M502.517,111.43,471.677,136.6c2.448,4.561,1.558,10.7-2.087,13.845,23.336,41.267,52.59,77.123,86.654,106.224a7.9,7.9,0,0,1,11.8-1.933l22.5-35.394c-3.471-2.816-3.966-8.574-1.184-12.748-29.91-25.549-55.6-57.038-76.093-93.282C509.626,116.44,504.771,115.63,502.517,111.43Z" transform="translate(-437.707 -36.902)"/><path class="c" d="M565.372,232.6c7.7-9.945,7.631-24.62.361-33.395s-19.744-9.17-28.358-.314-9.424,24.533-1.231,34.391S557.68,242.534,565.372,232.6Z" transform="translate(-459.021 -63.729)"/><path class="a" d="M565.59,208.507l-2.909,3.224c2.321,4.247,1.826,8.641-.669,11.5s-5.351,3.157-9.651.609c-3.123-1.766-4.628-2.287-5.578-1.257-.809.869-1.077,2.455.669,4.615a11.544,11.544,0,0,0,2.675,2.5,2.9,2.9,0,0,1,.762,3.679h0a2.073,2.073,0,0,1-3.083.89,16.2,16.2,0,0,1-2.816-2.615l-2.515,2.776c-.876-1.1-1.752-2.207-2.615-3.344l2.736-2.97c-2.214-4.274-1.772-8.521.8-11.216,2.829-2.976,6.113-2.06,9.865.294,2.608,1.625,4.12,1.886,5.2.669s.769-3.2-.669-5.03a12.856,12.856,0,0,0-3.25-2.916,2.776,2.776,0,0,1-.669-3.679l.087-.134a2.08,2.08,0,0,1,2.943-.91,17.141,17.141,0,0,1,3.565,3.177l2.729-2.976Q564.366,206.976,565.59,208.507Z" transform="translate(-459.748 -67.859)"/><path class="c" d="M524.256,279.682q-12.32-10.541-23.763-22.372l-3.913,5.09q11.577,11.959,24.078,22.68Q522.464,282.378,524.256,279.682Z" transform="translate(-389.467 -85.213)"/><path class="a" d="M621.573,220.215c-45.333-5.745-89.8-20.914-131.05-44.7Q478.765,203.066,467,230.622c47.728,27.482,99.134,45.046,151.557,51.694Z" transform="translate(-467 -58.124)"/><path class="b" d="M486.74,191.592q-7.2,17.276-14.42,34.532c4.354,2.461,6.595,7.772,4.963,11.972a402.492,402.492,0,0,0,127.078,43.34,7.926,7.926,0,0,1,9.29-7.11l2.187-38.725c-4.381-.6-7.625-4.929-7.257-9.558A352.576,352.576,0,0,1,497,188a7,7,0,0,1-10.26,3.592Z" transform="translate(-464.823 -62.26)"/><path class="c" d="M583.67,262.271c1.813-11.531-5.424-23.142-16.052-26.673a19.022,19.022,0,0,0-24.747,13.156c-3.157,11.1,3.832,23.924,15.758,27.87S581.858,273.755,583.67,262.271Z" transform="translate(-479.614 -77.674)"/><path class="a" d="M572.816,242.181c-.314,1.338-.622,2.622-.936,3.933,4.08,2.274,5.805,6.019,5.043,9.444s-3.09,5.03-8.073,5.036c-3.572.08-5.13.375-5.451,1.645-.268,1.07.274,2.455,2.809,3.344a12.319,12.319,0,0,0,3.545.729,2.675,2.675,0,0,1,2.461,2.555h0a2.053,2.053,0,0,1-2.234,2.167,17.009,17.009,0,0,1-3.725-.749l-.823,3.391q-1.946-.669-3.893-1.4l.923-3.645c-4.013-2.348-5.705-5.926-4.8-9.277,1-3.705,4.287-4.528,8.695-4.434,3.05.06,4.488-.448,4.836-1.913s-.9-2.9-3.036-3.679a13.578,13.578,0,0,0-4.247-.783,2.548,2.548,0,0,1-2.368-2.6V245.8a2.053,2.053,0,0,1,2.107-2.113,18.185,18.185,0,0,1,4.648.836l.91-3.652Z" transform="translate(-483.006 -79.769)"/><path class="a" d="M561.305,257.57c-35.675,14.092-75.029,20.54-116.035,19.015q4.087,26.151,8.16,52.3c47.367,1.792,92.874-5.658,134.12-21.958Q574.441,282.243,561.305,257.57Z" transform="translate(-418.443 -85.3)"/><path class="b" d="M456.55,289.341l5.351,32.652c4.3.127,8.367,3.344,9.109,7.237,39.407.288,77.364-5.926,112.45-18.406a6.561,6.561,0,0,1,3.5-9.31l-16.172-30.88c-3.465,1.338-7.819-.669-9.678-4.434-30.806,10.962-64.141,16.42-98.746,16.166C463.1,286.292,460.509,289.475,456.55,289.341Z" transform="translate(-425.403 -88.158)"/><path class="c" d="M558.776,307.4c-3.973-9.7-14.607-15.724-23.911-14.106s-14.774,10.42-11.985,20.306,13.771,16.955,24.272,15.136S562.742,317.087,558.776,307.4Z" transform="translate(-442.433 -97.042)"/><path class="a" d="M543.522,297.57c.375,1.144.742,2.287,1.117,3.431,4.013.087,6.983,2.261,8.026,5.25s.054,5.157-3.565,7.2c-2.568,1.518-3.565,2.388-3.217,3.5.294.943,1.338,1.792,3.585,1.458a9.985,9.985,0,0,0,2.916-.889,2.394,2.394,0,0,1,2.963.97h0a1.719,1.719,0,0,1-.635,2.588,13.415,13.415,0,0,1-3.05.95l.956,2.963-3.478.508-1-3.2c-4.013-.174-6.876-2.254-7.752-5.217-.97-3.277,1.05-5.264,4.307-7,2.247-1.2,3.057-2.18,2.642-3.458s-2.007-1.879-3.9-1.605a10.634,10.634,0,0,0-3.451,1.13,2.3,2.3,0,0,1-2.923-1.043l-.067-.114a1.732,1.732,0,0,1,.568-2.5,14.306,14.306,0,0,1,3.765-1.251c-.334-1.07-.669-2.134-1.01-3.2C541.375,297.891,542.452,297.731,543.522,297.57Z" transform="translate(-447.726 -98.546)"/><path class="c" d="M501.364,299.73q-12.708,4.515-25.964,7.852l2.047,4.923q13.417-3.384,26.325-7.952Z" transform="translate(-354.817 -99.262)"/><path class="d" d="M418.67,343.54v12.768c0,2.067,23.034,3.739,51.446,3.739s51.446-1.672,51.446-3.739V343.54Z" transform="translate(-334.665 -113.77)"/><path class="e" d="M554.074,359.9V343.54H516.84v12.768C516.84,358.013,532.564,359.451,554.074,359.9Z" transform="translate(-432.835 -113.77)"/><path class="e" d="M468.35,359.933q6.019.11,12.48.114c6.414,0,12.554-.087,18.219-.241V343.54h-30.7Z" transform="translate(-345.379 -113.77)"/><path class="e" d="M418.67,359.746c18.326-.575,31.167-1.893,31.167-3.438V343.54H418.67Z" transform="translate(-262.94 -113.77)"/><ellipse class="d" cx="51.446" cy="3.739" rx="51.446" ry="3.739" transform="translate(84.005 225.891)"/><path class="f" d="M516.977,342.048c0,1.431-18.968,2.6-42.364,2.6s-42.364-1.164-42.364-2.6,18.968-2.588,42.364-2.588S516.977,340.617,516.977,342.048Z" transform="translate(-339.162 -112.419)"/><path class="d" d="M431.83,323.33V336.1c0,2.067,23.035,3.739,51.446,3.739s51.446-1.672,51.446-3.739V323.33Z" transform="translate(-356.627 -107.077)"/><path class="e" d="M567.234,339.7V323.33H530V336.1C530,337.824,545.731,339.248,567.234,339.7Z" transform="translate(-454.797 -107.077)"/><path class="e" d="M481.51,339.73q6.019.11,12.48.107c6.414,0,12.554-.08,18.219-.241V323.33h-30.7Z" transform="translate(-367.341 -107.077)"/><path class="e" d="M431.83,339.536C450.156,338.967,463,337.643,463,336.1V323.33H431.83Z" transform="translate(-284.901 -107.077)"/><ellipse class="d" cx="51.446" cy="3.739" rx="51.446" ry="3.739" transform="translate(75.203 212.38)"/><path class="f" d="M530.137,321.845c0,1.431-18.968,2.588-42.364,2.588s-42.364-1.157-42.364-2.588,18.968-2.6,42.364-2.6S530.137,320.42,530.137,321.845Z" transform="translate(-361.124 -105.726)"/><path class="d" d="M423.07,302.59v12.768c0,2.067,23.034,3.739,51.446,3.739s51.44-1.672,51.44-3.739V302.59Z" transform="translate(-342.001 -100.209)"/><path class="e" d="M558.467,318.956V302.59H521.24v12.768C521.24,317.063,536.971,318.5,558.467,318.956Z" transform="translate(-440.171 -100.209)"/><path class="e" d="M472.74,318.99q6.02.1,12.487.107c6.414,0,12.554-.087,18.219-.241V302.59H472.74Z" transform="translate(-352.712 -100.209)"/><path class="e" d="M423.07,318.8c18.326-.569,31.161-1.893,31.161-3.438V302.59H423.07Z" transform="translate(-270.276 -100.209)"/><ellipse class="d" cx="51.446" cy="3.739" rx="51.446" ry="3.739" transform="translate(81.069 198.502)"/><path class="f" d="M521.367,301.1c0,1.431-18.968,2.6-42.364,2.6s-42.364-1.164-42.364-2.6,18.941-2.588,42.35-2.588S521.367,299.667,521.367,301.1Z" transform="translate(-346.488 -98.858)"/><path class="d" d="M431.83,282.13V294.9c0,2.067,23.035,3.739,51.446,3.739s51.446-1.672,51.446-3.739V282.13Z" transform="translate(-356.627 -93.433)"/><path class="e" d="M567.234,298.5V282.13H530V294.9C530,296.6,545.731,298.048,567.234,298.5Z" transform="translate(-454.797 -93.433)"/><path class="e" d="M481.51,298.53q6.019.11,12.48.107c6.414,0,12.554-.08,18.219-.241V282.13h-30.7Z" transform="translate(-367.341 -93.433)"/><path class="e" d="M431.83,298.336C450.156,297.767,463,296.443,463,294.9V282.13H431.83Z" transform="translate(-284.901 -93.433)"/><ellipse class="d" cx="51.446" cy="3.739" rx="51.446" ry="3.739" transform="translate(75.203 184.824)"/><path class="f" d="M530.137,280.645c0,1.431-18.968,2.588-42.364,2.588s-42.364-1.157-42.364-2.588,18.968-2.6,42.364-2.6S530.137,279.214,530.137,280.645Z" transform="translate(-361.124 -92.082)"/><path class="d" d="M146.117,341.9v12.286c0,2.006-22.152,3.592-49.493,3.592s-49.493-1.605-49.493-3.592V341.9Z" transform="translate(149.278 -113.227)"/><path class="e" d="M47.13,357.638V341.9h35.8v12.286C82.932,355.825,67.8,357.21,47.13,357.638Z" transform="translate(212.462 -113.227)"/><path class="e" d="M132.672,357.671c-3.846.074-7.865.107-12.006.107-6.167,0-12.072-.08-17.517-.227V341.9h29.522Z" transform="translate(125.255 -113.227)"/><ellipse class="d" cx="49.473" cy="3.592" rx="49.473" ry="3.592" transform="translate(196.448 224.954)"/><path class="f" d="M60.18,340.481c0,1.378,18.239,2.495,40.738,2.495s40.738-1.117,40.738-2.495S123.411,338,100.912,338,60.18,339.1,60.18,340.481Z" transform="translate(145.01 -111.936)"/><path class="d" d="M133.467,322.47v12.286c0,2.006-22.145,3.592-49.493,3.592s-49.493-1.612-49.493-3.592V322.47Z" transform="translate(170.389 -106.793)"/><path class="e" d="M120.056,338.241c-3.839.074-7.865.107-12.039.107-6.167,0-12.039-.08-17.517-.234V322.47h29.556Z" transform="translate(146.332 -106.793)"/><ellipse class="d" cx="49.473" cy="3.592" rx="49.473" ry="3.592" transform="translate(204.909 211.959)"/><ellipse class="f" cx="40.738" cy="2.495" rx="40.738" ry="2.495" transform="translate(213.644 213.056)"/><path class="d" d="M141.9,302.53v12.28c0,2.006-22.152,3.592-49.493,3.592S42.91,316.8,42.91,314.81V302.53Z" transform="translate(156.32 -100.189)"/><path class="e" d="M42.91,318.268V302.53h35.8v12.28C78.712,316.448,63.584,317.833,42.91,318.268Z" transform="translate(219.505 -100.189)"/><path class="e" d="M128.452,318.294c-3.846.074-7.865.107-12.005.107-6.167,0-12.072-.08-17.517-.227V302.53h29.522Z" transform="translate(132.297 -100.189)"/><ellipse class="d" cx="49.473" cy="3.592" rx="49.473" ry="3.592" transform="translate(199.271 198.616)"/><ellipse class="f" cx="40.738" cy="2.495" rx="40.738" ry="2.495" transform="translate(208.005 199.713)"/><path class="d" d="M133.467,282.85v12.28c0,2.007-22.145,3.6-49.493,3.6s-49.493-1.612-49.493-3.6V282.85Z" transform="translate(170.389 -93.672)"/><path class="e" d="M120.056,298.621c-3.839.067-7.865.107-12.039.107-6.167,0-12.039-.08-17.517-.234V282.85h29.556Z" transform="translate(146.332 -93.672)"/><ellipse class="d" cx="49.473" cy="3.592" rx="49.473" ry="3.592" transform="translate(204.909 185.46)"/><ellipse class="f" cx="40.738" cy="2.495" rx="40.738" ry="2.495" transform="translate(213.644 186.557)"/><path class="d" d="M86.629,248.684l-2.97,10.374c-.482,1.679-19.583-2.321-42.665-8.936S-.412,236.792.069,235.114l3-10.374Z" transform="translate(240.247 -74.427)"/><path class="e" d="M111.709,245.159c-14.754-4.729-24.88-8.788-24.519-10.032l3-10.387,25.3,7.25Z" transform="translate(153.127 -74.427)"/><path class="d" d="M0,224.39c-.482,1.672,17.844,8.394,40.926,15.009s42.19,10.608,42.678,8.929-17.844-8.394-40.926-15.009S.483,222.711,0,224.39Z" transform="translate(243.318 -74.184)"/><path class="f" d="M11,227.629c-.334,1.157,14.808,6.514,33.816,11.959s34.712,8.949,35.073,7.752-14.808-6.514-33.816-11.959S11.357,226.465,11,227.629Z" transform="translate(239.674 -75.309)"/><path class="d" d="M118.856,153.77l3.164,10.32c.515,1.665-17.677,8.728-40.631,15.764s-41.982,11.37-42.491,9.731l-3.164-10.32Z" transform="translate(180.986 -50.924)"/><path class="e" d="M110.3,181.446c-3.21,1.043-6.575,2.113-10.032,3.177-5.183,1.592-10.166,3.043-14.781,4.321L81.47,175.8l24.767-7.591Z" transform="translate(162.131 -55.706)"/><path class="e" d="M150.3,193.436c-14.948,4.08-25.65,6.193-26.031,4.949l-3.164-10.32,25.175-7.725Z" transform="translate(95.61 -59.723)"/><path class="d" d="M40.525,178.93c.508,1.665,19.53-2.675,42.484-9.731s41.153-14.1,40.638-15.764-19.53,2.675-42.491,9.725S40.01,177.258,40.525,178.93Z" transform="translate(176.162 -50.695)"/><path class="f" d="M51.5,177.874c.354,1.157,15.965-2.6,34.866-8.4s33.916-11.437,33.582-12.574-15.965,2.608-34.866,8.407S51.143,176.717,51.5,177.874Z" transform="translate(172.526 -51.893)"/><path class="c" d="M403.6,114.036l.609,7.478,4.341-4.889,14.045-11.5-11.972,3.772s-5.9,2.869-6.167,3.244A15.1,15.1,0,0,0,403.6,114.036Z" transform="translate(-225.618 -34.813)"/><path class="b" d="M403.59,110.825l25.362-5.705-19,8.915Z" transform="translate(-231.968 -34.813)"/><path class="b" d="M411.409,119.573l-7.819-3.9,17.062-10.554Z" transform="translate(-223.668 -34.813)"/><path class="a" d="M433.564,124.124a9.11,9.11,0,0,1,2.04-.535l-.053-.548a10.1,10.1,0,0,0-2.18.569Z" transform="translate(-258.538 -40.747)"/><path class="a" d="M441.54,169.677a22.686,22.686,0,0,0,2.749-3.01l.435.328a22.921,22.921,0,0,1-2.816,3.083Zm4.862-6.488c.268-.562.515-1.15.729-1.739a21.573,21.573,0,0,0,.669-2.087l.528.134a22.074,22.074,0,0,1-.669,2.14c-.227.609-.482,1.211-.756,1.786Zm2.207-11.945h.542a34.843,34.843,0,0,1-.134,4.16l-.542-.054a35.108,35.108,0,0,0,.134-4.107Zm-.783-8.193.542-.074c.227,1.6.395,2.9.515,4.107l-.542.054c-.12-1.2-.288-2.495-.515-4.087Zm-.609-4.113a19.777,19.777,0,0,1-.207-4.147h.548a19.12,19.12,0,0,0,.2,4.013v.033l-.542.074Zm.669-8.253a9.919,9.919,0,0,1,2.368-3.485l.375.395a9.491,9.491,0,0,0-2.241,3.3Z" transform="translate(-279.028 -42.125)"/><path class="g" d="M428.96,219.693s6.635.542,8.34-.963a12.346,12.346,0,0,0,2.528-3.063l-9.765-.147Z" transform="translate(-259.813 -71.374)"/><path class="h" d="M485.913,376.119a2.2,2.2,0,0,0,.375.93h18.379c-.756-2.174-4.568-3.431-4.568-3.431a13.007,13.007,0,0,1-8.32-6.742l-5.959-.8s-.321,6.06-.127,8.113C485.759,374.922,485.839,375.571,485.913,376.119Z" transform="translate(-362.554 -121.235)"/><path class="i" d="M508.638,246.522s-2.816,16.64-5.652,37.541q-.435,3.23-.836,6.494c-1.605,13.029-2.789,26.365-3.665,39.086,0,0-7.692,3.471-11.818-.869a256.689,256.689,0,0,1-2.923-26.907,45.724,45.724,0,0,1,.669-11.651c1.3-5.8,1.291-12.855,1.117-20.279-.221-9.8-.736-20.225,1.11-29.188Z" transform="translate(-365.187 -79.729)"/><path class="j" d="M506.948,246.522s-2.816,16.64-5.652,37.541q-.435,3.23-.836,6.494l-16.594-20.62c-.221-9.8-.736-20.225,1.11-29.188Z" transform="translate(-363.498 -79.729)"/><path class="h" d="M422.229,361.76a13,13,0,0,0,10.093,3.578s5.311-.114,5.9,2.642c0,0-8.581,2.354-10.768,3.036a24.222,24.222,0,0,0-4.755,2.241,2.087,2.087,0,0,1-2.909-.829c-.254-.488-.542-1.07-.856-1.739-.863-1.873-2.582-7.692-2.582-7.692Z" transform="translate(-249.771 -119.804)"/><path class="i" d="M490.382,322.314s-3.679,5.244-9.23,3c0,0-9.778-12.133-15.778-23.877a45.7,45.7,0,0,1-4.187-10.9c-2.816-13.49-25.549-32.325-23.723-49.788h27.669s4.327,16.319,10.394,36.511C479.922,291.815,485.172,308.382,490.382,322.314Z" transform="translate(-315.985 -79.729)"/><path class="g" d="M500.579,157.22c-6.133,1.6-16.319-4.066-16.319-4.066a14.955,14.955,0,0,0,5.277-8.026,18.06,18.06,0,0,0,.669-4.548l5.665,5.063,1.853,1.652s-.06,1.057-.368,2.956c-.154.95-.368,2.114-.669,3.465A14.44,14.44,0,0,1,500.579,157.22Z" transform="translate(-357.55 -46.556)"/><path class="k" d="M506.244,213.894c-.247.936-1.445,1.1-1.692,1.083-2.254-.174-8.548,1.605-14.173,1.853-4.715.2-8.962.094-13.377-2.067-.582-.288-1.92-1.057-1.866-1.679s-8.414-45.6,9.471-57.252c.421-.274,2.983,1.1,5.351,2.354a10.608,10.608,0,0,0,6.454,1.15l2.006,1.853c2.455,2.368,6.394,9.5,5.846,14.139a.1.1,0,0,1,0,.047c-.261,2.334.582,4.354.428,6.434-.053.776-.1,1.538-.14,2.281q-.127,2.18-.167,4.173c-.047,1.946-.04,3.752,0,5.438,0,.93.053,1.826.1,2.675,0,.461.047.916.08,1.338.194,2.909.482,5.351.776,7.424.388,2.675.769,4.682.943,6.227,0,.221.047.435.067.669A5.613,5.613,0,0,1,506.244,213.894Z" transform="translate(-355.944 -51.595)"/><path class="l" d="M496.359,152.376c-7.611-1.692-7.8-5.123-7.8-5.123a13.009,13.009,0,0,1,6.314.515l1.853,1.652S496.666,150.477,496.359,152.376Z" transform="translate(-356.573 -48.708)"/><path class="g" d="M496.586,141.918s-9.451,3.6-11.6-2.321-4.822-9.451,1.124-12,7.946-.716,9.15,1.083S499.028,140.828,496.586,141.918Z" transform="translate(-353.383 -41.841)"/><path class="m" d="M504.552,125.53a11.59,11.59,0,0,0-.087-3.157s-.95,1.726-4.388.542-9.143-2.067-12.005,1.291a6.34,6.34,0,0,0-.515.669,8.693,8.693,0,0,1,.147-2.241,6.568,6.568,0,0,0-.99,3.725h0l-.08.174a7.674,7.674,0,0,0-2.107,2.207,2.521,2.521,0,0,1,1.605-.776c-.8,2.983-.314,6.24,1.665,7.7,2.9,2.127,3.123,1.15,5.826,4.087,0,0,1.15-.816.742-1.672s-2.388-2.468-.863-3.15,1.685.582,2.334,0-1.13-3.224,2.348-4.347S504.364,127.3,504.552,125.53Z" transform="translate(-361.77 -40.354)"/><path class="n" d="M494.487,222.046c-26.579-8.026-20.667-36-20.667-36s10.032,8.695,18.727,17.67c.033,1.431.1,2.776.181,4.013.194,2.909.482,5.351.776,7.424.388,2.675.769,4.682.943,6.227C494.447,221.625,494.467,221.839,494.487,222.046Z" transform="translate(-344.101 -61.614)"/><path class="n" d="M488.269,203.243a10.314,10.314,0,0,1-3.752-1.1c-8.026-4.08-8.8-25.6-8.8-25.6.14-.134,6.427,1.873,12.32,5.705-.261,2.334.582,4.354.428,6.434-.054.776-.1,1.538-.14,2.281q-.127,2.18-.167,4.174c-.047,1.946-.04,3.752,0,5.438C488.189,201.5,488.222,202.394,488.269,203.243Z" transform="translate(-339.749 -58.462)"/><path class="k" d="M442.513,171.41s7.156,26.318,14.975,31.9c5.578,4.013,31.208,1.4,31.208,1.4s3.4-2.575,1.271-4.816c0,0-21.777-3.585-23.061-5s-5.725-20.814-8.026-23.489S444.145,166.106,442.513,171.41Z" transform="translate(-319.716 -55.749)"/></g></g></svg>