<svg xmlns="http://www.w3.org/2000/svg" xmlns:xlink="http://www.w3.org/1999/xlink" width="365.665" height="207.521" viewBox="0 0 365.665 207.521"><defs><style>.a{fill:none;}.b{fill:#3c8c3c;}.c{fill:#d8553f;}.d{fill:#f98591;}.e{clip-path:url(#a);}.f{fill:#fec65e;}.g,.i{fill:#f7f07f;}.h{clip-path:url(#b);}.i,.j{mix-blend-mode:soft-light;}.i,.j,.v,.w{isolation:isolate;}.j,.t{fill:#fff;}.k{fill:#ff9b48;}.l{clip-path:url(#c);}.m{fill:#fae0b2;}.n{fill:#fbcafe;}.o{fill:#5e0a0a;}.p{fill:#f47458;}.q{fill:#50bfa5;}.r{fill:#184655;}.s{fill:#3c8f7c;}.u{fill:#171c51;}.v{opacity:0.4;}.v,.w{mix-blend-mode:multiply;}.aa,.w{fill:#f48c7f;}.x{fill:#fe875e;}.y{fill:#315edb;}.z{fill:#f8c558;}.ab{fill:#e5e5e5;}.ac{fill:#fcc230;}.ad{fill:#ffd45c;}.ae{fill:#fce5ac;}.af{fill:#020202;}.ag{fill:#e5bd83;}.ah{fill:#f7cc7f;}.ai{fill:#825734;}</style><clipPath id="a"><path class="a" d="M669.152,242.673c10.329-5.4,24.012-10.42,39.021-10.42,14.951,0,28.586,6,38.9,11.366V186.428H669.152Z" transform="translate(-669.152 -186.428)"/></clipPath><clipPath id="b"><circle class="a" cx="26.352" cy="26.352" r="26.352"/></clipPath><clipPath id="c"><circle class="a" cx="26.056" cy="26.056" r="26.056" transform="translate(0 51.721) rotate(-82.982)"/></clipPath></defs><g transform="translate(-493.157 -171.26)"><path class="b" d="M749.133,459.36H383.468c0-4.907,2.77-8.885,6.186-8.885H742.947c3.416,0,6.186,3.978,6.186,8.885Z" transform="translate(109.689 -80.579)"/><g transform="translate(540.084 205.843)"><g transform="translate(0 36.771)"><path class="c" d="M793.418,426.874h3.252a11.718,11.718,0,0,0,11.451-9.232l3.3-18.921L781.7,402.459v12.7A11.717,11.717,0,0,0,793.418,426.874Z" transform="translate(-648.511 -302.973)"/><path class="c" d="M670.28,432.8h3.252a11.717,11.717,0,0,0,11.45-9.232l3.3-15.184H658.563v12.7A11.717,11.717,0,0,0,670.28,432.8Z" transform="translate(-602.239 -306.604)"/><path class="c" d="M596.657,312.542s-18.062,20.78-26.011,17.6,5.844,11.523,22.417-1.694S596.657,312.542,596.657,312.542Z" transform="translate(-568.333 -270.589)"/><path class="d" d="M757.68,293.043a56.16,56.16,0,0,0-14.515-24.585l13.248-12.506a2.145,2.145,0,0,0-.7-3.756c-10.851-3.206-23.128,1.364-28.831,3.986a89.046,89.046,0,0,0-43.262-10.848c-41.864,0-75.8,27.157-75.8,60.657,0,16.907,8.648,32.2,22.594,43.2V368.15a4.988,4.988,0,0,0,4.988,4.988H650.8a4.988,4.988,0,0,0,4.875-3.93l1.387-6.391a94.053,94.053,0,0,0,51.424.485,11.485,11.485,0,0,0,11.592,9.837h3.252a11.49,11.49,0,0,0,11.451-8.971l2.7-15.505a60.124,60.124,0,0,0,18.266-23.991c7.31-1.519,17.834-4.692,19.3-10.542,2.125-8.5.274-20.31.027-21.8Z" transform="translate(-583.169 -245.334)"/><circle class="c" cx="4.353" cy="4.353" r="4.353" transform="translate(148.047 35.75)"/><g transform="translate(68.661 6.501)"><path class="c" d="M680.849,267.3a2.51,2.51,0,0,0,1.165-.287c7.683-4.017,17.662-6.229,28.1-6.229,10.393,0,20.342,2.2,28.013,6.185a2.52,2.52,0,0,0,2.325-4.471c-8.376-4.355-19.15-6.752-30.338-6.752-11.235,0-22.043,2.416-30.433,6.8a2.52,2.52,0,0,0,1.169,4.753Z" transform="translate(-678.327 -255.748)"/></g></g><g transform="translate(62.934 0)"><g class="e"><g transform="translate(10.71 8.623)"><circle class="f" cx="26.352" cy="26.352" r="26.352"/><path class="g" d="M692.215,228.811a22.566,22.566,0,0,0,4.2,13.148q.552.772,1.164,1.5a22.516,22.516,0,0,0,2.714,2.7c.451.379.916.743,1.4,1.087a22.259,22.259,0,0,0,3.016,1.826c.488.245.986.476,1.5.684a22.372,22.372,0,0,0,6.54,1.62q.905.09,1.832.1c.1,0,.205,0,.308,0a22.67,22.67,0,0,0,19.394-34.4q-.476-.786-1.011-1.526a22.568,22.568,0,0,0-4.711-4.815q-.655-.5-1.346-.946a22.554,22.554,0,0,0-3.1-1.684c-.537-.242-1.087-.461-1.646-.66a22.529,22.529,0,0,0-3.7-.971c-.619-.106-1.247-.187-1.881-.242q-.989-.09-2-.089A22.664,22.664,0,0,0,692.215,228.811Z" transform="translate(-688.529 -202.461)"/><g transform="translate(19.774 7.878)"><g transform="translate(4.999 0)"><rect class="f" width="2.146" height="36.887" transform="matrix(1, -0.022, 0.022, 1, 0, 0.047)"/></g><g transform="translate(0 3.874)"><path class="f" d="M724.605,248.26l.173,0c4.169-.091,6.383-4.319,6.475-4.5l-1.909-.982c-.017.032-1.734,3.272-4.613,3.335a3.944,3.944,0,0,1-3.3-1.4,6.721,6.721,0,0,1-1.292-4.171c-.066-3.056,1.171-4.593,4.729-5.876,3.839-1.384,5.743-4.046,5.659-7.911a9.434,9.434,0,0,0-1.584-5.218,5.605,5.605,0,0,0-4.8-2.466,7.146,7.146,0,0,0-5.838,3.056l1.828,1.125a5,5,0,0,1,4.056-2.036,3.439,3.439,0,0,1,3,1.564,7.38,7.38,0,0,1,1.187,4.021c.064,2.922-1.284,4.78-4.241,5.845-3.1,1.118-6.256,2.936-6.147,7.942a8.815,8.815,0,0,0,1.783,5.492A6.045,6.045,0,0,0,724.605,248.26Z" transform="translate(-717.987 -219.069)"/></g></g><g class="h"><g transform="translate(1.872 -5.942)"><path class="i" d="M750.428,207.824a22.569,22.569,0,0,1,4.711,4.815q.534.74,1.011,1.526l6.724-11.739-7.043-4.034Z" transform="translate(-712.276 -193.605)"/><path class="i" d="M704.51,287.027l7.043,4.036,7.641-13.338q-.925-.008-1.831-.1a22.373,22.373,0,0,1-6.54-1.62Z" transform="translate(-695.021 -222.77)"/><path class="j" d="M712.227,251.265a22.413,22.413,0,0,0,8.035,2.3l20.522-35.822a22.643,22.643,0,0,0-6.057-5.761Z" transform="translate(-697.921 -198.713)"/><path class="i" d="M734.743,200.682a22.527,22.527,0,0,1,3.7.971c.559.2,1.108.418,1.646.66l5.086-8.88-4.73-2.709Z" transform="translate(-706.382 -190.723)"/><path class="i" d="M689.309,278.446l4.73,2.709L700.6,269.7c-.482-.344-.948-.708-1.4-1.087a22.512,22.512,0,0,1-2.714-2.7Z" transform="translate(-689.309 -218.977)"/><path class="j" d="M698.943,242.013a22.708,22.708,0,0,0,3.878,4.2L724.994,207.5a22.361,22.361,0,0,0-5.585-1.212Z" transform="translate(-692.929 -196.573)"/></g></g></g></g></g></g><g transform="translate(501.404 313.059)"><g transform="translate(17.805 49.747)"><rect class="f" width="52.929" height="6.278" transform="translate(0 0)"/><rect class="g" width="4.236" height="6.278" transform="translate(31.609 6.278) rotate(180)"/><rect class="g" width="3.207" height="6.278" transform="translate(16.299 6.278) rotate(180)"/><rect class="k" width="9.286" height="6.278" transform="translate(52.929 6.278) rotate(180)"/><rect class="i" width="52.929" height="5.616"/></g><g transform="translate(22.326 43.47)"><rect class="f" width="52.929" height="6.278" transform="translate(0 0)"/><rect class="g" width="4.236" height="6.278" transform="translate(31.609 6.278) rotate(180)"/><rect class="g" width="3.207" height="6.278" transform="translate(16.299 6.278) rotate(180)"/><rect class="k" width="9.286" height="6.278" transform="translate(52.929 6.278) rotate(180)"/><rect class="i" width="52.929" height="5.616" transform="translate(0 0)"/></g><g transform="translate(24.43 30.86)"><rect class="f" width="52.929" height="6.278" transform="translate(0 0)"/><rect class="g" width="4.236" height="6.278" transform="translate(31.609 6.278) rotate(180)"/><rect class="g" width="3.207" height="6.278" transform="translate(16.299 6.278) rotate(180)"/><rect class="k" width="9.286" height="6.278" transform="translate(52.929 6.278) rotate(180)"/><rect class="i" width="52.929" height="5.616" transform="translate(0 0)"/></g><g transform="translate(18.854 37.192)"><rect class="f" width="52.929" height="6.278" transform="translate(0 0)"/><rect class="g" width="4.236" height="6.278" transform="translate(31.609 6.278) rotate(180)"/><rect class="g" width="3.207" height="6.278" transform="translate(16.299 6.278) rotate(180)"/><rect class="k" width="9.286" height="6.278" transform="translate(52.929 6.278) rotate(180)"/><rect class="i" width="52.929" height="5.616" transform="translate(0 0)"/></g><g transform="translate(20.609 18.566)"><rect class="f" width="52.929" height="6.278" transform="translate(0 0)"/><rect class="g" width="4.236" height="6.278" transform="translate(31.609 6.278) rotate(180)"/><rect class="g" width="3.207" height="6.278" transform="translate(16.299 6.278) rotate(180)"/><rect class="k" width="9.286" height="6.278" transform="translate(52.929 6.278) rotate(180)"/><rect class="i" width="52.929" height="5.616" transform="translate(0 0)"/></g><g transform="translate(15.878 24.637)"><rect class="f" width="52.929" height="6.278" transform="translate(0 0)"/><rect class="g" width="4.236" height="6.278" transform="translate(31.609 6.278) rotate(180)"/><rect class="g" width="3.207" height="6.278" transform="translate(16.299 6.278) rotate(180)"/><rect class="k" width="9.286" height="6.278" transform="translate(52.929 6.278) rotate(180)"/><rect class="i" width="52.929" height="5.616" transform="translate(0 0)"/></g><g transform="translate(15.878 12.288)"><rect class="f" width="52.929" height="6.278" transform="translate(0 0)"/><rect class="g" width="4.236" height="6.278" transform="translate(31.609 6.278) rotate(180)"/><rect class="g" width="3.207" height="6.278" transform="translate(16.299 6.278) rotate(180)"/><rect class="k" width="9.286" height="6.278" transform="translate(52.929 6.278) rotate(180)"/><rect class="i" width="52.929" height="5.616"/></g><g transform="translate(23.998 6.272)"><rect class="f" width="52.929" height="6.278" transform="translate(0 0)"/><rect class="g" width="4.236" height="6.278" transform="translate(31.609 6.278) rotate(180)"/><rect class="g" width="3.207" height="6.278" transform="translate(16.299 6.278) rotate(180)"/><rect class="k" width="9.286" height="6.278" transform="translate(52.929 6.278) rotate(180)"/><rect class="i" width="52.929" height="5.616"/></g><g transform="translate(18.854 0)"><rect class="f" width="52.929" height="6.278" transform="translate(0 0)"/><rect class="g" width="4.236" height="6.278" transform="translate(31.609 6.278) rotate(180)"/><rect class="g" width="3.207" height="6.278" transform="translate(16.299 6.278) rotate(180)"/><rect class="k" width="9.286" height="6.278" transform="translate(52.929 6.278) rotate(180)"/><rect class="i" width="52.929" height="5.616"/></g><g transform="translate(0 3.208)"><rect class="f" width="52.929" height="6.278" transform="translate(0 51.744) rotate(-77.853)"/><rect class="g" width="4.236" height="6.278" transform="matrix(0.21, -0.978, 0.978, 0.21, 4.486, 30.901)"/><rect class="g" width="3.207" height="6.278" transform="translate(7.708 15.934) rotate(-77.853)"/><rect class="k" width="9.286" height="6.278" transform="translate(0 51.744) rotate(-77.853)"/><rect class="i" width="52.929" height="5.616" transform="translate(0 51.744) rotate(-77.853)"/></g></g><g transform="translate(710.154 276.214)"><g transform="translate(4.731 49.681)"><rect class="f" width="52.929" height="6.278" transform="translate(0 0)"/><rect class="g" width="4.236" height="6.278" transform="translate(31.609 6.278) rotate(180)"/><rect class="g" width="3.207" height="6.278" transform="translate(16.299 6.278) rotate(180)"/><rect class="k" width="9.286" height="6.278" transform="translate(52.929 6.278) rotate(180)"/><rect class="i" width="52.929" height="5.616" transform="translate(0 0)"/></g><g transform="translate(0 55.752)"><rect class="f" width="52.929" height="6.278" transform="translate(0 0)"/><rect class="g" width="4.236" height="6.278" transform="translate(31.609 6.278) rotate(180)"/><rect class="g" width="3.207" height="6.278" transform="translate(16.299 6.278) rotate(180)"/><rect class="k" width="9.286" height="6.278" transform="translate(52.929 6.278) rotate(180)"/><rect class="i" width="52.929" height="5.616" transform="translate(0 0)"/></g><g transform="translate(0 43.404)"><rect class="f" width="52.929" height="6.278" transform="translate(0 0)"/><rect class="g" width="4.236" height="6.278" transform="translate(31.609 6.278) rotate(180)"/><rect class="g" width="3.207" height="6.278" transform="translate(16.299 6.278) rotate(180)"/><rect class="k" width="9.286" height="6.278" transform="translate(52.929 6.278) rotate(180)"/><rect class="i" width="52.929" height="5.616"/></g><g transform="translate(8.12 37.387)"><rect class="f" width="52.929" height="6.278" transform="translate(0 0)"/><rect class="g" width="4.236" height="6.278" transform="translate(31.609 6.278) rotate(180)"/><rect class="g" width="3.207" height="6.278" transform="translate(16.299 6.278) rotate(180)"/><rect class="k" width="9.286" height="6.278" transform="translate(52.929 6.278) rotate(180)"/><rect class="i" width="52.929" height="5.616" transform="translate(0 0)"/></g><g transform="translate(0.908 24.837)"><rect class="f" width="52.929" height="6.278" transform="translate(0 0)"/><rect class="g" width="4.236" height="6.278" transform="translate(31.609 6.278) rotate(180)"/><rect class="g" width="3.207" height="6.278" transform="translate(16.299 6.278) rotate(180)"/><rect class="k" width="9.286" height="6.278" transform="translate(52.929 6.278) rotate(180)"/><rect class="i" width="52.929" height="5.616" transform="translate(0 0)"/></g><g transform="translate(2.976 31.115)"><rect class="f" width="52.929" height="6.278" transform="translate(0 0)"/><rect class="g" width="4.236" height="6.278" transform="translate(31.609 6.278) rotate(180)"/><rect class="g" width="3.207" height="6.278" transform="translate(16.299 6.278) rotate(180)"/><rect class="k" width="9.286" height="6.278" transform="translate(52.929 6.278) rotate(180)"/><rect class="i" width="52.929" height="5.616" transform="translate(0 0)"/></g><g transform="translate(6.745 18.56)"><rect class="f" width="52.929" height="6.278" transform="translate(0 0)"/><rect class="g" width="4.236" height="6.278" transform="translate(31.609 6.278) rotate(180)"/><rect class="g" width="3.207" height="6.278" transform="translate(16.299 6.278) rotate(180)"/><rect class="k" width="9.286" height="6.278" transform="translate(52.929 6.278) rotate(180)"/><rect class="i" width="52.929" height="5.616"/></g><g transform="translate(5.144 12.249)"><rect class="f" width="52.929" height="6.278" transform="translate(0 0)"/><rect class="g" width="4.236" height="6.278" transform="translate(31.609 6.278) rotate(180)"/><rect class="g" width="3.207" height="6.278" transform="translate(16.299 6.278) rotate(180)"/><rect class="k" width="9.286" height="6.278" transform="translate(52.929 6.278) rotate(180)"/><rect class="i" width="52.929" height="5.616"/></g><g transform="translate(1.677 6.311)"><rect class="f" width="52.929" height="6.278" transform="translate(0 0)"/><rect class="g" width="4.236" height="6.278" transform="translate(31.609 6.278) rotate(180)"/><rect class="g" width="3.207" height="6.278" transform="translate(16.299 6.278) rotate(180)"/><rect class="k" width="9.286" height="6.278" transform="translate(52.929 6.278) rotate(180)"/><rect class="i" width="52.929" height="5.616" transform="translate(0 0)"/></g><g transform="translate(5.639 0)"><rect class="f" width="52.929" height="6.278" transform="translate(0 0)"/><rect class="g" width="4.236" height="6.278" transform="translate(31.609 6.278) rotate(180)"/><rect class="g" width="3.207" height="6.278" transform="translate(16.299 6.278) rotate(180)"/><rect class="k" width="9.286" height="6.278" transform="translate(52.929 6.278) rotate(180)"/><rect class="i" width="52.929" height="5.616" transform="translate(0 0)"/></g><g transform="translate(22.718 6.894)"><circle class="f" cx="26.056" cy="26.056" r="26.056" transform="translate(0 51.721) rotate(-82.982)"/><path class="g" d="M887.8,395.241a22.317,22.317,0,0,0,4.153,13q.545.763,1.151,1.478a22.278,22.278,0,0,0,2.683,2.674c.446.375.906.734,1.382,1.074a22.081,22.081,0,0,0,2.983,1.805c.482.243.975.47,1.478.677a22.132,22.132,0,0,0,6.467,1.6q.894.089,1.81.1c.1,0,.2,0,.3,0a22.415,22.415,0,0,0,19.177-34.013q-.47-.777-1-1.508a22.314,22.314,0,0,0-4.658-4.762q-.648-.493-1.331-.935a22.387,22.387,0,0,0-3.061-1.665c-.531-.239-1.074-.455-1.627-.652a22.221,22.221,0,0,0-3.662-.96q-.918-.157-1.86-.239-.978-.089-1.977-.088A22.41,22.41,0,0,0,887.8,395.241Z" transform="translate(-881.17 -366.198)"/><g transform="translate(22.54 10.778)"><g transform="translate(4.943 0)"><rect class="f" width="2.122" height="36.473" transform="translate(0 0.046) rotate(-1.248)"/></g><g transform="translate(0 3.83)"><path class="f" d="M919.83,414.471l.171,0c4.122-.09,6.312-4.27,6.4-4.448l-1.888-.971c-.017.032-1.715,3.235-4.561,3.3a3.9,3.9,0,0,1-3.267-1.384,6.647,6.647,0,0,1-1.277-4.124c-.066-3.021,1.157-4.542,4.675-5.81,3.8-1.368,5.679-4,5.6-7.823a9.316,9.316,0,0,0-1.566-5.159,5.542,5.542,0,0,0-4.743-2.439,7.066,7.066,0,0,0-5.772,3.022l1.807,1.112a4.945,4.945,0,0,1,4.011-2.013,3.4,3.4,0,0,1,2.968,1.546,7.3,7.3,0,0,1,1.174,3.976c.063,2.89-1.27,4.726-4.194,5.78-3.065,1.105-6.185,2.9-6.078,7.853a8.719,8.719,0,0,0,1.763,5.43A5.976,5.976,0,0,0,919.83,414.471Z" transform="translate(-913.286 -385.607)"/></g></g><g transform="translate(0 0)"><g class="l"><g transform="translate(4.84 -2.887)"><path class="i" d="M945.363,374.489a22.314,22.314,0,0,1,4.658,4.762q.528.731,1,1.508l6.649-11.606-6.964-3.989Z" transform="translate(-907.639 -360.43)"/><path class="i" d="M899.961,452.8l6.964,3.991,7.554-13.188q-.915-.008-1.81-.1a22.133,22.133,0,0,1-6.467-1.6Z" transform="translate(-890.578 -389.268)"/><path class="j" d="M907.591,417.442a22.164,22.164,0,0,0,7.945,2.279l20.291-35.42a22.4,22.4,0,0,0-5.989-5.7Z" transform="translate(-893.445 -365.481)"/><path class="i" d="M929.854,367.427a22.223,22.223,0,0,1,3.662.96q.83.295,1.627.652l5.029-8.78-4.677-2.679Z" transform="translate(-901.811 -357.58)"/><path class="i" d="M884.93,444.319,889.607,447l6.486-11.323c-.476-.34-.936-.7-1.382-1.074a22.276,22.276,0,0,1-2.683-2.674Z" transform="translate(-884.93 -385.517)"/><path class="j" d="M894.456,408.294a22.454,22.454,0,0,0,3.834,4.152l21.924-38.275a22.12,22.12,0,0,0-5.522-1.2Z" transform="translate(-888.51 -363.364)"/></g></g></g></g></g><g transform="translate(744.679 171.26)"><g transform="translate(24.005)"><path class="m" d="M784.153,282.045l.2,12.2-11.079-.981-.209-2.143-.52-1.405-.006-.016-1.883-5.1Z" transform="translate(-756.823 -257.41)"/><path class="m" d="M784.807,278.358c.406,6.356-2.987,12.61-9.343,13.016s-11.253.928-13.676-11.545c-1.214-6.253,4.418-11.838,10.774-12.245A11.534,11.534,0,0,1,784.807,278.358Z" transform="translate(-757.112 -257.873)"/><path class="n" d="M773.076,290.511" transform="translate(-756.745 -257.139)"/><path class="o" d="M759.47,274.559a17.7,17.7,0,0,1-2.218-4.332s2.561,1.629,6.34-2.513,10.852-9.561,17.213-7.144a12.494,12.494,0,0,1,1.2.525,13.755,13.755,0,0,0-1.855-2.922,10.1,10.1,0,0,1,4.088,4.312h0c.078.059.154.119.231.18,1.586-.121,4.486,1.43,4.486,1.43a3.844,3.844,0,0,0-2.748.141c3.3,3.444,5.052,8.213,3.447,11.648-2.348,5.024-3.383,3.871-4.87,9.846,0,0-2.153-.249-2.233-1.711s1.406-5.112-1.166-4.911-1.851,2.035-3.155,1.733-.861-5.2-6.4-4.145S761.05,276.839,759.47,274.559Z" transform="translate(-757.252 -258.174)"/></g><path class="p" d="M773.953,292.918s-15.715,1.248-19.727,7.361a40.982,40.982,0,0,0-4.921,9.795l5.937.374Z" transform="translate(-733.502 -257.062)"/><g transform="translate(0 28.885)"><g transform="translate(0 63.022)"><path class="q" d="M738.153,445.745a3.413,3.413,0,0,1,1.782,4.091h-5.919a3.572,3.572,0,0,1,1.733-2.655C736.691,446.624,737.468,446.162,738.153,445.745Z" transform="translate(-733.991 -344.076)"/><path class="q" d="M763.8,442.055v4.176c-5.423-.068-4.829-4.88-4.829-4.88,2.17-.139,3.468-.324,3.7-.359l.039-.006h.02A1.07,1.07,0,0,1,763.8,442.055Z" transform="translate(-733.193 -344.228)"/><path class="q" d="M777.772,445.742a3.428,3.428,0,0,1,1.785,4.094h-5.919a3.569,3.569,0,0,1,1.73-2.655C776.31,446.624,777.086,446.162,777.772,445.742Z" transform="translate(-732.723 -344.076)"/><path class="r" d="M764.6,449.709v.136a1.354,1.354,0,0,1-1.352,1.355H735.059a1.071,1.071,0,0,1-1.067-1.067,3.606,3.606,0,0,1,.026-.424H764.6Z" transform="translate(-733.992 -343.949)"/><path class="q" d="M803.423,442.055v4.176c-5.424-.068-4.829-4.88-4.829-4.88,2.17-.139,3.468-.324,3.7-.359.026,0,.039-.006.039-.006h.023A1.069,1.069,0,0,1,803.423,442.055Z" transform="translate(-731.924 -344.228)"/><path class="s" d="M744.4,441.89c.44-.278.912-.579,1.432-.905,0,0,.611.084,1.679.187,1.558.149,4.094.33,7.128.33.268,0,.534,0,.789-.006,1.64-.013,3.057-.071,4.221-.146,0,0-.594,4.812,4.829,4.88v3.758H739.807a3.413,3.413,0,0,0-1.782-4.091c1.44-.876,2.5-1.552,3.959-2.474C742.672,442.98,743.452,442.486,744.4,441.89Z" transform="translate(-733.863 -344.228)"/><path class="s" d="M784.016,441.89c.44-.278.915-.579,1.436-.905,0,0,.518.07,1.44.164,1.529.153,4.171.353,7.364.353.268,0,.534,0,.788-.006,1.64-.013,3.057-.071,4.221-.146,0,0-.6,4.812,4.829,4.88v3.758H779.429a3.428,3.428,0,0,0-1.785-4.094c1.439-.873,2.507-1.549,3.959-2.471C782.291,442.983,783.067,442.489,784.016,441.89Z" transform="translate(-732.594 -344.228)"/><g transform="translate(7.956 97.5)"><g transform="translate(43.303)"><path class="t" d="M786.245,444.513a.16.16,0,0,1-.116-.05l-2.423-2.484a.162.162,0,0,1,.232-.225l2.422,2.483a.162.162,0,0,1,0,.229A.159.159,0,0,1,786.245,444.513Z" transform="translate(-783.661 -441.706)"/></g><g transform="translate(42.091 0.825)"><path class="t" d="M785.073,445.312a.163.163,0,0,1-.116-.048l-2.426-2.484a.162.162,0,1,1,.231-.226l2.426,2.483a.161.161,0,0,1,0,.229A.159.159,0,0,1,785.073,445.312Z" transform="translate(-782.486 -442.505)"/></g><g transform="translate(40.881 1.519)"><path class="t" d="M783.9,445.985a.157.157,0,0,1-.116-.048l-2.413-2.471a.342.342,0,0,1-.024-.029.161.161,0,0,1,.032-.226.159.159,0,0,1,.226.032l.01.012,2.4,2.455a.163.163,0,0,1,0,.229A.158.158,0,0,1,783.9,445.985Z" transform="translate(-781.313 -443.178)"/></g><g transform="translate(2.416)"><path class="t" d="M746.626,444.513a.16.16,0,0,1-.116-.05l-2.422-2.484a.16.16,0,0,1,0-.228.163.163,0,0,1,.229,0l2.422,2.483a.162.162,0,0,1,0,.229A.159.159,0,0,1,746.626,444.513Z" transform="translate(-744.042 -441.706)"/></g><g transform="translate(1.203 0.825)"><path class="t" d="M745.451,445.312a.158.158,0,0,1-.116-.05l-2.423-2.483a.162.162,0,0,1,.232-.226l2.422,2.484a.161.161,0,0,1,0,.228A.159.159,0,0,1,745.451,445.312Z" transform="translate(-742.867 -442.505)"/></g><g transform="translate(0 1.523)"><path class="t" d="M744.279,445.985a.157.157,0,0,1-.116-.048l-2.413-2.471a.168.168,0,0,1,0-.234.153.153,0,0,1,.221-.006l.013.013,2.414,2.472a.163.163,0,0,1,0,.229A.158.158,0,0,1,744.279,445.985Z" transform="translate(-741.701 -443.181)"/></g></g><path class="m" d="M802.757,438.017v3.063a.188.188,0,0,0-.039.006c-.417.045-4.188.453-7.918.5-.255.006-.52.006-.788.006-3.193,0-5.835-.2-7.364-.353-.887-.094-1.381-.164-1.381-.164v-3.063h17.491Z" transform="translate(-732.35 -344.323)"/><path class="q" d="M784.013,347.23h7.3a10.085,10.085,0,0,0,8.115,9.891,9.891,9.891,0,0,0,1.969.194l.308-.009,2.484,81.933.052,1.685h-19.9l-.2-1.682L777.03,379.5l-3.843-32.272Z" transform="translate(-732.737 -347.23)"/><path class="m" d="M763.137,438.017v3.063a.187.187,0,0,0-.039.006c-.417.045-4.188.453-7.918.5-.255.006-.52.006-.789.006-3.034,0-5.57-.182-7.128-.33-1.035-.1-1.617-.187-1.617-.187v-3.063h17.491Z" transform="translate(-733.619 -344.323)"/><path class="s" d="M774.109,347.23h-7.3c0,4.677-2.949,8.61-8.179,9.751a15.211,15.211,0,0,1-3.234.333l-10.8,81.923-.223,1.685h20.279l.365-1.685L777.953,379.5Z" transform="translate(-733.659 -347.23)"/><path class="r" d="M804.222,449.709v.136a1.354,1.354,0,0,1-1.352,1.355H774.678a1.066,1.066,0,0,1-1.064-1.067,3.646,3.646,0,0,1,.026-.424h30.583Z" transform="translate(-732.723 -343.949)"/><g transform="translate(10.822)"><path class="r" d="M773.187,347.23l1.24,44.288,2.6-12.017Z" transform="translate(-743.559 -347.23)"/><path class="r" d="M800.831,347.23l.308,10.076-.308.009a9.893,9.893,0,0,1-1.969-.194,10.085,10.085,0,0,1-8.115-9.891Z" transform="translate(-742.997 -347.23)"/><path class="r" d="M756.387,347.23h10.084c0,4.677-2.95,8.61-8.179,9.751a15.212,15.212,0,0,1-3.234.333Z" transform="translate(-744.139 -347.23)"/><g transform="translate(0 9.589)"><g transform="translate(1.846)"><g transform="translate(12.075)"><path class="u" d="M758.13,357.326l-.024,0a.161.161,0,0,1-.137-.183l.07-.48a.16.16,0,0,1,.183-.137.163.163,0,0,1,.137.184l-.07.48A.161.161,0,0,1,758.13,357.326Z" transform="translate(-757.967 -356.522)"/></g><g transform="translate(0.206 1.434)"><path class="u" d="M746.629,439.309l-.024,0a.16.16,0,0,1-.136-.183l.137-.954a.162.162,0,1,1,.32.045l-.137.955A.161.161,0,0,1,746.629,439.309Zm.276-1.908h-.023a.163.163,0,0,1-.137-.184l.138-.954a.162.162,0,1,1,.32.046l-.138.954A.161.161,0,0,1,746.9,437.4Zm.277-1.907-.024,0a.16.16,0,0,1-.136-.183l.137-.954a.164.164,0,0,1,.184-.137.161.161,0,0,1,.136.183l-.137.955A.163.163,0,0,1,747.181,435.494Zm.276-1.907-.023,0a.162.162,0,0,1-.137-.183l.138-.955a.163.163,0,0,1,.183-.136.161.161,0,0,1,.137.183l-.138.954A.162.162,0,0,1,747.457,433.587Zm.277-1.908h-.024a.163.163,0,0,1-.137-.184l.138-.954a.162.162,0,1,1,.32.046l-.138.954A.161.161,0,0,1,747.733,431.678Zm.276-1.907-.024,0a.161.161,0,0,1-.136-.183l.138-.955a.162.162,0,1,1,.32.046l-.138.954A.162.162,0,0,1,748.009,429.771Zm.277-1.908h-.024a.163.163,0,0,1-.137-.184l.138-.954a.162.162,0,1,1,.32.046l-.138.954A.161.161,0,0,1,748.285,427.863Zm.275-1.907-.024,0a.16.16,0,0,1-.136-.183l.138-.954a.162.162,0,1,1,.32.045l-.138.955A.161.161,0,0,1,748.561,425.956Zm.276-1.908h-.023a.163.163,0,0,1-.137-.184l.138-.954a.162.162,0,1,1,.32.046l-.138.954A.161.161,0,0,1,748.836,424.048Zm.277-1.907-.024,0a.161.161,0,0,1-.136-.183l.137-.954a.163.163,0,0,1,.184-.137.161.161,0,0,1,.136.183l-.137.954A.161.161,0,0,1,749.113,422.141Zm.276-1.908h-.023a.163.163,0,0,1-.137-.184l.138-.954a.16.16,0,0,1,.183-.137.163.163,0,0,1,.137.184l-.138.954A.161.161,0,0,1,749.389,420.232Zm.277-1.907-.024,0a.16.16,0,0,1-.136-.183l.137-.954a.162.162,0,1,1,.32.046l-.137.954A.163.163,0,0,1,749.665,418.325Zm.276-1.907-.023,0a.162.162,0,0,1-.137-.184l.138-.954a.157.157,0,0,1,.183-.136.161.161,0,0,1,.137.183l-.138.954A.162.162,0,0,1,749.941,416.418Zm.277-1.908h-.024a.162.162,0,0,1-.136-.184l.137-.954a.16.16,0,0,1,.184-.137.162.162,0,0,1,.136.184l-.137.954A.163.163,0,0,1,750.217,414.51Zm.276-1.907-.023,0a.162.162,0,0,1-.137-.183l.138-.955a.159.159,0,0,1,.183-.136.162.162,0,0,1,.137.183l-.138.954A.161.161,0,0,1,750.493,412.6Zm.277-1.908h-.024a.162.162,0,0,1-.136-.184l.137-.954a.162.162,0,1,1,.32.046l-.137.954A.163.163,0,0,1,750.769,410.694Zm.276-1.907-.024,0a.162.162,0,0,1-.136-.183l.138-.954a.159.159,0,0,1,.183-.137.162.162,0,0,1,.137.183l-.138.955A.161.161,0,0,1,751.045,408.787Zm.277-1.908H751.3a.163.163,0,0,1-.137-.184l.138-.954a.162.162,0,1,1,.32.046l-.138.954A.161.161,0,0,1,751.322,406.879Zm.276-1.907-.024,0a.161.161,0,0,1-.136-.183l.138-.954a.16.16,0,0,1,.183-.137.162.162,0,0,1,.137.184l-.138.954A.161.161,0,0,1,751.6,404.972Zm.277-1.907-.024,0a.163.163,0,0,1-.137-.184l.138-.954a.158.158,0,0,1,.184-.136.16.16,0,0,1,.136.183l-.138.954A.162.162,0,0,1,751.874,403.065Zm.276-1.908h-.024a.162.162,0,0,1-.136-.184l.138-.954a.158.158,0,0,1,.183-.137.163.163,0,0,1,.137.184l-.138.954A.161.161,0,0,1,752.149,401.156Zm.276-1.907-.023,0a.162.162,0,0,1-.137-.183l.138-.955a.162.162,0,0,1,.32.046l-.138.954A.161.161,0,0,1,752.425,399.249Zm.277-1.908h-.024a.162.162,0,0,1-.136-.184l.137-.954a.162.162,0,1,1,.32.046l-.137.954A.163.163,0,0,1,752.7,397.341Zm.276-1.907-.023,0a.162.162,0,0,1-.137-.183l.138-.955a.159.159,0,0,1,.183-.136.162.162,0,0,1,.137.183l-.138.955A.161.161,0,0,1,752.977,395.434Zm.277-1.908h-.024a.162.162,0,0,1-.136-.184l.137-.954a.162.162,0,1,1,.32.047l-.137.953A.163.163,0,0,1,753.253,393.526Zm.276-1.907-.023,0a.162.162,0,0,1-.137-.183l.138-.954a.159.159,0,0,1,.183-.137.162.162,0,0,1,.137.184l-.138.954A.161.161,0,0,1,753.529,391.619Zm.277-1.907-.024,0a.162.162,0,0,1-.136-.184l.137-.954a.162.162,0,0,1,.32.046l-.137.954A.164.164,0,0,1,753.806,389.711Zm.276-1.908-.023,0a.161.161,0,0,1-.137-.183l.138-.954a.159.159,0,0,1,.183-.137.162.162,0,0,1,.137.184l-.138.954A.161.161,0,0,1,754.081,387.8Zm.277-1.907-.024,0a.162.162,0,0,1-.137-.184l.138-.954a.162.162,0,0,1,.32.046l-.138.954A.162.162,0,0,1,754.358,385.9Zm.276-1.908h-.024a.162.162,0,0,1-.136-.184l.138-.954a.16.16,0,0,1,.183-.137.163.163,0,0,1,.137.184l-.138.954A.161.161,0,0,1,754.633,383.988Zm.276-1.907-.024,0a.162.162,0,0,1-.137-.183l.138-.955a.159.159,0,0,1,.184-.136.161.161,0,0,1,.136.183l-.138.955A.161.161,0,0,1,754.91,382.081Zm.276-1.908h-.024a.162.162,0,0,1-.136-.184l.138-.954a.162.162,0,1,1,.32.046l-.138.954A.161.161,0,0,1,755.185,380.173Zm.277-1.907-.024,0a.162.162,0,0,1-.137-.183l.138-.955a.162.162,0,0,1,.32.046l-.138.955A.161.161,0,0,1,755.462,378.265Zm.276-1.907-.023,0a.161.161,0,0,1-.137-.184l.137-.954a.162.162,0,0,1,.184-.136.16.16,0,0,1,.136.183l-.137.954A.162.162,0,0,1,755.737,376.358Zm.275-1.908-.023,0a.161.161,0,0,1-.137-.183l.138-.954a.16.16,0,0,1,.183-.137.163.163,0,0,1,.137.184l-.138.954A.161.161,0,0,1,756.013,374.45Zm.277-1.907-.024,0a.161.161,0,0,1-.136-.184l.137-.954a.162.162,0,0,1,.32.046l-.137.954A.163.163,0,0,1,756.29,372.543Zm.276-1.908-.023,0a.161.161,0,0,1-.137-.183l.138-.954a.161.161,0,0,1,.183-.137.163.163,0,0,1,.137.184l-.138.953A.161.161,0,0,1,756.565,370.635Zm.277-1.907-.024,0a.161.161,0,0,1-.136-.183l.137-.955a.162.162,0,0,1,.32.046l-.137.955A.163.163,0,0,1,756.842,368.727Zm.276-1.908h-.023a.163.163,0,0,1-.137-.184l.138-.954a.16.16,0,0,1,.183-.137.163.163,0,0,1,.137.184l-.138.954A.161.161,0,0,1,757.117,366.819Zm.277-1.907-.024,0a.161.161,0,0,1-.136-.183l.137-.955a.162.162,0,0,1,.32.046l-.137.954A.163.163,0,0,1,757.394,364.912Zm.276-1.908h-.024a.163.163,0,0,1-.136-.184l.138-.954a.162.162,0,0,1,.32.046l-.138.954A.161.161,0,0,1,757.669,363Zm.277-1.907-.024,0a.162.162,0,0,1-.137-.183l.138-.955a.162.162,0,0,1,.32.047l-.138.954A.161.161,0,0,1,757.946,361.1Zm.275-1.907-.024,0a.161.161,0,0,1-.136-.184l.138-.954a.158.158,0,0,1,.183-.136.161.161,0,0,1,.137.183l-.138.954A.162.162,0,0,1,758.221,359.19Z" transform="translate(-746.467 -357.911)"/></g><g transform="translate(0 83.462)"><path class="u" d="M746.429,438.2h-.024a.162.162,0,0,1-.136-.184l.069-.48a.162.162,0,1,1,.32.046l-.069.48A.161.161,0,0,1,746.429,438.2Z" transform="translate(-746.267 -437.395)"/></g></g><g transform="translate(0 82.257)"><path class="u" d="M765.015,436.551h-.97a.162.162,0,0,1,0-.324h.97a.162.162,0,1,1,0,.324Zm-1.94,0H762.1a.162.162,0,0,1,0-.324h.971a.162.162,0,0,1,0,.324Zm-1.941,0h-.97a.162.162,0,0,1,0-.324h.97a.162.162,0,1,1,0,.324Zm-1.94,0h-.97a.162.162,0,1,1,0-.324h.97a.162.162,0,0,1,0,.324Zm-1.94,0h-.971a.162.162,0,0,1,0-.324h.971a.162.162,0,0,1,0,.324Zm-1.941,0h-.97a.162.162,0,0,1,0-.324h.97a.162.162,0,0,1,0,.324Zm-1.94,0h-.97a.162.162,0,0,1,0-.324h.97a.162.162,0,1,1,0,.324Zm-1.94,0h-.971a.162.162,0,0,1,0-.324h.971a.162.162,0,0,1,0,.324Zm-1.941,0h-.97a.162.162,0,1,1,0-.324h.97a.162.162,0,1,1,0,.324Zm-1.94,0h-.97a.162.162,0,1,1,0-.324h.97a.162.162,0,0,1,0,.324Zm-1.94,0h-.971a.162.162,0,0,1,0-.324h.971a.162.162,0,0,1,0,.324Z" transform="translate(-744.478 -436.227)"/></g><g transform="translate(55.703 0.139)"><path class="u" d="M801.005,440.783a.161.161,0,0,1-.162-.157l-.011-.392a.163.163,0,0,1,.157-.167.168.168,0,0,1,.166.157l.011.393a.16.16,0,0,1-.157.166Zm-.039-1.362a.162.162,0,0,1-.162-.157l-.028-.97a.162.162,0,0,1,.157-.166.164.164,0,0,1,.167.157l.027.97a.161.161,0,0,1-.157.166Zm-.056-1.94a.162.162,0,0,1-.162-.157l-.027-.97a.162.162,0,0,1,.157-.166.166.166,0,0,1,.166.157l.028.97a.161.161,0,0,1-.157.166Zm-.056-1.939a.161.161,0,0,1-.161-.157l-.028-.97a.162.162,0,1,1,.323-.009l.028.97a.162.162,0,0,1-.157.166Zm-.055-1.94a.162.162,0,0,1-.162-.157l-.028-.97a.162.162,0,0,1,.158-.166.164.164,0,0,1,.166.157l.027.97a.161.161,0,0,1-.157.166Zm-.056-1.939a.161.161,0,0,1-.161-.157l-.028-.97a.162.162,0,0,1,.157-.167.166.166,0,0,1,.166.158l.028.969a.163.163,0,0,1-.157.167Zm-.055-1.94a.161.161,0,0,1-.162-.157l-.028-.97a.162.162,0,0,1,.324-.009l.027.97a.161.161,0,0,1-.157.166Zm-.056-1.94a.162.162,0,0,1-.162-.157l-.027-.969a.162.162,0,0,1,.157-.167.165.165,0,0,1,.166.157l.028.97a.162.162,0,0,1-.157.166Zm-.056-1.939a.161.161,0,0,1-.161-.157l-.028-.97a.161.161,0,0,1,.157-.166.158.158,0,0,1,.166.157l.028.97a.162.162,0,0,1-.157.166Zm-.055-1.94a.162.162,0,0,1-.162-.157l-.028-.97a.163.163,0,0,1,.158-.166.169.169,0,0,1,.166.157l.028.97a.162.162,0,0,1-.158.166Zm-.056-1.939a.162.162,0,0,1-.161-.157l-.028-.97a.162.162,0,0,1,.157-.167.164.164,0,0,1,.166.158l.028.969a.163.163,0,0,1-.157.167Zm-.055-1.94a.161.161,0,0,1-.162-.157l-.028-.97a.162.162,0,0,1,.157-.166.157.157,0,0,1,.166.157l.028.97a.161.161,0,0,1-.157.166Zm-.056-1.94a.162.162,0,0,1-.162-.157l-.027-.97a.162.162,0,1,1,.323-.008l.028.969a.162.162,0,0,1-.158.166Zm-.056-1.939a.161.161,0,0,1-.161-.157l-.028-.97a.162.162,0,0,1,.157-.166.168.168,0,0,1,.166.157l.028.97a.162.162,0,0,1-.157.166Zm-.055-1.94a.162.162,0,0,1-.162-.157l-.028-.97a.163.163,0,0,1,.158-.166.166.166,0,0,1,.166.157l.028.97a.162.162,0,0,1-.158.166Zm-.056-1.939a.161.161,0,0,1-.161-.157l-.028-.97a.162.162,0,1,1,.323-.009l.028.97a.163.163,0,0,1-.157.166Zm-.056-1.94a.161.161,0,0,1-.161-.157l-.028-.97a.162.162,0,0,1,.324-.009l.027.97a.16.16,0,0,1-.157.166Zm-.055-1.939a.163.163,0,0,1-.162-.158l-.027-.97a.162.162,0,0,1,.157-.166.16.16,0,0,1,.166.158l.028.969a.163.163,0,0,1-.158.167Zm-.056-1.94a.161.161,0,0,1-.161-.157l-.028-.97a.161.161,0,0,1,.157-.166.166.166,0,0,1,.166.157l.028.97a.162.162,0,0,1-.157.166Zm-.055-1.94a.162.162,0,0,1-.162-.157l-.028-.97a.162.162,0,0,1,.324-.009l.028.97a.162.162,0,0,1-.158.166Zm-.056-1.939a.161.161,0,0,1-.161-.157l-.028-.97a.161.161,0,0,1,.157-.166.164.164,0,0,1,.166.157l.028.97a.163.163,0,0,1-.157.166Zm-.055-1.94a.161.161,0,0,1-.162-.157l-.028-.97a.162.162,0,0,1,.157-.166.157.157,0,0,1,.167.157l.027.97a.16.16,0,0,1-.157.166Zm-.056-1.939a.164.164,0,0,1-.162-.158l-.027-.969a.162.162,0,0,1,.157-.167.164.164,0,0,1,.166.158l.028.97a.163.163,0,0,1-.157.166Zm-.056-1.94a.161.161,0,0,1-.161-.157l-.028-.97a.161.161,0,0,1,.157-.166.164.164,0,0,1,.166.157l.028.97a.161.161,0,0,1-.157.166Zm-.055-1.939a.163.163,0,0,1-.162-.158l-.028-.97a.162.162,0,0,1,.324-.009l.028.97a.163.163,0,0,1-.158.167Zm-.056-1.94a.161.161,0,0,1-.161-.157l-.028-.97a.161.161,0,0,1,.157-.166.158.158,0,0,1,.166.157l.028.97a.163.163,0,0,1-.157.166Zm-.055-1.94a.161.161,0,0,1-.162-.157l-.028-.97a.163.163,0,0,1,.157-.166.166.166,0,0,1,.167.157l.027.97a.16.16,0,0,1-.157.166Zm-.056-1.939a.162.162,0,0,1-.162-.158l-.027-.969a.162.162,0,0,1,.157-.167.168.168,0,0,1,.166.158l.028.97a.163.163,0,0,1-.158.166Zm-.056-1.94a.161.161,0,0,1-.161-.157l-.028-.97a.162.162,0,0,1,.323-.009l.028.97a.161.161,0,0,1-.157.166Zm-.055-1.939a.163.163,0,0,1-.162-.158l-.028-.97a.163.163,0,0,1,.158-.166.166.166,0,0,1,.166.158l.028.969a.163.163,0,0,1-.158.167Zm-.056-1.94a.161.161,0,0,1-.161-.157l-.028-.97a.16.16,0,0,1,.157-.166.166.166,0,0,1,.166.157l.028.97a.162.162,0,0,1-.157.166Zm-.055-1.94a.161.161,0,0,1-.162-.157l-.028-.97a.163.163,0,0,1,.157-.166.165.165,0,0,1,.167.157l.027.97a.16.16,0,0,1-.157.166Zm-.056-1.939a.162.162,0,0,1-.162-.157l-.027-.97a.16.16,0,0,1,.157-.166.164.164,0,0,1,.166.157l.028.97a.163.163,0,0,1-.157.166Zm-.056-1.94a.161.161,0,0,1-.161-.157l-.028-.97a.162.162,0,0,1,.157-.166.16.16,0,0,1,.166.157l.028.97a.161.161,0,0,1-.157.166Zm-.055-1.939a.163.163,0,0,1-.162-.158l-.028-.969a.162.162,0,1,1,.324-.009l.028.97a.163.163,0,0,1-.158.166Zm-.056-1.94a.161.161,0,0,1-.161-.157l-.028-.97a.161.161,0,0,1,.157-.166.163.163,0,0,1,.166.157l.028.97a.163.163,0,0,1-.157.166Zm-.055-1.94a.161.161,0,0,1-.162-.157l-.028-.97a.163.163,0,0,1,.157-.166.167.167,0,0,1,.167.157l.027.97a.16.16,0,0,1-.157.166Zm-.056-1.939a.162.162,0,0,1-.162-.157l-.027-.97a.16.16,0,0,1,.157-.166.162.162,0,0,1,.166.157l.028.97a.163.163,0,0,1-.157.166Zm-.056-1.94a.161.161,0,0,1-.161-.157l-.028-.97a.162.162,0,1,1,.323-.009l.028.97a.161.161,0,0,1-.157.166Zm-.055-1.939a.162.162,0,0,1-.162-.158l-.028-.969a.163.163,0,0,1,.158-.167.168.168,0,0,1,.166.158l.028.97a.163.163,0,0,1-.158.166Zm-.056-1.94a.161.161,0,0,1-.161-.157l-.028-.97a.162.162,0,0,1,.323-.009l.028.97a.162.162,0,0,1-.157.166Zm-.055-1.939a.163.163,0,0,1-.162-.158l-.028-.97a.163.163,0,0,1,.158-.166.166.166,0,0,1,.166.158l.027.969a.162.162,0,0,1-.157.167Zm-.056-1.94a.162.162,0,0,1-.162-.157l-.027-.97a.162.162,0,0,1,.323-.009l.028.97a.163.163,0,0,1-.158.166Zm-.056-1.94a.161.161,0,0,1-.161-.157l-.028-.97a.163.163,0,0,1,.157-.166.169.169,0,0,1,.166.157l.028.97a.161.161,0,0,1-.157.166Z" transform="translate(-798.453 -356.657)"/></g><g transform="translate(40.437 82.257)"><path class="u" d="M803.849,436.551h-.621a.162.162,0,0,1,0-.324h.621a.162.162,0,1,1,0,.324Zm-1.591,0h-.97a.162.162,0,1,1,0-.324h.97a.162.162,0,0,1,0,.324Zm-1.94,0h-.97a.162.162,0,1,1,0-.324h.97a.162.162,0,0,1,0,.324Zm-1.941,0h-.97a.162.162,0,1,1,0-.324h.97a.162.162,0,1,1,0,.324Zm-1.94,0h-.97a.162.162,0,1,1,0-.324h.97a.162.162,0,1,1,0,.324Zm-1.94,0h-.971a.162.162,0,0,1,0-.324h.971a.162.162,0,0,1,0,.324Zm-1.941,0h-.97a.162.162,0,1,1,0-.324h.97a.162.162,0,0,1,0,.324Zm-1.94,0h-.97a.162.162,0,1,1,0-.324h.97a.162.162,0,0,1,0,.324Zm-1.94,0H787.7a.162.162,0,0,1,0-.324h.971a.162.162,0,0,1,0,.324Zm-1.941,0h-.97a.162.162,0,1,1,0-.324h.97a.162.162,0,0,1,0,.324Zm-1.94,0h-.97a.162.162,0,1,1,0-.324h.97a.162.162,0,0,1,0,.324Z" transform="translate(-783.661 -436.227)"/></g></g><path class="v" d="M802.111,347.23l.078,7.581-46.628-1.433.81-6.148Z" transform="translate(-744.123 -347.23)"/></g></g><g transform="translate(6.81)"><g transform="translate(27.774)"><path class="p" d="M768.855,334.7,767.5,347.633h22.711l-.523-4.991a30.925,30.925,0,0,1-14.4-6.708Z" transform="translate(-767.503 -284.609)"/><path class="w" d="M769.33,329.911l-.517,4.938,6.437,1.238a30.927,30.927,0,0,0,14.4,6.708l-.336-3.215v0a.045.045,0,0,1-.029-.01l-.382-.135c-.686-.246-1.349-.5-1.986-.767-.21-.084-.421-.171-.624-.259s-.408-.174-.608-.261-.4-.172-.586-.259-.378-.171-.562-.259-.349-.162-.517-.243-.359-.171-.53-.256c-.085-.038-.165-.08-.247-.119l-.692-.347c-.074-.038-.145-.074-.217-.113q-.146-.073-.282-.146c-.065-.032-.126-.064-.188-.1-.3-.158-.575-.3-.811-.437-.1-.058-.2-.109-.288-.158s-.191-.1-.276-.153c-.132-.071-.242-.135-.332-.187-.056-.033-.1-.059-.142-.085-.081-.045-.123-.071-.123-.071l.132-.465c-4.059-.152-10.049-2.125-10.6-3.519a1.266,1.266,0,0,1,.13-1.287Z" transform="translate(-767.461 -284.762)"/><path class="w" d="M769.33,329.911l-.517,4.938,6.437,1.238a30.927,30.927,0,0,0,14.4,6.708l-.336-3.215v0a.045.045,0,0,1-.029-.01l-.382-.135c-.686-.246-1.349-.5-1.986-.767-.21-.084-.421-.171-.624-.259s-.408-.174-.608-.261-.4-.172-.586-.259-.378-.171-.562-.259-.349-.162-.517-.243-.359-.171-.53-.256c-.085-.038-.165-.08-.247-.119l-.692-.347c-.074-.038-.145-.074-.217-.113q-.146-.073-.282-.146c-.065-.032-.126-.064-.188-.1-.3-.158-.575-.3-.811-.437-.1-.058-.2-.109-.288-.158s-.191-.1-.276-.153c-.132-.071-.242-.135-.332-.187-.056-.033-.1-.059-.142-.085-.081-.045-.123-.071-.123-.071l.132-.465c-4.059-.152-10.049-2.125-10.6-3.519a1.266,1.266,0,0,1,.13-1.287Z" transform="translate(-767.461 -284.762)"/><path class="x" d="M782.524,286.163s-.168,4.524-6.125,6.831a17.726,17.726,0,0,1-3.205.89l-.032-.447-.175-2.445S780.347,290.855,782.524,286.163Z" transform="translate(-767.327 -286.163)"/><path class="m" d="M784.572,296.722a11.964,11.964,0,0,1-5.473,1.21,10.413,10.413,0,0,1-6.229-1.9l.3-2.807.032.447a17.731,17.731,0,0,0,3.206-.89c1.468-.029,2.208,0,2.208,0h3.936s.608.015,1.627.142Z" transform="translate(-767.331 -285.952)"/><path class="p" d="M769.535,331.031a1.811,1.811,0,0,1,1.778-.414,6.3,6.3,0,0,1,.932.226c.815.262,1.572.65,2.305.947a5.074,5.074,0,0,0,1.6.424c1.536.1,1.555-1.679-.124-1.843h-.006a2.131,2.131,0,0,1-1.058-.376c-.666-.5-.459-1.32,1.249-1.307,2.116.02,4.667,1.792,5.13,2.122l.243-.3,6.639.515.027-.34-3.565-34.064a11.964,11.964,0,0,1-5.473,1.209,10.42,10.42,0,0,1-6.229-1.9l-3.406,32.533L769.314,331Z" transform="translate(-767.445 -285.85)"/><path class="y" d="M780.672,335.683c.236.133.508.279.811.437l.188.1q.136.073.282.145c.071.036.142.075.217.114l.692.347c.081.038.162.08.247.119.171.085.349.172.531.256s.343.162.517.243l.562.259.586.259c.2.087.4.174.608.261s.414.175.624.259c.637.262,1.3.521,1.986.767A61.351,61.351,0,0,1,780.672,335.683Z" transform="translate(-767.081 -284.578)"/><path class="y" d="M781.646,336.206l-.188-.1C781.52,336.142,781.581,336.174,781.646,336.206Z" transform="translate(-767.056 -284.564)"/><path class="y" d="M781.913,336.344c.071.039.142.075.217.113C782.055,336.419,781.984,336.38,781.913,336.344Z" transform="translate(-767.042 -284.556)"/><path class="y" d="M788.676,339.278v0c.1.032.2.068.3.1Z" transform="translate(-766.825 -284.462)"/></g><path class="z" d="M754.671,315.083l-4.254,36.8,17.106,2.125.527-5.035,1.352-12.937.517-4.938.265-2.533,3.733-35.645,0-.023a57.052,57.052,0,0,0-9.454,1.6s-8.52,2.483-9.789,20.588Z" transform="translate(-740.276 -285.947)"/><path class="z" d="M779.547,336.4s.041.026.123.071c.038.026.087.052.142.085.09.052.2.116.332.187.085.048.176.1.276.153a61.765,61.765,0,0,0,8.137,3.722l.382.135a.045.045,0,0,0,.029.01l.3.106c-.1-.035-.2-.071-.3-.1l.337,3.215.523,4.991.527,5.035,17.107-2.125-2.552-10.673c8.309-5.355,3.719-23.067-1.64-35.531-4.3-10-15.175-12.254-19.308-12.756l3.962,37.861-.026.34-6.64-.515-.244.3.071.055-.876,3.1-.531,1.873Z" transform="translate(-739.344 -285.947)"/><g transform="translate(16.609 37.727)"><g transform="translate(0.324 0.169)"><path class="aa" d="M775.812,328.212l-.043.112,0,.015-1.51,3.989-.046.128,1.609.609a1.092,1.092,0,0,0,1.408-.637l.834-2.2a1.1,1.1,0,0,0-.639-1.411Z" transform="translate(-756.448 -322.713)"/><path class="ab" d="M775.458,327.789a.415.415,0,0,0-.527.239l-1.508,3.991a.408.408,0,0,0,.239.527l.092.035a.414.414,0,0,0,.527-.239l1.51-3.989,0-.015a.416.416,0,0,0-.245-.514Z" transform="translate(-756.474 -322.727)"/><path class="ab" d="M774.627,327.476a.408.408,0,0,0-.527.238l-1.51,3.989a.407.407,0,0,0,.239.527l.092.035a.41.41,0,0,0,.529-.236l1.508-3.991a.412.412,0,0,0-.238-.527Z" transform="translate(-756.501 -322.737)"/><path class="ab" d="M773.765,327.151a.408.408,0,0,0-.527.239l-.753,1.992-.755,1.995a.408.408,0,0,0,.24.527l.092.035a.411.411,0,0,0,.53-.236l1.5-3.989a.41.41,0,0,0-.236-.529Z" transform="translate(-756.528 -322.748)"/><path class="ac" d="M760.685,326.421l-.734.406.165.186,11.914,4.506.272-.722-.049-.017L760.679,326.4Z" transform="translate(-756.904 -322.771)"/><path class="ad" d="M761.21,325.048l-.874.478.33.922,11.574,4.376.049.017.532-1.4Z" transform="translate(-756.892 -322.814)"/><path class="ac" d="M761.674,322.884l-.252.033.274.747,11.585,4.384.047.019.258-.679Z" transform="translate(-756.857 -322.884)"/><path class="ad" d="M761.728,323.679l-.874.478.339.936,11.612,4.39.541-1.441-.047-.019-11.585-4.384Z" transform="translate(-756.875 -322.859)"/><path class="ae" d="M761.816,323.663l-.274-.747-3.418.427a.653.653,0,0,1-.432.955l2.332,2.64.734-.406-.006-.015-.33-.923.874-.478-.339-.936.873-.478Z" transform="translate(-756.977 -322.883)"/><path class="af" d="M758.146,323.33l-1.146.146.714.809A.653.653,0,0,0,758.146,323.33Z" transform="translate(-756.999 -322.869)"/></g><g transform="translate(0 0.003)"><path class="u" d="M772.229,331.845l-12.1-4.577-3.441-3.9,5.16-.649.038.014,12.063,4.562Zm-11.914-4.852,11.726,4.435,1.489-3.941-11.723-4.432-.212.028-4.262.535Z" transform="translate(-756.685 -322.723)"/></g><g transform="translate(15.338 4.384)"><path class="u" d="M772.211,332.133a.561.561,0,0,1-.2-.038l-.092-.035a.562.562,0,0,1-.316-.292.578.578,0,0,1-.017-.443l1.508-3.987a.568.568,0,0,1,.737-.333l.09.032a.574.574,0,0,1,.334.74l-1.506,3.988a.576.576,0,0,1-.535.368Zm1.412-4.842a.244.244,0,0,0-.229.161h0l-1.508,3.986a.25.25,0,0,0,.008.193.241.241,0,0,0,.135.126l.095.036a.249.249,0,0,0,.32-.145l1.506-3.988a.249.249,0,0,0-.143-.321l-.09-.032A.273.273,0,0,0,773.623,327.291Z" transform="translate(-771.547 -326.968)"/></g><g transform="translate(16.223 4.719)"><path class="u" d="M773.07,332.459a.564.564,0,0,1-.2-.038l-.092-.035a.566.566,0,0,1-.32-.3.56.56,0,0,1-.011-.438l1.509-3.987a.556.556,0,0,1,.293-.317.571.571,0,0,1,.442-.017l.094.035a.574.574,0,0,1,.332.736l-.3-.115a.25.25,0,0,0-.147-.319l-.091-.035a.248.248,0,0,0-.192.008.235.235,0,0,0-.126.135l-1.511,3.99a.246.246,0,0,0,.145.319l.093.036a.247.247,0,0,0,.19-.005.251.251,0,0,0,.131-.139l.3.117A.572.572,0,0,1,773.07,332.459Z" transform="translate(-772.405 -327.292)"/></g><g transform="translate(17.084 5.044)"><path class="u" d="M773.9,332.774a.537.537,0,0,1-.2-.037l-.093-.035a.569.569,0,0,1-.332-.737l1.508-3.99a.575.575,0,0,1,.734-.333l.094.036a.577.577,0,0,1,.344.7l0,.009h-.006l-.313-.047.006-.034a.26.26,0,0,0-.146-.33l-.091-.035a.255.255,0,0,0-.318.146l-1.508,3.991a.247.247,0,0,0,.143.319l.094.036a.25.25,0,0,0,.319-.147l.3.117A.577.577,0,0,1,773.9,332.774Z" transform="translate(-773.239 -327.607)"/></g><g transform="translate(17.879 5.459)"><path class="u" d="M776.21,333.3a1.244,1.244,0,0,1-.443-.082l-1.759-.665.1-.278,1.615-4.269,1.76.666a1.259,1.259,0,0,1,.732,1.618l-.834,2.2a1.254,1.254,0,0,1-1.172.811Zm-1.789-.936,1.459.552a.93.93,0,0,0,1.2-.542l.834-2.2a.936.936,0,0,0-.544-1.2l-1.456-.551Z" transform="translate(-774.009 -328.01)"/></g><g transform="translate(3.156)"><path class="u" d="M759.9,327.161l-.154-.284.75-.413-.336-.939.873-.477-.339-.936.874-.478-.294-.8.3-.109.386,1.065-.872.477.339.936-.874.478.33.921-.115.083Z" transform="translate(-759.743 -322.72)"/></g><g transform="translate(4.584 2.252)"><path class="u" d="M772.763,329.6l-.027-.011L761.127,325.2l.115-.3,11.642,4.4Z" transform="translate(-761.127 -324.902)"/></g><g transform="translate(5.056 0.778)"><path class="u" d="M773.219,328.18l-11.635-4.4.112-.3.052.019,11.586,4.384Z" transform="translate(-761.584 -323.474)"/></g><g transform="translate(3.977 3.627)"><path class="u" d="M772.176,330.937l-11.638-4.4.114-.3.065.024,11.574,4.376Z" transform="translate(-760.538 -326.234)"/></g><g transform="translate(0.934 0.56)"><path class="u" d="M757.747,324.454l-.076,0,.014-.161-.095-.127.027-.023.035-.01a.507.507,0,0,0,.354-.251.658.658,0,0,0-.026-.479l.293-.138a.984.984,0,0,1,.027.751.8.8,0,0,1-.528.419Z" transform="translate(-757.59 -323.263)"/></g><path class="m" d="M771.314,329.6a1.81,1.81,0,0,0-1.778.414,1.266,1.266,0,0,0-.13,1.287c.553,1.394,6.543,3.367,10.6,3.519l.53-1.873.876-3.1-.07-.055c-.463-.33-3.014-2.1-5.13-2.122-1.708-.013-1.915.8-1.249,1.307a2.13,2.13,0,0,0,1.058.376h.006c1.679.164,1.659,1.946.124,1.843a5.071,5.071,0,0,1-1.6-.424c-.734-.3-1.49-.685-2.306-.947A6.289,6.289,0,0,0,771.314,329.6Z" transform="translate(-756.281 -322.561)"/></g><g transform="translate(40.203 28.586)"><path class="p" d="M781.2,329.936c1.181-.062,2.358-.078,3.536-.083.588-.007,1.176.005,1.764.011s1.175.01,1.762.033c1.174.035,2.348.069,3.52.128s2.343.127,3.514.2l-.761,1.185a32.349,32.349,0,0,1-1.885-4.168,31.131,31.131,0,0,1-1.282-4.374,23.9,23.9,0,0,1-.484-4.541,14.224,14.224,0,0,1,.74-4.47,21.763,21.763,0,0,0,.118,4.415c.119.723.228,1.442.4,2.152.134.715.349,1.416.54,2.118.408,1.4.905,2.773,1.443,4.129.274.676.555,1.351.862,2.012s.617,1.333.946,1.95l.01.021a.793.793,0,0,1-.77,1.164q-1.754-.156-3.5-.342c-1.166-.124-2.331-.271-3.5-.419-.583-.068-1.164-.155-1.746-.238s-1.164-.162-1.744-.261C783.523,330.377,782.362,330.179,781.2,329.936Z" transform="translate(-779.494 -313.862)"/><path class="p" d="M804.91,339.859a3.586,3.586,0,0,1-1.5.807,13.356,13.356,0,0,1-1.657.4,24.875,24.875,0,0,1-3.372.322,32.913,32.913,0,0,1-6.744-.49,18.734,18.734,0,0,1-3.321-.9,30.988,30.988,0,0,1-3.1-1.359,33.061,33.061,0,0,1-5.673-3.591c2.088.813,4.126,1.662,6.184,2.426,1.028.382,2.055.75,3.088,1.074.521.173,1.01.307,1.537.427s1.045.235,1.578.328c2.127.384,4.3.642,6.481.813,1.09.083,2.184.159,3.276.158.547.011,1.092-.006,1.636-.048a6.416,6.416,0,0,0,.808-.107A2.5,2.5,0,0,0,804.91,339.859Z" transform="translate(-779.547 -313.184)"/></g><g transform="translate(0 24.127)"><path class="ag" d="M757.632,310.268c-.391.1-.579.369-.65,1.068a1.985,1.985,0,0,1,1.423,1.72l.068.731a1.717,1.717,0,0,0,.588-1.992C758.816,310.815,758.175,310.133,757.632,310.268Z" transform="translate(-740.066 -309.519)"/><path class="m" d="M743.716,309.566a3.126,3.126,0,0,0-3.112,3.413l1.979,19.379h15.993l-1.588-19.749c-.006-.523,0-.96.03-1.322.087-1.146.362-1.569.96-1.721Z" transform="translate(-740.591 -309.541)"/><path class="ah" d="M758.5,332.3H742.958l.1.7h16.233l-.8-7.3h-.017L757.4,312.333a9.5,9.5,0,0,1,.033-1.028,2.006,2.006,0,0,0-.488-.071c-.026.362-.036.8-.03,1.322Z" transform="translate(-740.515 -309.488)"/><path class="ai" d="M759.275,333H743.537s.176,1.216.211,1.446a2.029,2.029,0,0,0,1.966,1.795H758.8a1.977,1.977,0,0,0,1.97-2.157l-1.782-19.415-.084-.912-.068-.731a1.985,1.985,0,0,0-1.423-1.72,9.493,9.493,0,0,0-.033,1.028l1.077,13.371h.017Z" transform="translate(-740.497 -309.485)"/><path class="ah" d="M757.469,309.567c-.6.153-.873.576-.96,1.721a2.006,2.006,0,0,1,.488.071c.071-.7.259-.968.65-1.068.543-.135,1.184.547,1.429,1.527a1.718,1.718,0,0,1-.588,1.992l.083.912c.79-.2,1.332-1.514.976-2.937S758.258,309.37,757.469,309.567Z" transform="translate(-740.081 -309.542)"/></g></g><g transform="translate(46.851 44.499)"><path class="u" d="M779.551,335.4a.139.139,0,0,1-.045-.007.162.162,0,0,1-.109-.2l1.712-5.79a.161.161,0,1,1,.31.092l-1.712,5.79A.161.161,0,0,1,779.551,335.4Z" transform="translate(-779.389 -329.281)"/><g transform="translate(1.431 0.174)"><path class="u" d="M780.938,336.172a.146.146,0,0,1-.047-.007.162.162,0,0,1-.109-.2l1.9-6.4a.161.161,0,1,1,.31.092l-1.9,6.4A.163.163,0,0,1,780.938,336.172Z" transform="translate(-780.776 -329.45)"/></g><g transform="translate(0 0)"><g transform="translate(1.712)"><path class="u" d="M782.8,329.859l-.025,0-1.6-.254a.162.162,0,0,1-.134-.185.159.159,0,0,1,.185-.134l1.6.254a.161.161,0,0,1-.026.321Z" transform="translate(-781.048 -329.282)"/></g><g transform="translate(1.556 0.526)"><path class="u" d="M782.64,330.413l-.03,0-1.581-.3a.162.162,0,1,1,.06-.318l1.581.3a.163.163,0,0,1,.129.189A.161.161,0,0,1,782.64,330.413Z" transform="translate(-780.897 -329.791)"/></g><g transform="translate(1.401 1.052)"><path class="u" d="M782.475,330.968a.141.141,0,0,1-.035,0l-1.567-.343a.162.162,0,1,1,.069-.316l1.567.343a.162.162,0,0,1-.034.32Z" transform="translate(-780.746 -330.301)"/></g><g transform="translate(1.244 1.579)"><path class="u" d="M782.311,331.522a.171.171,0,0,1-.039-.005l-1.553-.387a.162.162,0,1,1,.077-.314l1.553.387a.162.162,0,0,1-.038.319Z" transform="translate(-780.595 -330.811)"/></g><g transform="translate(1.089 2.106)"><path class="u" d="M782.147,332.075a.221.221,0,0,1-.044-.005l-1.54-.43a.162.162,0,0,1-.112-.2.16.16,0,0,1,.2-.111l1.54.43a.161.161,0,0,1-.043.317Z" transform="translate(-780.445 -331.322)"/></g><g transform="translate(0.934 2.632)"><path class="u" d="M781.981,332.63a.152.152,0,0,1-.048-.007l-1.526-.475a.162.162,0,0,1,.1-.309l1.526.475a.16.16,0,0,1,.106.2A.162.162,0,0,1,781.981,332.63Z" transform="translate(-780.294 -331.832)"/></g><g transform="translate(0.778 3.158)"><path class="u" d="M781.817,333.184a.146.146,0,0,1-.052-.009l-1.513-.518a.162.162,0,0,1,.105-.306l1.512.519a.162.162,0,0,1-.053.315Z" transform="translate(-780.143 -332.342)"/></g><g transform="translate(0.622 3.685)"><path class="u" d="M781.652,333.737a.158.158,0,0,1-.057-.01l-1.5-.562a.161.161,0,0,1,.114-.3l1.5.562a.161.161,0,0,1-.057.313Z" transform="translate(-779.993 -332.852)"/></g><g transform="translate(0.467 4.211)"><path class="u" d="M781.488,334.292a.176.176,0,0,1-.061-.011l-1.485-.607a.162.162,0,1,1,.123-.3l1.484.606a.162.162,0,0,1-.061.312Z" transform="translate(-779.842 -333.362)"/></g><g transform="translate(0.311 4.738)"><path class="u" d="M781.324,334.846a.145.145,0,0,1-.065-.014l-1.472-.65a.161.161,0,1,1,.131-.3l1.471.65a.162.162,0,0,1-.065.31Z" transform="translate(-779.69 -333.872)"/></g><g transform="translate(0.156 5.263)"><path class="u" d="M781.159,335.4a.155.155,0,0,1-.07-.016l-1.456-.695a.162.162,0,0,1,.138-.292l1.457.7a.162.162,0,0,1-.069.307Z" transform="translate(-779.54 -334.382)"/></g><g transform="translate(0 5.79)"><path class="u" d="M780.995,335.954a.161.161,0,0,1-.074-.018l-1.443-.739a.161.161,0,0,1-.07-.218.163.163,0,0,1,.218-.07l1.443.739a.161.161,0,0,1,.07.218A.16.16,0,0,1,780.995,335.954Z" transform="translate(-779.389 -334.892)"/></g></g></g></g></g></g></svg>