<svg xmlns="http://www.w3.org/2000/svg" xmlns:xlink="http://www.w3.org/1999/xlink" width="643.76" height="431.897" viewBox="0 0 643.76 431.897"><defs><style>.a{fill:#4e9d52;}.b{fill:#ffc5b3;}.c{fill:#5c8ebf;}.d{fill:#e55c00;}.e{fill:#ff6d00;}.f{fill:#ffad97;}.g,.h{fill:#722b0c;}.h{stroke:#722b0c;stroke-miterlimit:10;}.i{fill:#dd7224;}.j{fill:#f48f3b;}.k{fill:#aa4d24;}.l{fill:#82af05;}.m{fill:#749303;}.n{fill:#a1c61a;}.o{fill:#ff8b61;}.p{fill:#bf0037;}.q{fill:#d80f40;}.r{fill:#739af0;}.s{fill:#f36c48;}.t{fill:#5e0a0a;}.u{fill:#2891c6;}.v{fill:#ce6f34;}.w{fill:#8d431b;}.x{fill:#f7c38b;}.y{fill:#6b6178;}.z{fill:url(#a);}.aa{fill:#7d3618;}.ab{fill:#2aad7e;}.ac{fill:url(#b);}.ad{fill:url(#c);}.ae,.ai,.ar,.as,.aw,.ax,.ay,.bh,.bk,.bn{mix-blend-mode:screen;isolation:isolate;}.ae{fill:url(#d);}.af{fill:#279369;}.ag{fill:url(#e);}.ah{fill:url(#f);}.ai{fill:url(#g);}.aj{fill:#545059;}.ak{fill:#c26233;}.al{fill:#d13e15;}.am{fill:#ec4b1e;}.an{fill:#e67943;}.ao{fill:#f6af68;}.ap{fill:#f6d8a0;}.aq{fill:#7e7787;}.ar{fill:url(#h);}.as{fill:url(#i);}.at{fill:#8ab858;}.au{fill:#855283;}.av{fill:#784676;}.aw{fill:url(#k);}.ax{fill:url(#l);}.ay{fill:url(#m);}.az{fill:#a67c52;}.ba{fill:#8c6239;}.bb{fill:#754c24;}.bc{fill:#7a3549;}.bd{fill:#96455e;}.be{fill:#893b52;}.bf{fill:#d88428;}.bg{fill:#f39833;}.bh{fill:url(#n);}.bi{fill:url(#q);}.bj{fill:url(#r);}.bk{fill:url(#s);}.bl{fill:url(#t);}.bm{fill:url(#u);}.bn{fill:url(#v);}.bo{fill:#30c694;}.bp{fill:#bf8d67;}.bq{fill:#aa7954;}.br{fill:#ce9e75;}.bs{fill:#d4b492;}</style><linearGradient id="a" x1="0.515" y1="0.98" x2="0.496" y2="-0.025" gradientUnits="objectBoundingBox"><stop offset="0" stop-color="#fed7a5"/><stop offset="0.994" stop-color="#e3a174"/></linearGradient><linearGradient id="b" x1="1.475" y1="0.531" x2="1.356" y2="-0.036" gradientUnits="objectBoundingBox"><stop offset="0" stop-color="#a199a0"/><stop offset="1" stop-color="#545059"/></linearGradient><linearGradient id="c" x1="0.85" y1="0.763" x2="1.876" y2="0.212" xlink:href="#b"/><linearGradient id="d" x1="2.187" y1="0.004" x2="0.746" y2="1.125" gradientUnits="objectBoundingBox"><stop offset="0"/><stop offset="0.04" stop-color="#101112"/><stop offset="0.155" stop-color="#393d42"/><stop offset="0.255" stop-color="#575d65"/><stop offset="0.337" stop-color="#69707b"/><stop offset="0.391" stop-color="#707883"/><stop offset="0.48" stop-color="#666d77"/><stop offset="0.639" stop-color="#4c5159"/><stop offset="0.847" stop-color="#222428"/><stop offset="1"/></linearGradient><linearGradient id="e" x1="0.505" y1="0.531" x2="0.408" y2="-0.036" xlink:href="#b"/><linearGradient id="f" x1="-0.413" y1="0.762" x2="0.771" y2="0.212" xlink:href="#b"/><linearGradient id="g" x1="1.247" y1="0.005" x2="-0.459" y2="1.124" xlink:href="#d"/><linearGradient id="h" x1="1.132" y1="-1.673" x2="0.154" y2="1.682" gradientUnits="objectBoundingBox"><stop offset="0" stop-color="#a8997e"/><stop offset="0.12" stop-color="#9c8e75"/><stop offset="0.335" stop-color="#7e725e"/><stop offset="0.619" stop-color="#4c4539"/><stop offset="0.957" stop-color="#090806"/><stop offset="1"/></linearGradient><linearGradient id="i" x1="1.132" y1="-1.673" x2="0.154" y2="1.682" xlink:href="#h"/><linearGradient id="k" x1="8.06" y1="-1.261" x2="6.927" y2="1.91" gradientUnits="objectBoundingBox"><stop offset="0" stop-color="#907ea8"/><stop offset="0.12" stop-color="#86759c"/><stop offset="0.335" stop-color="#6c5e7e"/><stop offset="0.619" stop-color="#41394c"/><stop offset="0.957" stop-color="#070609"/><stop offset="1"/></linearGradient><linearGradient id="l" x1="5.654" y1="-2.051" x2="4.595" y2="1.334" xlink:href="#k"/><linearGradient id="m" x1="2.919" y1="-2.634" x2="1.984" y2="1.208" xlink:href="#k"/><linearGradient id="n" x1="1.132" y1="-1.673" x2="0.154" y2="1.682" xlink:href="#h"/><linearGradient id="q" x1="0.793" y1="0.658" x2="-0.192" y2="-0.11" xlink:href="#b"/><linearGradient id="r" x1="0.097" y1="0.761" x2="0.942" y2="0.214" xlink:href="#b"/><linearGradient id="s" x1="0.055" y1="-0.102" x2="0.789" y2="0.917" xlink:href="#d"/><linearGradient id="t" x1="0.963" y1="0.658" x2="0.504" y2="-0.109" xlink:href="#b"/><linearGradient id="u" x1="0.636" y1="0.761" x2="1.031" y2="0.213" xlink:href="#b"/><linearGradient id="v" x1="0.641" y1="-0.101" x2="0.984" y2="0.917" xlink:href="#d"/></defs><g transform="translate(-27.874 -32.326)"><ellipse class="a" cx="321.88" cy="61.208" rx="321.88" ry="61.208" transform="translate(27.874 341.807)"/><path class="b" d="M189.4,367.494s-2.543,2.842-5.941,6.246l-.69.691c-2.616,2.611-3.653,3.592-6.346,6.293-1.7,1.709-.3,3.28,2.947,3.152A56.981,56.981,0,0,0,192.309,381a65.021,65.021,0,0,0,9.685-5.189,6.589,6.589,0,0,0,2.875-3.735v-5.257Z"/><path class="b" d="M235.87,362.828a43.464,43.464,0,0,1-5.023,5.845,56.652,56.652,0,0,0-6.856,8.157c-.634.858-1.005,3.31,2.243,3.181,2.855-.113,7.2-1.363,10.823-2.686,4.133-1.511,7.62-5.791,10.026-7.355s3.466-5.019,3.466-5.019l-1.662-5.178Z"/><path class="b" d="M186.75,246.176l-1.666-5.226,10.292-11.742-8.547-12.194c-2.785,4.264-3.655,5.569-6.374,10.261-1.983,3.42-5.465,9.72-5.645,11.017-.117.842.372,6.873.829,11.607A51.126,51.126,0,0,1,186.75,246.176Z"/><path class="c" d="M234.575,277.577c1.2-19.281-9.141-29.417-9.141-29.417.824-6.5-28.5,2.6-28.5,2.6S190.652,285.687,188,304.08c-3.015,20.9-1.19,63.48-1.19,63.48s.38,4.545,7.957,4.515c5.815-.024,10.1-5.257,10.1-5.257l.6-48.452,6.735-34.361s6.483,27.925,8.539,37.946c2.187,10.66,10.57,42.2,10.57,42.2s5.426,6.406,12.161,2.945,5.412-7.327,5.412-7.327-1.323-22.372-9.982-42.4C238.183,302.174,234.022,286.433,234.575,277.577Z"/><path class="d" d="M200.944,200.133s-6.418.893-11.83,9.3c-2.855,4.434-8.66,15.942-8.66,15.942s5.808,1.483,12.869,8.518C202.7,225.18,208.024,204.205,200.944,200.133Z"/><path class="e" d="M200.944,200.133a69.784,69.784,0,0,0-4.525,13.175c-2.165,8.529-1.389,48.183-1.389,48.183s8.941,6.5,23.91,5.225a20.135,20.135,0,0,0,13.44-6.421s6.4-43.249,5.676-48.811-13.123-14.214-13.123-14.214S209.962,196.487,200.944,200.133Z"/><path class="f" d="M211.189,194.712l-1.74,10.415s5.162,5.952,10.213,1.5,5.772-6.5,5.772-6.5l-2.486-14.2Z"/><path class="b" d="M218.316,170.3c-4.313-3.376-14.53-4.459-18.259,6.39-3.911,11.377,6.107,25.587,11.446,23.172,2.99-1.351,9.275-6.154,11.045-12.143C224.541,180.977,221.667,172.923,218.316,170.3Z"/><path class="g" d="M199.173,180.3c1.779,1.865,4.373,3.935,9.725,3.029a21.236,21.236,0,0,0,7.517-2.843l.9,6.027a5.057,5.057,0,0,0,1.538-.582c.09-2.386.919-3.127,2.195-2.417,1.443.8,1.5,4.2,1.5,4.2a12.558,12.558,0,0,0,2.886-11.125c-.916-4.236-6.483-12.607-14.245-11.866s-12.278,6.016-13.239,10.58A5.71,5.71,0,0,0,199.173,180.3Z"/><path class="e" d="M195.03,261.491l-9.577,35.118L233.3,299.7l.65-10.046,3.106,10.046c-.908-7.572-1.213-13.508-1.318-17.634-.079-3.121-.39-6.233-.534-9.353a29.013,29.013,0,0,0-1.56-9.6,23.309,23.309,0,0,0-1.265-2.819Z"/><path class="g" d="M182.771,374.431l8.093,7.061-1.139.344-7.877-6.485Z"/><path class="g" d="M176.172,383.107l7.762-6.038.391.322Z"/><path class="h" d="M177.246,383.744c.094.011.191.023.292.033a22.243,22.243,0,0,0,3.4.106c.213-.01,1.056-.046,2.027-.184a28.626,28.626,0,0,0,5.549-1.521c6.143-2.18,9.272-3.315,12.064-5.48a25.867,25.867,0,0,0,4.045-3.915s.6-1.1.249-1.684a37.033,37.033,0,0,1-8.409,7.11A38.135,38.135,0,0,1,177.246,383.744Z"/><path class="h" d="M177.437,383.767c1.936.485-2.366-1.417-1.508-2.411S173.579,382.8,177.437,383.767Z"/><path class="g" d="M230.019,369.495l8.093,7.061-1.139.344-7.877-6.485Z"/><path class="g" d="M224.006,378.608l7.762-6.038.391.322Z"/><path class="h" d="M224.359,380.513a1.5,1.5,0,0,0,.383.316c.672.385,1.373.057,3.39-.245.21-.031,1.045-.154,2-.392a28.671,28.671,0,0,0,5.362-2.085c5.886-2.8,8.881-4.253,11.435-6.694a25.861,25.861,0,0,0,3.62-4.312s.486-1.155.074-1.7a35.623,35.623,0,0,1-7.631,7.94A36.8,36.8,0,0,1,224.359,380.513Z"/><path class="h" d="M225.444,380.809c.638.092,1.508.079,1.533-.083.04-.258-2.132-.28-3.1-1.762-.254-.39-.406-.852-.507-.823s-.068.637.1,1.152a2.173,2.173,0,0,0,.616,1.031A2.38,2.38,0,0,0,225.444,380.809Z"/><path class="d" d="M233.828,204.885c2.812,1.544,7.963,5.863,8.925,16.536,1.058,11.739-2.165,19.529-2.165,19.529l-15.436-2.472S222.766,215,233.828,204.885Z"/><ellipse class="i" cx="20.301" cy="11.426" rx="20.301" ry="11.426" transform="translate(169.255 267.6)"/><path class="i" d="M186.622,247.646H162.529s1.685,25.246,7.172,33.758c4.588,7.115,13.307,7.59,16.051,7.554,4.339.049,18.889-.343,23.539-7.554,5.487-8.512,7.172-33.758,7.172-33.758Z"/><path class="j" d="M216.583,247.646c0,8.4-12.1,15.212-27.027,15.212s-27.027-6.811-27.027-15.212,12.1-15.211,27.027-15.211S216.583,239.245,216.583,247.646Z"/><path class="k" d="M213.852,247.646c0,6.871-10.925,12.441-24.4,12.441s-24.4-5.57-24.4-12.441,10.925-12.44,24.4-12.44S213.852,240.776,213.852,247.646Z"/><path class="k" d="M180.18,272.058c-7.347-1.767-11.418-6.188-14.143-9.96-1.106-1.531-1.068-.217-.988.017,1.475,4.342,7.274,11.135,15.058,10.48C180.4,272.571,180.5,272.134,180.18,272.058Z"/><path class="k" d="M197.324,267.6c-4.473.32-8.955,1.3-13.5,1.085-5.008-.24-8.73-4.033-13.392-5.723-1.182-.428-1.182.265-.441.835,8.185,6.3,17.59,8.19,27.282,4.42C197.8,268.014,197.981,267.553,197.324,267.6Z"/><path class="k" d="M199.091,285.658c-4.473.32-8.955,1.3-13.5,1.085-5.008-.24-8.73-4.033-13.393-5.723-1.182-.428-1.182.265-.44.835,8.185,6.3,17.59,8.19,27.282,4.42C199.566,286.072,199.748,285.611,199.091,285.658Z"/><path class="k" d="M210.239,264.887c-3.955,2.555-7.394,5.07-11.649,7.141-5.2,2.532-9.972.326-15.495,1.556-1.788.4.041.957,1.017,1.062,4.888.526,10.333.552,14.369-.929a28.067,28.067,0,0,0,11.978-7.967C211.505,264.621,211.09,264.336,210.239,264.887Z"/><path class="k" d="M207.411,275.622c-4.03,2.591-7.441,4.846-11.288,5.729-4.664,1.071-9.871.457-16.347.229-2.054-.072-2.807.664-.514,1,10.718,1.552,22.48.565,28.958-6.675C208.646,275.425,208,275.243,207.411,275.622Z"/><path class="l" d="M186.122,245.847s3.529-13.147,4.885-16.5,5.832-2.743,5.773.357-4.453,17.251-4.453,17.251A14.107,14.107,0,0,1,186.122,245.847Z"/><path class="m" d="M189.254,244.5a2.188,2.188,0,0,0-.977-.48.286.286,0,0,0-.284.194l-.064.156a.468.468,0,0,0,.1.476c.386.339.719.542,1.195.256A.354.354,0,0,0,189.254,244.5Z"/><path class="m" d="M190.9,241.682a1.547,1.547,0,0,0-1.016.525.151.151,0,0,0-.009.211.854.854,0,0,0,1.037.077.414.414,0,0,0,.23-.357l-.015-.2A.246.246,0,0,0,190.9,241.682Z"/><path class="m" d="M190.062,238.555a3.433,3.433,0,0,0-.463-.1.316.316,0,0,0-.291.148l-.055.1a.536.536,0,0,0,.052.625l.145.174C190.071,240.243,191,238.823,190.062,238.555Z"/><path class="m" d="M193,235.952a1.235,1.235,0,0,0-1.087.372.26.26,0,0,0,.034.406,1.231,1.231,0,0,0,1.127.173A.484.484,0,0,0,193,235.952Z"/><path class="m" d="M192.4,233.123a.926.926,0,0,0-.426-.365c-.423-.223-1.058.2-.756.688l.111.18a.608.608,0,0,0,.645.3l.181-.037A.471.471,0,0,0,192.4,233.123Z"/><path class="m" d="M195.23,229.51a1.355,1.355,0,0,0-1.071.379.244.244,0,0,0-.015.34.908.908,0,0,0,1.268.126C195.761,230.137,195.706,229.517,195.23,229.51Z"/><path class="n" d="M176.317,258.246s8.082-17.76,9.365-20.053,5.681-2.222,6.137,0-.96,6.823-1.917,9.052c-.644,1.5-4.937,12.631-4.937,12.631S178.682,259.348,176.317,258.246Z"/><path class="l" d="M179.833,257.037c-.591-.2-.863.818-.256.928.331.06.512.086.763-.159a.267.267,0,0,0,.068-.259C180.312,257.218,180.153,257.147,179.833,257.037Z"/><path class="l" d="M182.757,255.773l-.239-.036a.362.362,0,0,0-.432.245c-.016.06-.049.129-.013.189l.049.082a.347.347,0,0,0,.3.173l.246-.017C183.009,256.385,183.141,255.832,182.757,255.773Z"/><path class="l" d="M183.5,251.355l-.2-.134c-.77-.5-1.275,1.057-.287,1.061h.24A.5.5,0,0,0,183.5,251.355Z"/><path class="l" d="M186.1,249.644l-.392-.067a.265.265,0,1,0-.071.522l.4.018C186.3,250.129,186.37,249.69,186.1,249.644Z"/><path class="l" d="M186.719,243.859a.568.568,0,0,0-.546-.415l-.25,0a.493.493,0,0,0-.246.91l.211.149a.569.569,0,0,0,.774-.2A.586.586,0,0,0,186.719,243.859Z"/><path class="l" d="M189.664,242.592l-.1-.129a.429.429,0,0,0-.731,0,.293.293,0,0,0-.062.219l.019.108a.427.427,0,0,0,.622.253l.16-.1A.261.261,0,0,0,189.664,242.592Z"/><path class="l" d="M188.379,239.744l-.165-.106c-.834-.535-1.276,1.141-.295,1.09l.2-.01A.527.527,0,0,0,188.379,239.744Z"/><path class="l" d="M199.694,252.747s10.657-16.346,12.269-18.42,5.95-1.344,6.068.921-1.973,6.6-3.254,8.662C213.914,245.3,208,255.657,208,255.657s-2.224,2.348-10.726,3.777C195.907,258.971,198.5,254.843,199.694,252.747Z"/><path class="l" d="M203.352,252.079c-.554-.291-.976.679-.393.879.319.109.493.162.778-.043a.266.266,0,0,0,.107-.245C203.8,252.329,203.651,252.236,203.352,252.079Z"/><path class="m" d="M207.829,247.012l-.182-.163c-.685-.615-1.419.853-.444,1.006l.238.037A.5.5,0,0,0,207.829,247.012Z"/><path class="m" d="M212.138,240.085a.569.569,0,0,0-.477-.493l-.247-.042a.493.493,0,0,0-.38.863l.186.179a.57.57,0,0,0,.8-.085A.583.583,0,0,0,212.138,240.085Z"/><path class="m" d="M210.872,246.223a.57.57,0,0,0-.478-.493l-.246-.042a.493.493,0,0,0-.38.863l.186.179a.57.57,0,0,0,.8-.085A.583.583,0,0,0,210.872,246.223Z"/><path class="m" d="M215.24,239.274l-.079-.143a.43.43,0,0,0-.723-.11.288.288,0,0,0-.094.208l0,.109a.427.427,0,0,0,.577.344l.172-.074A.258.258,0,0,0,215.24,239.274Z"/><path class="m" d="M204.294,251.4l-.079-.143a.43.43,0,0,0-.723-.11.29.29,0,0,0-.094.207l0,.109a.426.426,0,0,0,.577.344l.172-.073A.258.258,0,0,0,204.294,251.4Z"/><path class="m" d="M206.072,254.718l-.079-.143a.43.43,0,0,0-.723-.11.29.29,0,0,0-.094.207l0,.109a.426.426,0,0,0,.577.344l.173-.073A.259.259,0,0,0,206.072,254.718Z"/><path class="m" d="M214.4,236.265l-.147-.129c-.744-.654-1.433.936-.456,1.033l.2.02A.528.528,0,0,0,214.4,236.265Z"/><path class="n" d="M166.633,252.025s4.681-8.228,5.465-13.6,3.613-9.074,5.816-8.45c3.784,1.072.663,6.3.929,11.284s-3.72,13.128-5.626,15.68C170.08,255.475,167.324,253.316,166.633,252.025Z"/><path class="l" d="M170.756,249.393a2.719,2.719,0,0,0-.609-.149.207.207,0,0,0-.193.146c-.016.044-.033.088-.05.132a.375.375,0,0,0,.172.422.656.656,0,0,0,.755.025A.318.318,0,0,0,170.756,249.393Z"/><path class="l" d="M173.159,247.72c-.532-.108-.653-.02-1.107.317a.085.085,0,0,0-.017.131,1.175,1.175,0,0,0,.481.342.466.466,0,0,0,.468,0c.084-.061.17-.122.254-.184C173.449,248.175,173.464,247.781,173.159,247.72Z"/><path class="l" d="M172.386,245.238a1.8,1.8,0,0,0-.764-.4.3.3,0,0,0-.368.28c-.016.543.345.775.845.816A.41.41,0,0,0,172.386,245.238Z"/><path class="l" d="M175.561,242.074a1.263,1.263,0,0,0-1.305.139.279.279,0,0,0,0,.473,1.262,1.262,0,0,0,1.305.14A.394.394,0,0,0,175.561,242.074Z"/><path class="l" d="M175.089,238.837a1.272,1.272,0,0,0-.957-.409.4.4,0,0,0-.376.494.86.86,0,0,0,.992.737A.488.488,0,0,0,175.089,238.837Z"/><path class="l" d="M178.275,233.609a1.409,1.409,0,0,0-.784-.092.353.353,0,0,0-.246.6.773.773,0,0,0,.67.319.476.476,0,0,0,.455-.346l.046-.129A.306.306,0,0,0,178.275,233.609Z"/><path class="n" d="M189.54,247.6s5.83-7.457,7.39-12.662,4.9-8.451,6.985-7.512c3.587,1.612-.263,6.335-.726,11.3s-5.594,12.445-7.851,14.692C192.446,251.511,190.034,248.973,189.54,247.6Z"/><path class="l" d="M194,245.592a2.738,2.738,0,0,0-.581-.236.2.2,0,0,0-.211.117l-.069.123a.375.375,0,0,0,.108.443.658.658,0,0,0,.744.135A.319.319,0,0,0,194,245.592Z"/><path class="l" d="M196.623,244.288c-.51-.184-.643-.115-1.141.153a.083.083,0,0,0-.035.126,1.157,1.157,0,0,0,.425.408.463.463,0,0,0,.463.068l.279-.143C196.844,244.781,196.916,244.393,196.623,244.288Z"/><path class="l" d="M196.221,241.72a1.807,1.807,0,0,0-.7-.509.294.294,0,0,0-.4.223c-.1.535.227.817.716.931C196.159,242.44,196.464,241.972,196.221,241.72Z"/><path class="l" d="M199.823,239.053a1.261,1.261,0,0,0-1.311-.053.278.278,0,0,0-.069.468,1.261,1.261,0,0,0,1.27.329A.394.394,0,0,0,199.823,239.053Z"/><path class="l" d="M199.828,235.781a1.275,1.275,0,0,0-.888-.544.4.4,0,0,0-.444.434.862.862,0,0,0,.875.874A.489.489,0,0,0,199.828,235.781Z"/><path class="l" d="M203.742,231.074a1.4,1.4,0,0,0-.762-.205.353.353,0,0,0-.33.553.776.776,0,0,0,.617.413.476.476,0,0,0,.5-.277l.064-.121A.306.306,0,0,0,203.742,231.074Z"/><path class="l" d="M171.561,256.074s6.211-12.113,8.24-15.107,6.278-1.457,5.57,1.562S177.4,258.46,177.4,258.46A14.112,14.112,0,0,1,171.561,256.074Z"/><path class="m" d="M174.9,255.419a2.169,2.169,0,0,0-.854-.674.287.287,0,0,0-.319.129l-.1.14a.467.467,0,0,0,0,.486c.306.413.588.681,1.114.5A.353.353,0,0,0,174.9,255.419Z"/><path class="m" d="M177.1,253.005a1.539,1.539,0,0,0-1.1.3.151.151,0,0,0-.054.205c.271.364.563.371,1,.292a.41.41,0,0,0,.3-.3c.01-.067.019-.133.028-.2A.245.245,0,0,0,177.1,253.005Z"/><path class="m" d="M176.944,249.772a3.367,3.367,0,0,0-.432-.2.314.314,0,0,0-.314.084l-.076.089a.536.536,0,0,0-.08.622l.1.2C176.6,251.424,177.808,250.232,176.944,249.772Z"/><path class="m" d="M180.363,247.844a1.236,1.236,0,0,0-1.141.136.261.261,0,0,0-.052.4,1.229,1.229,0,0,0,1.065.4A.483.483,0,0,0,180.363,247.844Z"/><path class="m" d="M180.376,244.953a.94.94,0,0,0-.341-.447c-.366-.306-1.075-.029-.883.515.024.066.047.132.071.2a.608.608,0,0,0,.566.431h.185A.471.471,0,0,0,180.376,244.953Z"/><path class="m" d="M183.9,242.014a1.36,1.36,0,0,0-1.127.145.245.245,0,0,0-.086.329.907.907,0,0,0,1.213.39C184.283,242.738,184.36,242.12,183.9,242.014Z"/><path class="n" d="M189.45,260.087s6.561-12.4,8.59-15.39,6.278-1.457,5.57,1.562-6.337,13.175-6.337,13.175A45.442,45.442,0,0,1,189.45,260.087Z"/><path class="m" d="M193.144,259.149a2.165,2.165,0,0,0-.855-.674.286.286,0,0,0-.318.129l-.095.14a.465.465,0,0,0,0,.486c.306.413.588.681,1.114.5A.353.353,0,0,0,193.144,259.149Z"/><path class="m" d="M195.341,256.735a1.543,1.543,0,0,0-1.1.3.151.151,0,0,0-.053.205c.271.364.563.371,1,.292a.412.412,0,0,0,.3-.3c.009-.067.019-.134.028-.2A.245.245,0,0,0,195.341,256.735Z"/><path class="m" d="M195.183,253.5a3.3,3.3,0,0,0-.432-.2.318.318,0,0,0-.315.083c-.024.03-.05.06-.075.09a.535.535,0,0,0-.08.622l.1.2C194.837,255.154,196.047,253.962,195.183,253.5Z"/><path class="m" d="M198.6,251.573a1.239,1.239,0,0,0-1.141.137.26.26,0,0,0-.052.4,1.229,1.229,0,0,0,1.065.4A.484.484,0,0,0,198.6,251.573Z"/><path class="m" d="M198.614,248.683a.938.938,0,0,0-.34-.447c-.366-.306-1.076-.029-.883.514l.071.2a.607.607,0,0,0,.566.431h.185A.471.471,0,0,0,198.614,248.683Z"/><path class="m" d="M202.135,245.744a1.36,1.36,0,0,0-1.127.145.243.243,0,0,0-.086.329.908.908,0,0,0,1.213.39C202.522,246.468,202.6,245.85,202.135,245.744Z"/><path class="b" d="M226.711,239.135s-1.619,16.5-4.155,20.189c-1.832,2.666-9.987,8.236-15.449,11.325-2.1,1.188-6.723-.222-7.063.377-.957,1.681,3.512,4.746,3.512,4.746a13.106,13.106,0,0,0-5.371,4.424c-1.417,2.32-4.361,9.229,1.214,8.567,4.645-.552,9.531-5.735,11.141-7.287,3.044-2.933,16.871-11.624,19.3-14,5.773-5.639,10.1-28.346,10.1-28.346S234.7,237.394,226.711,239.135Z"/><path class="b" d="M165.76,271.13c-1.222-1.393-4.975,6.986,0,11.136C169.191,285.127,173.314,279.747,165.76,271.13Z"/><path class="l" d="M183.386,259.8s6.518-12.5,8.547-15.494,6.278-1.457,5.57,1.562-7.019,14.421-7.019,14.421A36,36,0,0,1,183.386,259.8Z"/><path class="m" d="M187.037,258.754a2.17,2.17,0,0,0-.854-.674.286.286,0,0,0-.319.129c-.032.047-.064.093-.1.14a.467.467,0,0,0,0,.486c.306.413.588.681,1.114.5A.353.353,0,0,0,187.037,258.754Z"/><path class="m" d="M189.234,256.339a1.549,1.549,0,0,0-1.1.3.151.151,0,0,0-.053.2c.271.364.563.371,1,.292a.41.41,0,0,0,.3-.3c.01-.067.019-.134.028-.2A.247.247,0,0,0,189.234,256.339Z"/><path class="m" d="M189.076,253.107a3.284,3.284,0,0,0-.431-.2.315.315,0,0,0-.315.084l-.076.089a.536.536,0,0,0-.08.622l.105.2C188.731,254.759,189.94,253.567,189.076,253.107Z"/><path class="m" d="M192.495,251.178a1.239,1.239,0,0,0-1.141.137.26.26,0,0,0-.052.4,1.232,1.232,0,0,0,1.065.4A.484.484,0,0,0,192.495,251.178Z"/><path class="m" d="M192.507,248.288a.931.931,0,0,0-.34-.447c-.366-.306-1.076-.029-.883.514l.071.2a.609.609,0,0,0,.566.432h.185A.471.471,0,0,0,192.507,248.288Z"/><path class="m" d="M196.028,245.349a1.36,1.36,0,0,0-1.127.145.245.245,0,0,0-.086.329.908.908,0,0,0,1.213.39C196.415,246.073,196.492,245.455,196.028,245.349Z"/><path class="o" d="M113.84,267.931s7.941.646,9.982-1.152a14.606,14.606,0,0,0,3.031-3.665l-11.691-.178Z"/><path class="p" d="M59.017,395.52a2.488,2.488,0,0,0,.451,1.113h22c-.9-2.6-5.47-4.1-5.47-4.1-7.606-2.266-9.961-8.073-9.961-8.073l-7.13-.954s-.387,7.254-.157,9.711C58.831,394.094,58.924,394.864,59.017,395.52Z"/><path class="q" d="M83.073,290.049S79.7,309.977,76.308,335q-.522,3.868-1,7.778c-1.922,15.6-3.34,31.571-4.39,46.794,0,0-9.209,4.162-14.145-1.033a307.646,307.646,0,0,1-3.505-32.218,54.916,54.916,0,0,1,.834-13.954c1.562-6.938,1.549-15.393,1.342-24.28-.271-11.731-.885-24.212,1.329-34.944Z"/><path class="p" d="M83.073,290.049S79.7,309.977,76.308,335q-.522,3.868-1,7.778L55.44,318.084c-.271-11.731-.885-24.212,1.329-34.944Z"/><path class="p" d="M117.807,380.046s4.157,4.687,12.083,4.286c0,0,6.352-.138,7.063,3.161,0,0-10.277,2.82-12.9,3.63a28.841,28.841,0,0,0-5.7,2.69,2.493,2.493,0,0,1-3.479-1c-.306-.587-.651-1.283-1.022-2.084-1.036-2.239-3.092-9.207-3.092-9.207Z"/><path class="q" d="M120.123,380.793s-4.406,6.284-11.05,3.6c0,0-11.7-14.524-18.89-28.593a54.748,54.748,0,0,1-5.016-13.049c-3.367-16.151-30.584-38.7-28.4-59.612H89.9s5.178,19.536,12.44,43.717C107.573,344.28,113.886,364.115,120.123,380.793Z"/><path class="o" d="M82.569,222.847c-7.343,1.915-19.539-4.871-19.539-4.871a17.9,17.9,0,0,0,6.32-9.636,21.591,21.591,0,0,0,.77-5.445l6.784,6.056,2.223,1.98s-.078,1.267-.441,3.536c-.184,1.142-.439,2.537-.8,4.155A17.268,17.268,0,0,1,82.569,222.847Z"/><path class="r" d="M91.274,284.668c-.3,1.121-1.732,1.316-2.024,1.3-2.7-.206-10.237,1.924-16.97,2.217-5.651.247-10.736.12-16.006-2.47-.7-.342-2.306-1.267-2.242-2.008.053-.809-10.073-54.6,11.345-68.548.5-.327,3.567,1.311,6.367,2.814a12.7,12.7,0,0,0,7.723,1.382l2.414,2.215c2.938,2.832,7.65,11.374,7,16.93,0,.021,0,.038-.007.059-.315,2.794.694,5.207.511,7.7q-.1,1.392-.174,2.726-.146,2.614-.2,5c-.052,2.329-.046,4.494.007,6.51.026,1.11.067,2.181.121,3.2.029.555.06,1.1.1,1.624.231,3.481.58,6.416.932,8.892.461,3.2.923,5.631,1.129,7.454.03.266.058.523.077.765A6.853,6.853,0,0,1,91.274,284.668Z"/><path class="s" d="M78.686,214.467c-9.114-2.026-9.336-6.127-9.336-6.127a15.506,15.506,0,0,1,7.554.611l2.223,1.98S79.049,212.2,78.686,214.467Z"/><path class="o" d="M82.82,210.173s-11.323,4.312-13.9-2.781-5.773-11.313,1.348-14.366,9.515-.859,10.952,1.3S85.7,208.869,82.82,210.173Z"/><path class="t" d="M82.271,192.325a13.738,13.738,0,0,0-.1-3.776s-1.138,2.063-5.252.649-10.947-2.472-14.379,1.542a9.922,9.922,0,0,0-.618.8,10.644,10.644,0,0,1,.177-2.68,7.831,7.831,0,0,0-1.179,4.457h0c-.031.069-.06.139-.09.209a9.171,9.171,0,0,0-2.522,2.644,2.979,2.979,0,0,1,1.923-.927c-.966,3.574-.383,7.472,1.989,9.214,3.468,2.547,3.744,1.377,6.98,4.892,0,0,1.374-.971.884-2s-2.859-2.957-1.033-3.777,2.017.7,2.792.005-1.349-3.861,2.817-5.2S82.044,194.465,82.271,192.325Z"/><path class="u" d="M91.375,282.431c-31.822-9.574-24.745-43.1-24.745-43.1s12.042,10.4,22.39,21.159c.042,1.714.12,3.324.217,4.826.231,3.481.58,6.416.932,8.892.461,3.2.923,5.631,1.129,7.454C91.328,281.932,91.356,282.189,91.375,282.431Z"/><path class="u" d="M89.141,263.7a12.346,12.346,0,0,1-4.49-1.319c-9.577-4.885-10.529-30.655-10.529-30.655.162-.163,7.694,2.237,14.751,6.832-.315,2.794.694,5.207.511,7.7q-.1,1.392-.174,2.726-.146,2.614-.2,5c-.052,2.329-.046,4.494.007,6.51C89.046,261.6,89.087,262.675,89.141,263.7Z"/><path class="r" d="M58.343,228.831s8.567,31.508,17.93,38.2c6.677,4.771,37.364,1.668,37.364,1.668s4.067-3.085,1.525-5.763c0,0-26.076-4.293-27.612-5.982s-6.853-24.926-9.59-28.129S60.3,222.492,58.343,228.831Z"/><path class="v" d="M258,296.609l-.863,83.284H206.812l-.787-19.953-.152-3.973-1.345-34.58-.1-2.55-.85-21.637Z"/><path class="w" d="M257.891,296.61l41.466.591-3.778,82.694H257.135Z"/><path class="x" d="M204.528,321.386l.262,2.653,15.953-3.209Z"/><path class="x" d="M206.025,359.87l.142,2.6,24.7-2.234Z"/><path class="w" d="M258,326.439l-9.611,2.658,9.395.3Z"/><path class="x" d="M248.388,329.1l9.179,3.4,2.16-3.1Z"/><path class="w" d="M257.767,355.382l-15.1,1.88,14.763.209Z"/><path class="x" d="M242.665,357.262l14.423,2.4,3.394-2.193Z"/><ellipse class="y" cx="1.296" cy="2.304" rx="1.296" ry="2.304" transform="translate(253.545 301.025)"/><path class="y" d="M208.678,303.107c0-1.272-.58-2.3-1.3-2.3s-1.3,1.031-1.3,2.3.58,2.3,1.3,2.3S208.678,304.38,208.678,303.107Z"/><path class="y" d="M211.269,374.431c0-1.272-.58-2.3-1.3-2.3s-1.3,1.032-1.3,2.3.58,2.3,1.3,2.3S211.269,375.7,211.269,374.431Z"/><path class="y" d="M255.083,374.874c0-1.273-.58-2.3-1.295-2.3s-1.3,1.031-1.3,2.3.58,2.3,1.3,2.3S255.083,376.146,255.083,374.874Z"/><path class="x" d="M206.812,379.893l-1.9-18.531.931-1.661-1.012-2.99-1.417-32.339.594-3.027-.7-2.51-1.026-23.7,72.564,1.55-70.783,1.108Z"/><path class="w" d="M230.868,360.236l-24.62-.369-1.539-3.212Z"/><path class="w" d="M220.743,320.831l-16.722.717-.648-2.658Z"/><path class="w" d="M218.726,361.67l29.151,3.314-.784-18.031Z"/><path class="z" d="M214.948,313.489l2.091,47.824a98.673,98.673,0,0,0,29.65,1.3c.631-7.072.34-29.4.19-49.383Z"/><path class="aa" d="M393.784,289.136l6.085-.1-78.7-1.682,1.113,25.706.457,1.635.287,1.177-.627,3.195,1.535,35.033-.13-.018.38.793.85,2.511-1.01,1.8,2.061,20.1h54.578l.024-2.287-.021,2.289h41.7l4.1-89.691Z"/><path class="aa" d="M391.762,217.129l5-.078-64.7-1.382.915,21.131.376,1.344.236.967-.515,2.626,1.262,28.8-.107-.015.312.652.7,2.064-.83,1.481,1.694,16.522h44.866l.02-1.88-.017,1.881H415.25l3.369-73.73Z"/><path class="ab" d="M574.661,55.126v.165c-.046,3.509-.781,59.18-9.894,58.758-5.99-.287-10.2-21.071-12.454-36.108-.05,1-.1,2.021-.167,3.046-1.024,17.311-3.471,40.357-9.357,40.093-6.179-.3-10.342-22.8-12.456-38.178-.017.166-.017.332-.034.5v.055c-.937,17.471-3.4,43.666-9.661,43.366-5.921-.262-9.874-21.309-11.989-36.849v-.056c-.157-1.178-.314-2.33-.454-3.427-.92,17.36-3.394,45.157-9.867,44.869-6.231-.3-10.119-23.891-12.1-39.854V91.45c-.1-.961-.21-1.866-.315-2.744-.9,17.194-3.426,46.235-10.054,45.928-6.818-.3-10.733-29.187-12.365-45.057-.033.692-.084,1.44-.117,2.187v.028c-.989,17.225-3.617,45.223-10.142,44.938-6.49-.315-10.212-26.951-11.879-43.454V93.22c-.158-1.427-.281-2.8-.4-4.036-.852,16.445-3.456,49.052-10.481,48.711-7.18-.333-10.809-33.517-12.13-49.156v-.166l-.017-.109c-.018-.248-.036-.467-.053-.715-.8,15.614-3.4,50.789-10.72,50.464-7.077-.339-10.532-33.146-11.82-49.339-.106-1.374-.211-2.639-.282-3.739-.7,14.366-3.329,52.58-10.959,52.243-7.3-.354-10.571-35.794-11.668-51.666-.123-1.843-.23-3.411-.3-4.622-.583,12.069-3.153,54.7-11.231,54.3-9.407-.434-11.855-60.214-11.855-60.214l23.219,2.759a2.031,2.031,0,0,1-.017.222l23.045,1.58v.249l1.8.042,21.109.387a2.031,2.031,0,0,1-.017.222l1.8-.042h.018l20.952-.654s0,.193-.017.443l3.245-.257h.017l19.363-1.507s0,.221-.016.608l2.087-.278h.018L486.4,76.367s0,.166,0,.442l3.4-.6,18.911-3.306v.249l3.33-.731h.017L530.4,68.349l2.743-.727h.017L550.39,62.97a1.873,1.873,0,0,1-.018-.22l.776-.235Z"/><path class="ac" d="M347.181,61.264l8.332,318.363h4.413L354.879,60.761Z"/><path class="ad" d="M348.8,127.318l4.4,9.388,6.734,242.922L354.879,60.761l-7.7.5Z"/><path class="ae" d="M349.606,151.291l2.635,3.018,5.5,196.483-2.384,1.341Z"/><path class="af" d="M574.661,55.291c-39.1-2.119-76.684-9.206-112.3-22.8C371.985,69.177,304.273,61.348,237.142,52.377l115,22.97C431.562,90.643,505.864,84.494,574.661,55.291Z"/><path class="ag" d="M564.717,61.264l-7.723,318.363h4.413L572.44,60.761Z"/><path class="ah" d="M563,127.318l3.923,9.388-5.517,242.922L572.44,60.761l-7.723.5Z"/><path class="ai" d="M562.6,151.291l2.482,3.018-4.413,196.483-2.452,1.341Z"/><path class="aj" d="M568.272,77.191,309.845,69.144l2.452-6.035,256.466,6.706Z"/><path class="ak" d="M334.842,353.23l-2.236-41.1h6.38l.078,41.79Z"/><path class="ak" d="M403.975,353.23l-1.19-40.672h6.38l-.967,41.36Z"/><path class="al" d="M338.693,336.145c.91,5.126.816,11.5-1.452,15.977-3.586,7.088-13.512,6.084-17.157-.4-3.565-6.347-3.379-17.974.142-24.28,5.4-9.664,16.559-1.339,18.4,8.355C338.65,335.91,338.672,336.027,338.693,336.145Z"/><path class="al" d="M363.123,332.866c-1.441,5.105-1.973,11.675-.081,16.7a10.25,10.25,0,0,0,17.69,2.748c4.294-5.871,5.248-17.868,2.248-25-4.6-10.937-16.9-4.431-19.756,5.2C363.19,332.632,363.157,332.748,363.123,332.866Z"/><path class="am" d="M301.681,326.412c3.179-2.987,7.565-5.134,11.435-3.831,6.12,2.061,8.967,15.1,5.83,22.07-3.067,6.815-11.08,10.715-16.642,8.46-8.525-3.456-6.809-20.686-.84-26.491Z"/><path class="al" d="M387.653,324.616c3.179-2.987,7.564-5.135,11.435-3.831,6.12,2.06,8.966,15.1,5.83,22.069-3.068,6.816-11.08,10.715-16.643,8.46-8.524-3.456-6.808-20.686-.839-26.491C387.507,324.754,387.58,324.685,387.653,324.616Z"/><path class="am" d="M374.818,332.353c2.675-2.514,6.365-4.32,9.621-3.224,5.15,1.734,7.545,12.708,4.906,18.57-2.581,5.735-9.323,9.016-14,7.118-7.173-2.908-5.729-17.4-.707-22.29Z"/><path class="am" d="M340.531,325.529c4.347-3.679,10.345-6.324,15.638-4.719,8.369,2.538,12.262,18.6,7.973,27.186-4.2,8.4-15.153,13.2-22.76,10.421-11.658-4.257-9.311-25.481-1.148-32.632C340.332,325.7,340.43,325.614,340.531,325.529Z"/><path class="an" d="M290.078,353.23l-2.236-41.1h6.38l.078,41.79Z"/><path class="an" d="M357.643,353.23l-1.19-40.672h6.38l-.968,41.36Z"/><path class="ao" d="M285.123,340.933l80.324-1.032v39.726H287.32Z"/><path class="an" d="M365.448,339.9l48.32,1.032-.314,38.694H365.448Z"/><path class="an" d="M365.866,357.1l-18.617,3.1,19.244.344Z"/><path class="an" d="M286.692,366.042l19.558.344-19.872-3.955Z"/><path class="ap" d="M286.692,366.042v2.58l19.558-2.236Z"/><path class="ap" d="M347.249,360.195l18.042,3.7,2.275-3.483Z"/><path class="aq" d="M362.286,346.582a1.951,1.951,0,0,0-.823-1.118c-1.12-.562-1.97,1.248-1.709,3.25.159,1.216.807,2.183,1.491,2.137C362.395,350.773,362.89,348.2,362.286,346.582Z"/><path class="aq" d="M362.678,370.444a1.954,1.954,0,0,0-.823-1.119c-1.12-.561-1.97,1.249-1.708,3.251.158,1.215.807,2.183,1.491,2.137C362.787,374.635,363.282,372.061,362.678,370.444Z"/><path class="aq" d="M290.826,371.476a1.951,1.951,0,0,0-.824-1.119c-1.12-.561-1.97,1.249-1.708,3.251.159,1.215.807,2.183,1.491,2.137C290.935,375.667,291.43,373.093,290.826,371.476Z"/><path class="aq" d="M289.884,348.775a1.957,1.957,0,0,0-.823-1.119c-1.12-.561-1.97,1.249-1.708,3.251.159,1.216.807,2.183,1.491,2.137C289.994,352.966,290.489,350.392,289.884,348.775Z"/><path class="ar" d="M308.516,330.489a3.778,3.778,0,0,0,.3-.487c3.775-7.336-5.763-5.984-7.275-.251C300.047,335.427,306.516,333.234,308.516,330.489Z"/><path class="as" d="M346.809,329.976a3.774,3.774,0,0,0,.3-.487c3.775-7.336-5.763-5.984-7.275-.251C338.34,334.913,344.809,332.72,346.809,329.976Z"/><path class="ar" d="M380.563,335.09a3.054,3.054,0,0,0,.243-.391c3.029-5.887-4.625-4.8-5.838-.2C373.767,339.052,378.958,337.293,380.563,335.09Z"/><path class="ak" d="M478.437,352.451l-2.3-42.314H482.7l.081,43.023Z"/><path class="ak" d="M549.609,352.451l-1.225-41.872h6.568l-1,42.58Z"/><path class="at" d="M469.714,321.01a14.4,14.4,0,0,0,2.7,3.272,4.378,4.378,0,0,1,2.414-2.414c-.2.893-.355,1.8-.468,2.726a6.561,6.561,0,0,1,3.753,1.239,5.716,5.716,0,0,0-2.666,1.845,7.559,7.559,0,0,1,2.325,3.575.593.593,0,0,1,.036.334.4.4,0,0,1-.187.218,17.967,17.967,0,0,1-4.793,2.271c-.443.132-2.237-6.445-2.438-7.152C469.843,324.988,469.24,323.113,469.714,321.01Z"/><path class="au" d="M474.686,328.479c.064.182.123.349.17.523a9.9,9.9,0,0,1-1.4,8.147,52.2,52.2,0,0,1-6.046,7.476,47.417,47.417,0,0,1-10.083,7.058c-4.436,2.439-10.866,5.223-14.971.239a3.41,3.41,0,0,1-.309-.412,14.141,14.141,0,0,1-2.7-7.348,13.3,13.3,0,0,1,1.941-8.279c3.826-5.6,10.483-4.336,15.516-4.462,3.339-.092,6.732-2.161,9.432-4.763,1.65-1.592,2.963-2.979,5.032-2.1A6.494,6.494,0,0,1,474.686,328.479Z"/><path class="av" d="M474.686,328.479c.064.182.123.349.17.523a9.9,9.9,0,0,1-1.4,8.147,52.2,52.2,0,0,1-6.046,7.476,47.417,47.417,0,0,1-10.083,7.058c-4.436,2.439-10.866,5.223-14.971.239-.958-1.164-.163-3.459.689-4.381a3.193,3.193,0,0,1,1.6-.824c3.245-.908,6.534-1.407,9.8-2.145a19.763,19.763,0,0,0,10.619-5.732c2.426-2.644,4.218-6.271,6.682-8.847a5.046,5.046,0,0,1,2.028-1.449A2.252,2.252,0,0,1,474.686,328.479Z"/><path class="aw" d="M441.565,337.385a9.427,9.427,0,0,0-.788,3.017,1.211,1.211,0,0,0,.468,1.1c1.495.716,4.285-2.332,5.409-3.385,2.124-1.992.948-4.662-1.479-4.1A6.363,6.363,0,0,0,441.565,337.385Z"/><path class="at" d="M511.778,314.637a19.6,19.6,0,0,0,2.978,4.513,4.885,4.885,0,0,1,3.2-2.5c-.333,1.056-.616,2.142-.847,3.248a8.678,8.678,0,0,1,4.466,2.223,6.411,6.411,0,0,0-3.446,1.755,10.177,10.177,0,0,1,2.483,4.811.747.747,0,0,1,.011.416.437.437,0,0,1-.25.231,20.574,20.574,0,0,1-6.094,1.875c-.555.078-2.087-8.306-2.262-9.209C511.535,319.529,510.986,317.121,511.778,314.637Z"/><path class="au" d="M517.108,324.713c.06.234.115.449.156.671a11.683,11.683,0,0,1-2.534,9.7,57.85,57.85,0,0,1-8.15,8.007,53.146,53.146,0,0,1-13.047,6.736c-5.673,2.148-13.821,4.341-18.341-2.53a4.6,4.6,0,0,1-.336-.563,18.479,18.479,0,0,1-2.563-9.5,15.517,15.517,0,0,1,3.209-9.763c5.245-6.133,13.262-3.329,19.433-2.535,4.094.517,8.454-1.375,12.019-4.049,2.179-1.636,3.925-3.087,6.368-1.626A8.822,8.822,0,0,1,517.108,324.713Z"/><path class="av" d="M517.108,324.713c.06.234.115.449.156.671a11.683,11.683,0,0,1-2.534,9.7,57.85,57.85,0,0,1-8.15,8.007,53.146,53.146,0,0,1-13.047,6.736c-5.673,2.148-13.821,4.341-18.34-2.53-1.056-1.6.148-4.262,1.284-5.229a3.633,3.633,0,0,1,2.034-.708c4.062-.5,8.136-.49,12.2-.778,4.726-.334,9.548-1.548,13.569-5.011,3.234-2.778,5.793-6.877,9.066-9.565a5.665,5.665,0,0,1,2.627-1.39A2.762,2.762,0,0,1,517.108,324.713Z"/><path class="ax" d="M475.69,329.366a10.907,10.907,0,0,0-1.268,3.542,1.589,1.589,0,0,0,.461,1.439c1.756,1.158,5.477-2.046,6.958-3.123,2.8-2.036,1.63-5.525-1.395-5.3C478.772,326.05,476.663,327.659,475.69,329.366Z"/><path class="at" d="M546.14,326.094a18.977,18.977,0,0,0,1.735,4.317,3.32,3.32,0,0,1,2.86-1.158,23.624,23.624,0,0,0-1.109,2.346,8.562,8.562,0,0,1,3.219,2.89,4.585,4.585,0,0,0-2.957.506,9.568,9.568,0,0,1,1.3,4.426.592.592,0,0,1-.048.331.3.3,0,0,1-.229.119,15.68,15.68,0,0,1-5.06-.073c-.449-.079-.516-7.081-.531-7.837C545.283,329.889,545.178,327.851,546.14,326.094Z"/><path class="au" d="M548.972,335.395c.016.2.03.384.032.57a8.286,8.286,0,0,1-3.319,7.006,29.762,29.762,0,0,1-18.721,6.232c-4.766.25-11.49-.094-14.119-6.662a4.411,4.411,0,0,1-.189-.53,16.128,16.128,0,0,1-.728-8.142,10.753,10.753,0,0,1,3.859-6.883c4.971-3.5,10.911.751,15.669,2.947,3.158,1.449,6.853,1.067,10.029-.134,1.941-.736,3.515-1.436,5.243.338A8.546,8.546,0,0,1,548.972,335.395Z"/><path class="av" d="M548.972,335.395c.016.2.03.384.032.57a8.286,8.286,0,0,1-3.319,7.006,29.762,29.762,0,0,1-18.721,6.232c-4.766.25-11.49-.094-14.119-6.662-.614-1.534.7-3.324,1.725-3.8a2.741,2.741,0,0,1,1.7-.041c3.271.64,6.482,1.684,9.729,2.493,3.773.939,7.74,1.208,11.383-.5,2.928-1.368,5.5-3.949,8.45-5.235a4.01,4.01,0,0,1,2.261-.428A2.46,2.46,0,0,1,548.972,335.395Z"/><path class="ay" d="M515.677,328.525A7.474,7.474,0,0,0,514.2,331a1.411,1.411,0,0,0,.167,1.251c1.228,1.36,4.6-.219,5.912-.692,2.486-.893,2.038-3.942-.379-4.533A4.865,4.865,0,0,0,515.677,328.525Z"/><path class="an" d="M432.352,352.451l-2.3-42.314h6.568l.081,43.023Z"/><path class="an" d="M501.91,352.451l-1.225-41.872h6.568l-1,42.58Z"/><path class="ao" d="M427.251,339.792l82.694-1.062v40.9H429.512Z"/><path class="an" d="M509.945,338.73l49.745,1.062-.323,39.836H509.945Z"/><path class="an" d="M510.376,356.435l-19.166,3.187,19.812.354Z"/><path class="an" d="M428.866,365.641,449,366l-20.458-4.072Z"/><path class="ap" d="M428.866,365.641V368.3L449,366Z"/><path class="ap" d="M491.21,359.621l18.574,3.806,2.342-3.585Z"/><path class="aq" d="M506.69,345.608a2.005,2.005,0,0,0-.848-1.152c-1.153-.578-2.028,1.285-1.758,3.347.163,1.251.831,2.247,1.535,2.2C506.8,349.922,507.312,347.272,506.69,345.608Z"/><path class="aq" d="M507.094,370.173a2.012,2.012,0,0,0-.848-1.152c-1.153-.578-2.028,1.285-1.758,3.347.163,1.251.83,2.247,1.534,2.2C507.206,374.488,507.716,371.838,507.094,370.173Z"/><path class="aq" d="M433.122,371.235a2.006,2.006,0,0,0-.848-1.151c-1.153-.578-2.028,1.285-1.759,3.346.164,1.251.831,2.247,1.535,2.2C433.234,375.55,433.744,372.9,433.122,371.235Z"/><path class="aq" d="M432.153,347.865a2.013,2.013,0,0,0-.848-1.152c-1.153-.578-2.028,1.285-1.759,3.347.164,1.251.831,2.247,1.535,2.2C432.265,352.18,432.775,349.53,432.153,347.865Z"/><path class="ak" d="M476.619,283.133l-2.353-43.261h6.715l.083,43.985Z"/><path class="ak" d="M549.384,283.133l-1.252-42.809h6.715l-1.018,43.533Z"/><path class="az" d="M452.436,268.535a13.4,13.4,0,0,1-5.688,6.266c-3.142,1.978-5.915,2.454-8.872-.256a19.2,19.2,0,0,1-2.651-2.819,9.209,9.209,0,0,1-1.008-1.759,11.481,11.481,0,0,1-.421-7.209,13.826,13.826,0,0,1,.975-2.6c1.931-3.983,5.623-7.5,8.707-8.071a6.582,6.582,0,0,1,4.738,1.134,10.883,10.883,0,0,1,3.347,3.683,13.034,13.034,0,0,1,1.188,2.785A13.9,13.9,0,0,1,452.436,268.535Z"/><path class="ba" d="M452.751,259.694a13.034,13.034,0,0,0-1.188-2.785,1.139,1.139,0,0,0-.551.475,6.572,6.572,0,0,0-.722,1.626c-.1.266-.218.511-.324.768l-.04-.133a1.916,1.916,0,0,0-.505-.757.969.969,0,0,0-.427-.342,1.16,1.16,0,0,0-.73-.233c-.044-.007-.087-.014-.131-.023a1.532,1.532,0,0,0-.973.348,2.358,2.358,0,0,0-.685.932,3.344,3.344,0,0,0-.261,1.274,3.387,3.387,0,0,0,.255,1.331c.127.232.257.461.387.691a1.938,1.938,0,0,0,.854.684c.046.017.092.014.139.027a12.482,12.482,0,0,1-6.967,5,24.644,24.644,0,0,1-4.458.414c-.525.038-1.2-.129-1.427.638a5.021,5.021,0,0,0,.228,2.1,19.2,19.2,0,0,0,2.651,2.819c2.957,2.71,5.73,2.234,8.872.256a13.4,13.4,0,0,0,5.688-6.266A13.9,13.9,0,0,0,452.751,259.694Z"/><path class="ba" d="M444.525,255.715l-.018-.041c-.236-.538-.767-.9-1.226-.7-.152.067-.3.134-.452.213a1.083,1.083,0,0,0-.485.449,1.483,1.483,0,0,0-.2.739,1.942,1.942,0,0,0,.122.641,1.057,1.057,0,0,0,.513.554c-.025-.013-.034-.017.043.032l.178.115a.917.917,0,0,0,.685.182.93.93,0,0,0,.644-.414l.025-.044a1.9,1.9,0,0,0,.288-.809A1.848,1.848,0,0,0,444.525,255.715Z"/><path class="ba" d="M440.6,264.73c-.052-.084-.1-.183-.157-.263l-.024-.043-.072-.141a.739.739,0,0,0-.61-.489.711.711,0,0,0-.626.484,1.3,1.3,0,0,0,0,.985c.116.273.368.516.61.489a4.768,4.768,0,0,0,.705-.129C440.737,265.538,440.785,265.015,440.6,264.73Z"/><path class="bb" d="M471.213,253.7c1.19-2.054,2.79-3.783,4.666-4.316a6.768,6.768,0,0,1,3.765.2,8.8,8.8,0,0,1,4.566,2.909,14.066,14.066,0,0,1,2.445,6.074,25.231,25.231,0,0,1-.266,10.619c-.7,2.8-2.007,5.443-3.945,6.752a8.1,8.1,0,0,1-3.108,1.148,10.011,10.011,0,0,1-5.645-.267C466.681,274.028,467.537,260.049,471.213,253.7Z"/><path class="bb" d="M538.463,261.235c1.19-2.055,2.79-3.783,4.666-4.317a6.759,6.759,0,0,1,3.765.2,8.8,8.8,0,0,1,4.566,2.908,14.063,14.063,0,0,1,2.445,6.075,25.215,25.215,0,0,1-.266,10.619c-.7,2.8-2.006,5.442-3.944,6.752a8.128,8.128,0,0,1-3.108,1.148,10.032,10.032,0,0,1-5.646-.267C533.932,281.559,534.787,267.581,538.463,261.235Z"/><path class="bb" d="M501.982,255.345c1.446-2.495,3.39-4.6,5.669-5.244a8.219,8.219,0,0,1,4.574.238,10.691,10.691,0,0,1,5.547,3.533,17.1,17.1,0,0,1,2.971,7.38,30.663,30.663,0,0,1-.323,12.9c-.851,3.4-2.438,6.612-4.793,8.2a9.84,9.84,0,0,1-3.775,1.395,12.173,12.173,0,0,1-6.859-.324C496.477,280.037,497.517,263.055,501.982,255.345Z"/><path class="az" d="M472.533,266.824a19.53,19.53,0,0,1-5.879,9.392c-3.5,3.383-6.79,4.823-10.84,2.444a19.879,19.879,0,0,1-3.693-2.607,9.711,9.711,0,0,1-1.519-1.826,13.62,13.62,0,0,1-1.71-8.642,18.847,18.847,0,0,1,.756-3.46c1.687-5.447,5.6-10.88,9.254-12.526a7.865,7.865,0,0,1,5.953-.093,11.354,11.354,0,0,1,4.684,3.442,14,14,0,0,1,1.909,3.02A17.029,17.029,0,0,1,472.533,266.824Z"/><path class="ba" d="M471.448,255.968a14,14,0,0,0-1.909-3.02,1.678,1.678,0,0,0-.591.749,9.11,9.11,0,0,0-.608,2.2c-.074.353-.18.689-.267,1.035l-.071-.149a2.006,2.006,0,0,0-.74-.765,1.041,1.041,0,0,0-.576-.284,1.351,1.351,0,0,0-.927-.056l-.163.013a2.155,2.155,0,0,0-1.127.725,3.411,3.411,0,0,0-.679,1.348,4.331,4.331,0,0,0-.105,1.63,3.841,3.841,0,0,0,.531,1.541c.194.242.389.481.586.72a2.058,2.058,0,0,0,1.152.567,1.7,1.7,0,0,0,.174-.01,18.251,18.251,0,0,1-7.648,8.243,32.825,32.825,0,0,1-5.356,1.89c-.632.208-1.479.215-1.63,1.219a5.836,5.836,0,0,0,.627,2.485,19.879,19.879,0,0,0,3.693,2.607c4.05,2.379,7.344.939,10.84-2.444a19.53,19.53,0,0,0,5.879-9.392A17.029,17.029,0,0,0,471.448,255.968Z"/><path class="ba" d="M460.778,253.682l-.029-.044a1.141,1.141,0,0,0-1.608-.471c-.173.13-.347.259-.515.4a1.576,1.576,0,0,0-.515.7,1.951,1.951,0,0,0-.116.96,2.2,2.2,0,0,0,.255.741,1.108,1.108,0,0,0,.716.516c-.032-.009-.044-.01.058.025l.235.085a1.09,1.09,0,0,0,.864.008,1.349,1.349,0,0,0,.714-.7l.025-.062a2.567,2.567,0,0,0,.215-1.073A2.135,2.135,0,0,0,460.778,253.682Z"/><path class="ba" d="M457.5,265.869c-.078-.085-.153-.191-.235-.27l-.036-.046-.111-.148A.8.8,0,0,0,456.3,265a1.033,1.033,0,0,0-.683.784,1.582,1.582,0,0,0,.161,1.2.761.761,0,0,0,.823.4,6.279,6.279,0,0,0,.836-.376C457.8,266.811,457.771,266.16,457.5,265.869Z"/><path class="az" d="M521.881,278c3.263,2.15,6.937,1.875,10.3,1.085,4.693-1.119,7.982-3.573,9.33-9.914a40.061,40.061,0,0,0,.945-6.134,17.208,17.208,0,0,0-.1-3.127,14.768,14.768,0,0,0-4.389-8.8,13,13,0,0,0-2.786-1.945c-4.742-2.516-11.062-2.588-14.744.1a13.294,13.294,0,0,0-4.312,6.446,23.13,23.13,0,0,0-.515,12.4C516.609,272.284,518.922,276.076,521.881,278Z"/><path class="ba" d="M515.608,268.11a22.539,22.539,0,0,1-.6-4.511,1.158,1.158,0,0,1,.909-.047,6.041,6.041,0,0,1,1.865,1.1c.281.2.576.354.862.537-.015-.066-.031-.131-.046-.2a3.722,3.722,0,0,1,.033-1.423,2.1,2.1,0,0,1,.227-.859,2.426,2.426,0,0,1,.626-1.061l.124-.167a2.074,2.074,0,0,1,1.276-.654,2.166,2.166,0,0,1,1.36.336,3.445,3.445,0,0,1,1.133,1.192A4.867,4.867,0,0,1,524,264.17c.019.407.034.813.049,1.219a4.2,4.2,0,0,1-.455,1.717c-.038.071-.09.117-.131.182a13.458,13.458,0,0,0,10.815-1.772,41.447,41.447,0,0,0,5.053-4.352c.587-.526,1.2-1.448,1.956-.809a6.682,6.682,0,0,1,1.165,2.678,40.061,40.061,0,0,1-.945,6.134c-1.348,6.341-4.637,8.8-9.33,9.914-3.361.79-7.035,1.065-10.3-1.085C518.922,276.076,516.609,272.284,515.608,268.11Z"/><path class="ba" d="M521.746,254.59l-.008-.066a2.085,2.085,0,0,1,.843-2.138c.208-.087.416-.174.628-.244a1.071,1.071,0,0,1,.821-.005,1.475,1.475,0,0,1,.706.642,2.8,2.8,0,0,1,.3.873,2.173,2.173,0,0,1-.177,1.2c.017-.042.025-.056-.025.084l-.113.326a1.88,1.88,0,0,1-.612.953,1.046,1.046,0,0,1-.966.219l-.058-.024a1.8,1.8,0,0,1-.851-.624A2.533,2.533,0,0,1,521.746,254.59Z"/><path class="ba" d="M532,260.769c0-.153-.014-.321-.007-.474l-.005-.076c0-.08-.01-.16-.017-.24a1.566,1.566,0,0,1,.325-1.227.772.772,0,0,1,1-.12,1.6,1.6,0,0,1,.663,1.137,1.479,1.479,0,0,1-.325,1.227,7.219,7.219,0,0,1-.841.614C532.4,261.848,531.995,261.3,532,260.769Z"/><path class="az" d="M497.384,275.957c-2.374,1.8-5.272,1.736-7.969,1.253-3.766-.687-6.544-2.47-8.126-7.36a32.161,32.161,0,0,1-1.25-4.744,13.44,13.44,0,0,1-.182-2.441,10.85,10.85,0,0,1,2.7-7.031,9.446,9.446,0,0,1,2.019-1.626c3.5-2.149,8.441-2.454,11.546-.5a11.225,11.225,0,0,1,3.912,4.854,18.137,18.137,0,0,1,1.526,6.106,17.228,17.228,0,0,1-.092,3.539C501.036,271.3,499.54,274.344,497.384,275.957Z"/><path class="ba" d="M501.471,268a17.228,17.228,0,0,0,.092-3.539.915.915,0,0,0-.715,0,4.419,4.419,0,0,0-1.368.931c-.2.169-.421.3-.63.453l.02-.155a2.934,2.934,0,0,0-.145-1.109,1.692,1.692,0,0,0-.249-.66,2.032,2.032,0,0,0-.578-.8l-.111-.126a1.736,1.736,0,0,0-1.053-.459,1.635,1.635,0,0,0-1.036.316,2.486,2.486,0,0,0-.788.973,3.632,3.632,0,0,0-.335,1.44c.019.317.04.635.063.952a3.41,3.41,0,0,0,.5,1.32c.035.054.079.088.117.137a10.831,10.831,0,0,1-8.612-.954,35.327,35.327,0,0,1-4.316-3.193c-.5-.386-1.057-1.081-1.6-.554a4.932,4.932,0,0,0-.689,2.134,32.161,32.161,0,0,0,1.25,4.744c1.582,4.89,4.36,6.673,8.126,7.36,2.7.483,5.6.552,7.969-1.253C499.54,274.344,501.036,271.3,501.471,268Z"/><path class="ba" d="M495.543,257.707v-.052a1.723,1.723,0,0,0-.837-1.633c-.17-.06-.34-.119-.512-.165a.833.833,0,0,0-.642.028,1.067,1.067,0,0,0-.5.528,2.091,2.091,0,0,0-.161.693,1.751,1.751,0,0,0,.238.926c-.017-.032-.024-.043.026.065.039.082.077.166.116.249a1.57,1.57,0,0,0,.558.718.847.847,0,0,0,.775.133l.043-.02a1.319,1.319,0,0,0,.614-.52A1.877,1.877,0,0,0,495.543,257.707Z"/><path class="ba" d="M488.034,262.929c-.013-.12-.015-.251-.033-.37l0-.06c0-.062,0-.125-.007-.188a1.273,1.273,0,0,0-.356-.943.615.615,0,0,0-.79-.054,1.166,1.166,0,0,0-.425.912,1.206,1.206,0,0,0,.357.943,5.987,5.987,0,0,0,.709.446C487.81,263.785,488.079,263.338,488.034,262.929Z"/><path class="an" d="M429.5,283.133l-2.353-43.261h6.715l.083,43.985Z"/><path class="an" d="M500.617,283.133l-1.252-42.809h6.715l-1.018,43.533Z"/><path class="ao" d="M424.288,270.191l84.544-1.086v41.813H426.6Z"/><path class="an" d="M508.832,269.1l50.858,1.086-.33,40.727H508.832Z"/><path class="an" d="M509.272,287.206l-19.595,3.258,20.255.362Z"/><path class="an" d="M425.939,296.618l20.586.362-20.916-4.163Z"/><path class="ap" d="M425.939,296.618v2.715l20.586-2.353Z"/><path class="ap" d="M489.677,290.464l18.989,3.892,2.394-3.665Z"/><path class="aq" d="M505.5,276.137a2.061,2.061,0,0,0-.866-1.178c-1.179-.591-2.074,1.314-1.8,3.422.167,1.279.849,2.3,1.569,2.249C505.619,280.548,506.14,277.839,505.5,276.137Z"/><path class="aq" d="M505.917,301.252a2.057,2.057,0,0,0-.867-1.178c-1.178-.591-2.073,1.314-1.8,3.422.168,1.279.85,2.3,1.57,2.249C506.032,305.663,506.553,302.954,505.917,301.252Z"/><path class="aq" d="M430.29,302.338a2.057,2.057,0,0,0-.867-1.178c-1.179-.591-2.073,1.314-1.8,3.422.168,1.279.85,2.3,1.569,2.249C430.4,306.749,430.926,304.04,430.29,302.338Z"/><path class="aq" d="M429.3,278.445a2.057,2.057,0,0,0-.866-1.178c-1.179-.591-2.074,1.314-1.8,3.422.167,1.279.849,2.3,1.569,2.249C429.414,282.856,429.935,280.147,429.3,278.445Z"/><path class="ak" d="M474.643,212.705l-2.409-44.29h6.875l.085,45.031Z"/><path class="ak" d="M549.139,212.705l-1.282-43.827h6.875l-1.043,44.568Z"/><path class="bc" d="M477.037,192.256a24.945,24.945,0,0,1,3.285-8.705c1.6-2.459,3.791-4.276,6.178-4.728a4.25,4.25,0,0,1,3.334.613,8.762,8.762,0,0,1,2.223,2.837,50.213,50.213,0,0,1,4.132,9.455c1.174-4.072,3.712-7.354,6.763-8.676a2.211,2.211,0,0,1,1.7-.193,3.49,3.49,0,0,1,1.207,1.066l2.635,3.134a7.091,7.091,0,0,1,2.047,4.166c2.67.145,6.058-.286,8.728-.141,1.783.1,3.8.347,4.908,2.257,3.571-4.2,8.949-6.926,13.649-6.532s9.313,4,11.5,9.706a15.408,15.408,0,0,1,.4,10.539,13.259,13.259,0,0,1-3.638,4.974,33.608,33.608,0,0,1-19.831,8.617c-7,.685-14.023-.428-20.953-1.926-5.478-1.183-10.966-2.623-16.128-5.4a21.2,21.2,0,0,1-7.478-6.232C479.1,203.478,476.07,197.141,477.037,192.256Z"/><path class="at" d="M454.214,168.39c.428,3.662,1.007,7.291,1.734,10.863.891-2.475,2.907-4.106,4.922-3.982l-1.536,5.819a7.087,7.087,0,0,1,5.965,2.731.774.774,0,0,1,.233.546.731.731,0,0,1-.206.409,7.953,7.953,0,0,1-2.927,2.218c1.851,1.046,3.22,3.536,3.443,6.257,0,.047-3.73-.264-4.058-.3,2.084,2.3,1.982,5.7,2.826,9a4.152,4.152,0,0,1,.17,1.987c-1.07-1.591-3.812-4.371-4.377-.629a13.821,13.821,0,0,1-.493,3.356l-1.633-1.692c-.1-.1-.211-.212-.336-.2-.148.013-.258.187-.349.346q-1.407,2.459-2.812,4.917c-.585-6.135-3.026-11.655-4.022-17.691a14.35,14.35,0,0,0-.556-2.573,8.648,8.648,0,0,0-1.335-2.244,50.385,50.385,0,0,0-4.477-5.143c1.052-2.175,3.32-2.266,5.224-2.122q-.974-2.39-1.948-4.778a8.224,8.224,0,0,1,4.511,2.07c.394-2.02.6-4.071,1.092-6.054C453.437,170.825,454.289,169.026,454.214,168.39Z"/><path class="bd" d="M460.415,191.423a20.252,20.252,0,0,1,.21,3.09c-.047,4.722-1.8,9.44-4.719,11.975a7.039,7.039,0,0,1-9.758-.161,15.544,15.544,0,0,1-2.934-4.1,20.806,20.806,0,0,1-1.2-2.758c-1.456-4.162-5.731-5.052-7.542-8.948.832-.575,1.821-.159,2.747.027,5.829,1.154,6.459-7.8,11.411-9.529,3.825-1.365,8.188.958,10.351,5.48A16.641,16.641,0,0,1,460.415,191.423Z"/><path class="be" d="M460.415,191.423a20.252,20.252,0,0,1,.21,3.09c-.047,4.722-1.8,9.44-4.719,11.975a7.039,7.039,0,0,1-9.758-.161c-2.368-2.28-3.79-4.46-1.425-7.26,2.222-2.631,2.378-5.677,2.587-9.742q1.212,4.1,2.358,8.238c1.649.369,3.158-.256,4.318-3.343q-.937-3.5-1.877-7.008a40.764,40.764,0,0,0,4.083,6.65c-.918-1.208,2.708-3.054,3.391-2.876A2.322,2.322,0,0,1,460.415,191.423Z"/><path class="at" d="M526.563,167.245c.567,3.626,1.285,7.208,2.148,10.723.795-2.535,2.745-4.309,4.762-4.33q-.654,2.961-1.31,5.921a6.864,6.864,0,0,1,6.062,2.3.75.75,0,0,1,.253.528.76.76,0,0,1-.19.424,8.334,8.334,0,0,1-2.838,2.424c1.889.912,3.352,3.3,3.679,6,0,.046-3.735,0-4.064-.005,2.169,2.147,2.2,5.55,3.168,8.783a4.116,4.116,0,0,1,.246,1.972c-1.13-1.512-3.975-4.091-4.4-.314a13.939,13.939,0,0,1-.364,3.387l-1.695-1.572c-.1-.1-.219-.2-.344-.177-.147.023-.25.205-.335.371l-2.619,5.112c-.82-6.085-3.469-11.422-4.7-17.378a13.982,13.982,0,0,0-.654-2.53,8.239,8.239,0,0,0-1.42-2.144,47.7,47.7,0,0,0-4.668-4.815c.967-2.247,3.229-2.5,5.136-2.494q-1.065-2.316-2.129-4.632a7.945,7.945,0,0,1,4.584,1.744c.316-2.046.442-4.109.858-6.124C525.88,169.733,526.661,167.875,526.563,167.245Z"/><path class="bd" d="M533.639,189.8a19.971,19.971,0,0,1,.328,3.071c.135,4.719-1.432,9.557-4.252,12.3-2.813,2.715-6.846,3.065-9.75.54a14.821,14.821,0,0,1-3.088-3.884,20.014,20.014,0,0,1-1.3-2.668c-1.613-4.051-5.917-4.634-7.875-8.394.809-.634,1.813-.29,2.744-.171,5.866.734,6.151-8.252,11.03-10.335,3.767-1.638,8.214.369,10.547,4.729A16.18,16.18,0,0,1,533.639,189.8Z"/><path class="be" d="M533.639,189.8a19.971,19.971,0,0,1,.328,3.071c.135,4.719-1.432,9.557-4.252,12.3-2.813,2.715-6.846,3.065-9.751.54-2.452-2.107-3.956-4.182-1.7-7.148,2.118-2.787,2.157-5.84,2.21-9.914q1.368,4.008,2.671,8.057c1.661.251,3.143-.482,4.184-3.648q-1.073-3.432-2.144-6.864a38.917,38.917,0,0,0,4.333,6.348c-.963-1.141,2.587-3.245,3.275-3.116A2.232,2.232,0,0,1,533.639,189.8Z"/><path class="at" d="M465.567,165.039q2.58,5.4,5.6,10.386c.087-3.2,1.659-6.23,3.836-7.4q.194,3.579.386,7.158a7.418,7.418,0,0,1,7.264-.965.639.639,0,0,1,.435.427,1.055,1.055,0,0,1-.076.567,13.487,13.487,0,0,1-2.334,4.243c2.323-.089,4.635,1.662,5.812,4.4.02.046-4.042,2.132-4.4,2.311,3,1.088,4.071,4.756,6.107,7.7a4.022,4.022,0,0,1,.867,1.995c-1.684-.993-5.55-2.164-4.854,2.165a15.964,15.964,0,0,1,.638,3.875l-2.315-.736a.467.467,0,0,0-.426,0,.955.955,0,0,0-.25.593q-.639,3.513-1.277,7.027c-2.743-6.121-7.238-10.39-10.382-16.139a12.608,12.608,0,0,0-1.479-2.366,6.816,6.816,0,0,0-2.191-1.513A40.415,40.415,0,0,0,460,186.221c.363-2.985,2.734-4.548,4.8-5.627l-3.717-3.8a8.538,8.538,0,0,1,5.495-.725c-.282-2.4-.773-4.7-.938-7.12C465.585,168.121,465.865,165.664,465.567,165.039Z"/><path class="bd" d="M480.1,185.427a19.926,19.926,0,0,1,1.291,3.138,22.386,22.386,0,0,1-.857,15.739c-2.218,4.544-6.477,7.221-10.392,6.142A12.328,12.328,0,0,1,465.619,208a16.794,16.794,0,0,1-2.223-2.147c-2.981-3.467-7.819-1.645-11.085-4.6.682-1.148,1.874-1.347,2.919-1.749,6.575-2.548,4.145-12.441,8.793-17.477a8.944,8.944,0,0,1,12.861-.891A14.188,14.188,0,0,1,480.1,185.427Z"/><path class="be" d="M480.1,185.427a19.926,19.926,0,0,1,1.291,3.138,22.386,22.386,0,0,1-.857,15.739c-2.218,4.544-6.477,7.221-10.393,6.142-3.3-.882-5.558-2.272-4.021-6.769,1.444-4.224.555-7.552-.629-11.993q2.7,3.56,5.348,7.2c1.874-.675,3.256-2.314,3.418-6.335l-4.413-6.21a32.1,32.1,0,0,0,6.626,4.4c-1.391-.686,1.812-4.987,2.6-5.24A2.318,2.318,0,0,1,480.1,185.427Z"/><path class="an" d="M426.406,212.705,424,168.415h6.875l.085,45.031Z"/><path class="an" d="M499.212,212.705l-1.282-43.827H504.8l-1.042,44.568Z"/><path class="ao" d="M421.067,199.455l86.555-1.112v42.808H423.434Z"/><path class="an" d="M507.622,198.343l52.068,1.112-.338,41.7h-51.73Z"/><path class="an" d="M508.073,216.875l-20.061,3.336,20.737.371Z"/><path class="an" d="M422.758,226.511l21.075.37L422.42,222.62Z"/><path class="ap" d="M422.758,226.511v2.78l21.075-2.409Z"/><path class="ap" d="M488.012,220.211l19.441,3.984,2.451-3.753Z"/><path class="aq" d="M504.215,205.542a2.1,2.1,0,0,0-.887-1.205c-1.207-.605-2.123,1.345-1.841,3.5.171,1.31.87,2.352,1.607,2.3C504.333,210.059,504.866,207.285,504.215,205.542Z"/><path class="aq" d="M504.638,231.255a2.1,2.1,0,0,0-.887-1.205c-1.207-.6-2.123,1.345-1.841,3.5.171,1.31.87,2.352,1.606,2.3C504.756,235.771,505.289,233,504.638,231.255Z"/><path class="aq" d="M427.212,232.367a2.1,2.1,0,0,0-.887-1.205c-1.207-.606-2.123,1.344-1.841,3.5.171,1.31.87,2.352,1.606,2.3C427.33,236.883,427.863,234.109,427.212,232.367Z"/><path class="aq" d="M426.2,207.9a2.1,2.1,0,0,0-.888-1.205c-1.207-.6-2.122,1.345-1.841,3.5.172,1.309.87,2.352,1.607,2.3C426.315,212.421,426.849,209.648,426.2,207.9Z"/><path class="ak" d="M332.317,286.54l-2.3-42.222h6.554l.081,42.928Z"/><path class="ak" d="M403.333,286.54l-1.222-41.78h6.554l-.994,42.487Z"/><path class="bf" d="M336.272,268.99c.935,5.265.839,11.807-1.491,16.412-3.683,7.281-13.88,6.25-17.624-.414-3.662-6.52-3.471-18.463.146-24.941,5.542-9.928,17.01-1.376,18.9,8.582C336.229,268.748,336.251,268.868,336.272,268.99Z"/><path class="bf" d="M361.369,265.622c-1.481,5.244-2.027,11.992-.084,17.159,3.072,8.169,13.663,8.988,18.172,2.823,4.41-6.032,5.391-18.355,2.308-25.686-4.723-11.235-17.363-4.551-20.293,5.345C361.437,265.381,361.4,265.5,361.369,265.622Z"/><path class="bg" d="M298.253,258.992c3.265-3.068,7.771-5.274,11.746-3.935,6.287,2.117,9.211,15.514,5.989,22.67-3.151,7-11.382,11.007-17.1,8.69-8.756-3.55-6.993-21.248-.862-27.212C298.1,259.134,298.178,259.063,298.253,258.992Z"/><path class="bf" d="M386.566,257.146c3.266-3.068,7.77-5.274,11.746-3.935,6.287,2.117,9.211,15.514,5.989,22.671-3.151,7-11.382,11.006-17.1,8.69-8.756-3.551-6.993-21.249-.862-27.213Z"/><path class="bg" d="M373.382,265.094c2.747-2.581,6.538-4.437,9.883-3.311,5.29,1.781,7.75,13.054,5.04,19.075-2.652,5.891-9.577,9.262-14.385,7.312-7.368-2.987-5.885-17.879-.726-22.9C373.256,265.214,373.318,265.154,373.382,265.094Z"/><path class="bg" d="M338.161,258.085c4.465-3.78,10.626-6.5,16.063-4.848,8.6,2.608,12.6,19.111,8.191,27.927-4.31,8.624-15.566,13.558-23.38,10.7-11.975-4.373-9.565-26.174-1.179-33.52C337.956,258.26,338.057,258.172,338.161,258.085Z"/><path class="an" d="M286.334,286.54l-2.3-42.222h6.554l.081,42.928Z"/><path class="an" d="M355.738,286.54l-1.222-41.78h6.554l-.994,42.487Z"/><path class="ao" d="M281.244,273.909l82.512-1.06v40.808H283.5Z"/><path class="an" d="M363.756,272.849l49.636,1.06-.322,39.748H363.756Z"/><path class="an" d="M364.186,290.515l-19.124,3.18,19.769.353Z"/><path class="an" d="M282.856,299.7l20.091.353-20.413-4.063Z"/><path class="ap" d="M282.856,299.7v2.65l20.091-2.3Z"/><path class="ap" d="M345.062,293.695l18.533,3.8,2.337-3.577Z"/><path class="aq" d="M360.508,279.711a2,2,0,0,0-.845-1.149c-1.151-.576-2.024,1.283-1.755,3.34.163,1.248.829,2.242,1.531,2.195C360.621,284.017,361.129,281.373,360.508,279.711Z"/><path class="aq" d="M360.911,304.223a2.005,2.005,0,0,0-.845-1.149c-1.151-.577-2.024,1.282-1.755,3.339.163,1.248.829,2.242,1.531,2.2C361.024,308.528,361.532,305.884,360.911,304.223Z"/><path class="aq" d="M287.1,305.283a2.006,2.006,0,0,0-.846-1.149c-1.151-.577-2.024,1.282-1.755,3.339.163,1.249.829,2.242,1.532,2.2C287.214,309.588,287.722,306.944,287.1,305.283Z"/><path class="aq" d="M286.135,281.964a2.006,2.006,0,0,0-.846-1.149c-1.151-.577-2.024,1.282-1.755,3.339.163,1.248.829,2.242,1.532,2.2C286.247,286.269,286.755,283.625,286.135,281.964Z"/><path class="bh" d="M305.274,263.18a3.931,3.931,0,0,0,.311-.5c3.878-7.536-5.92-6.147-7.473-.258C296.575,268.252,303.219,266,305.274,263.18Z"/><path class="ar" d="M344.61,262.652a3.8,3.8,0,0,0,.311-.5c3.878-7.535-5.92-6.147-7.473-.257C335.911,267.725,342.555,265.472,344.61,262.652Z"/><path class="ar" d="M379.283,267.906a3.227,3.227,0,0,0,.25-.4c3.112-6.047-4.751-4.932-6-.206C372.3,271.976,377.634,270.169,379.283,267.906Z"/><path class="bi" d="M468.726,379.632h-4.9l-.691-20.408-8.585-254.211-2.132-63.37h7.851Z"/><path class="bj" d="M454.5,100.662l3.923,4.024,10.3,274.943L460.267,41.65h-7.846Z"/><path class="bk" d="M466.882,359.5l-3.745-.275-8.585-254.211c.85.788,2.406,2.423,2.406,3.526C456.958,110.057,466.882,359.5,466.882,359.5Z"/><path class="bl" d="M281.222,379.632h-4.9L274.6,360.166,253.2,117.687,247.87,57.241h7.851Z"/><path class="bm" d="M252.932,113.536l4.126,3.838,24.164,262.255-25.5-322.381h-7.846Z"/><path class="bn" d="M278.363,360.429l-3.759-.263L253.2,117.687c.89.751,2.528,2.311,2.583,3.363C255.858,122.5,278.363,360.429,278.363,360.429Z"/><path class="bo" d="M462.365,32.326v.165c-.046,3.509-.782,59.18-9.895,58.757-5.99-.286-10.2-21.07-12.453-36.107-.05,1-.1,2.021-.168,3.046-1.024,17.311-3.47,40.357-9.356,40.092-6.18-.3-10.343-22.8-12.457-38.177-.017.166-.017.332-.033.554-.938,17.471-3.4,43.666-9.662,43.366-5.921-.262-9.874-21.309-11.988-36.905-.158-1.179-.315-2.33-.455-3.427-.92,17.36-3.394,45.157-9.866,44.869-6.232-.3-10.12-23.891-12.1-39.909-.106-.961-.211-1.866-.316-2.744-.9,17.194-3.426,46.235-10.054,45.928-6.818-.3-10.733-29.187-12.365-45.058-.033.692-.083,1.441-.117,2.216-.989,17.225-3.617,45.223-10.142,44.938-6.49-.315-10.211-26.951-11.879-43.51-.157-1.427-.281-2.8-.4-4.037-.853,16.446-3.456,49.053-10.482,48.712-7.18-.333-10.809-33.518-12.129-49.156v-.166l-.017-.109c-.018-.248-.035-.467-.053-.715-.8,15.614-3.4,50.789-10.72,50.463-7.077-.338-10.532-33.145-11.819-49.338-.106-1.374-.212-2.639-.283-3.739-.7,14.366-3.329,52.58-10.958,52.243-7.3-.354-10.572-35.794-11.668-51.666-.124-1.843-.23-3.411-.3-4.622-.583,12.069-3.153,54.7-11.231,54.3-9.407-.434-11.855-60.214-11.854-60.214,52.744,6.267,105.088,7.455,157.7-2.148C417.708,46.054,439.945,39.372,462.365,32.326Z"/><path class="v" d="M593.411,208.091l-.863,83.284H542.228l-.787-19.954-.152-3.973-1.345-34.58-.1-2.55-.85-21.636Z"/><path class="w" d="M593.307,208.092l41.466.591-3.778,82.694H592.551Z"/><path class="x" d="M539.944,232.868l.263,2.653,15.953-3.209Z"/><path class="x" d="M541.441,271.352l.142,2.6,24.7-2.234Z"/><path class="w" d="M593.415,237.921l-9.61,2.658,9.395.3Z"/><path class="x" d="M583.8,240.579l9.179,3.4,2.16-3.1Z"/><path class="w" d="M593.184,266.864l-15.1,1.88,14.763.209Z"/><path class="x" d="M578.081,268.744l14.423,2.4,3.394-2.193Z"/><path class="y" d="M591.552,214.811c0-1.273-.58-2.3-1.3-2.3s-1.295,1.031-1.295,2.3.58,2.3,1.295,2.3S591.552,216.083,591.552,214.811Z"/><path class="y" d="M544.094,214.589c0-1.272-.58-2.3-1.3-2.3s-1.3,1.031-1.3,2.3.58,2.3,1.3,2.3S544.094,215.862,544.094,214.589Z"/><path class="y" d="M546.685,285.913c0-1.273-.58-2.3-1.295-2.3s-1.3,1.031-1.3,2.3.58,2.3,1.3,2.3S546.685,287.185,546.685,285.913Z"/><path class="y" d="M590.5,286.356c0-1.273-.58-2.3-1.3-2.3s-1.3,1.031-1.3,2.3.58,2.3,1.3,2.3S590.5,287.628,590.5,286.356Z"/><path class="x" d="M542.228,291.375l-1.9-18.531.931-1.661-1.012-2.99-1.417-32.339.594-3.027-.7-2.51-1.026-23.7,72.564,1.55-70.783,1.108Z"/><path class="w" d="M566.284,271.717l-24.62-.369-1.539-3.212Z"/><path class="w" d="M556.159,232.313l-16.722.717-.648-2.658Z"/><path class="w" d="M554.142,273.152l29.15,3.314-.784-18.031Z"/><path class="z" d="M550.364,224.971l2.091,47.824a98.675,98.675,0,0,0,29.65,1.3c.632-7.072.34-29.4.19-49.383Z"/><path class="at" d="M562.3,233.4a68.244,68.244,0,0,0,4.462,5.923,6.458,6.458,0,0,1,1.907-5.383l.819,4.6a5.22,5.22,0,0,1,4.646-1.705.366.366,0,0,1,.317.213.7.7,0,0,1-.005.38,10,10,0,0,1-1.181,3.1,3.817,3.817,0,0,1,4.129,2c.017.027-2.459,1.986-2.679,2.155,2.039.263,3.025,2.489,4.582,4.1a2.347,2.347,0,0,1,.723,1.169c-1.174-.4-3.781-.584-2.985,2.128a9.82,9.82,0,0,1,.723,2.425l-1.564-.136a.317.317,0,0,0-.276.066.689.689,0,0,0-.116.423l-.273,4.759c-2.269-3.573-5.531-5.682-8.031-8.954a7.186,7.186,0,0,0-1.149-1.319,3.946,3.946,0,0,0-1.545-.658,24.625,24.625,0,0,0-4.443-.692c0-1.995,1.417-3.363,2.675-4.372l-2.718-1.92a6.042,6.042,0,0,1,3.515-1.287c-.373-1.515-.876-2.942-1.174-4.49A13.272,13.272,0,0,0,562.3,233.4Z"/><path class="bd" d="M573.372,244.5a11.487,11.487,0,0,1,1.089,1.848,14.734,14.734,0,0,1,.692,10.361c-1.082,3.283-3.639,5.656-6.27,5.536a7.3,7.3,0,0,1-3.137-.919,9.442,9.442,0,0,1-1.616-1.066c-2.214-1.812-5.215.091-7.573-1.346.353-.848,1.112-1.154,1.76-1.57,4.072-2.633,1.707-8.705,4.33-12.669,2.016-3.08,5.516-4.12,8.292-2.487A8,8,0,0,1,573.372,244.5Z"/><path class="be" d="M573.372,244.5a11.487,11.487,0,0,1,1.089,1.848,14.734,14.734,0,0,1,.692,10.361c-1.082,3.283-3.639,5.656-6.27,5.536-2.215-.085-3.795-.653-3.152-3.8.6-2.961-.238-4.993-1.361-7.705q2.04,1.914,4.049,3.889c1.165-.717,1.933-1.988,1.72-4.626q-1.681-1.692-3.362-3.383a18.618,18.618,0,0,0,4.657,1.88c-.959-.24.783-3.512,1.273-3.793A1.6,1.6,0,0,1,573.372,244.5Z"/><path class="v" d="M590.115,290.653l-.929,89.644H535.023l-.847-21.477-.164-4.277-1.448-37.221-.109-2.745-.915-23.289Z"/><path class="w" d="M590,290.654l44.632.636L630.568,380.3H589.189Z"/><path class="x" d="M532.565,317.322l.282,2.856,17.171-3.453Z"/><path class="x" d="M534.177,358.745l.153,2.8,26.587-2.4Z"/><path class="w" d="M590.119,322.761l-10.344,2.861,10.112.318Z"/><path class="x" d="M579.775,325.622l9.879,3.656,2.325-3.338Z"/><path class="w" d="M589.87,353.914l-16.255,2.024,15.89.225Z"/><path class="x" d="M573.615,355.937l15.525,2.586,3.653-2.361Z"/><path class="y" d="M588.114,297.886c0-1.369-.624-2.479-1.394-2.479s-1.395,1.11-1.395,2.479.624,2.48,1.395,2.48S588.114,299.255,588.114,297.886Z"/><path class="y" d="M537.032,297.648c0-1.37-.625-2.48-1.395-2.48s-1.4,1.11-1.4,2.48.625,2.479,1.4,2.479S537.032,299.017,537.032,297.648Z"/><ellipse class="y" cx="1.395" cy="2.48" rx="1.395" ry="2.48" transform="translate(537.032 371.938)"/><path class="y" d="M586.981,374.894c0-1.369-.624-2.479-1.4-2.479s-1.394,1.11-1.394,2.479.624,2.48,1.394,2.48S586.981,376.264,586.981,374.894Z"/><path class="x" d="M535.023,380.3l-2.045-19.946,1-1.788-1.09-3.219-1.525-34.809.639-3.258-.755-2.7-1.1-25.51,78.106,1.669-76.188,1.192Z"/><path class="w" d="M560.917,359.138l-26.5-.4-1.656-3.457Z"/><path class="w" d="M550.019,316.724l-18,.771-.7-2.861Z"/><path class="w" d="M547.847,360.682l31.377,3.567-.844-19.408Z"/><path class="z" d="M543.781,308.822l2.251,51.476a106.206,106.206,0,0,0,31.913,1.4c.681-7.612.366-31.645.205-53.154Z"/><path class="az" d="M561.7,349.14c2.474-.438,4.517-2.486,6.24-4.671,2.4-3.06,3.622-6.168,2.656-10.52a25.878,25.878,0,0,0-1.142-4.025,9.153,9.153,0,0,0-.918-1.753,6.232,6.232,0,0,0-4.952-2.819,7.125,7.125,0,0,0-2.143.312,14.2,14.2,0,0,0-8.479,7.642,12.761,12.761,0,0,0-.715,5.937,14.4,14.4,0,0,0,1.528,5.124,11.013,11.013,0,0,0,1.585,2.3A7.042,7.042,0,0,0,561.7,349.14Z"/><path class="ba" d="M555.356,346.663a11.013,11.013,0,0,1-1.585-2.3,1.152,1.152,0,0,1,.511-.495,3.592,3.592,0,0,1,1.379-.325c.218-.028.43-.092.646-.134l-.081-.089a2.086,2.086,0,0,1-.373-.839,1.514,1.514,0,0,1-.105-.612,2.229,2.229,0,0,1,.069-.934c.009-.053.018-.107.026-.16a2.36,2.36,0,0,1,.556-1.034,1.709,1.709,0,0,1,.877-.505,1.589,1.589,0,0,1,.982.1,2.088,2.088,0,0,1,.858.728c.123.225.243.451.363.678a3,3,0,0,1,.21,1.225c0,.06-.019.113-.025.172a14.129,14.129,0,0,0,5.753-6.586,46.226,46.226,0,0,0,1.718-5.11c.194-.6.292-1.451.906-1.473.439-.013,1.026.575,1.409.946a25.878,25.878,0,0,1,1.142,4.025c.966,4.352-.256,7.46-2.656,10.52-1.723,2.185-3.766,4.233-6.24,4.671A7.042,7.042,0,0,1,555.356,346.663Z"/><path class="ba" d="M555.18,335.7l-.024-.034a1.673,1.673,0,0,1-.1-1.667c.1-.157.192-.314.295-.463a1.032,1.032,0,0,1,.472-.426.728.728,0,0,1,.584.007,1.185,1.185,0,0,1,.413.351,1.4,1.4,0,0,1,.227.781c0-.033,0-.045.009.062l.024.245a1.762,1.762,0,0,1-.091.865,1.117,1.117,0,0,1-.5.623l-.04.017a.966.966,0,0,1-.662.077A1.06,1.06,0,0,1,555.18,335.7Z"/><path class="ba" d="M562.794,334c-.042-.089-.1-.178-.135-.27l-.023-.042-.076-.13a1.124,1.124,0,0,1-.15-.874.762.762,0,0,1,.542-.582.685.685,0,0,1,.695.314,1.067,1.067,0,0,1,.15.875,8.132,8.132,0,0,1-.316.787C563.322,334.413,562.937,334.3,562.794,334Z"/><path class="bp" d="M620.017,394.282c0,12.9-18.11,23.359-40.455,23.359s-40.454-10.458-40.454-23.359c0-.189,0-.384-.01-.594-.39-14.129-13.355-75.35,42.962-74.821,20.851.2,31.165,9.934,36,22.46C625.521,360.6,620.017,386.461,620.017,394.282Z"/><path class="bq" d="M620.017,394.282c0,12.9-18.11,23.359-40.455,23.359s-40.454-10.458-40.454-23.359c0-.189,0-.384-.01-.594,1.418,2.273,5.863,7.966,7.836,8.421,2.163.5,2,1,6.658-3.5s6.992-4.166,6.992-4.166,3.161.5,6.492-3.995,3-7.822,3.661-8.491,4.665-1.828,5.994-4.495-1-3.5-1-5.494,3-.164,3.5-4.16-8.156-8.99-.165-7.606,38.956-18.864,38.956-18.864l.045-.015C625.521,360.6,620.017,386.461,620.017,394.282Z"/><path class="bp" d="M619.518,336.847c0,12.9-18.11,23.359-40.455,23.359-11.977,0-22.74-3.007-30.146-7.782-6.413-4.13-10.309-9.589-10.309-15.577,0-12.9,18.11-23.359,40.455-23.359,10.209,0,19.533,2.183,26.65,5.784C614.174,323.552,619.518,329.84,619.518,336.847Z"/><path class="br" d="M616.022,334.849c0,12.9-18.11,23.359-40.455,23.359-10.209,0-19.533-2.183-26.65-5.784-6.413-4.13-10.309-9.589-10.309-15.577,0-12.9,18.11-23.359,40.455-23.359,10.209,0,19.533,2.183,26.65,5.784C612.126,323.4,616.022,328.861,616.022,334.849Z"/><ellipse class="bq" cx="33.737" cy="19.478" rx="33.737" ry="19.478" transform="translate(545.326 315.371)"/><path class="bs" d="M599.671,324.13c-2.882,1.519-5.076,2.675-12.059-2.115-2.2-1.508-4.51-3-3.568-5.1a4.42,4.42,0,0,1,.872-1.237c1.918-2,10.442-.984,13.144.841a7.524,7.524,0,0,1,1.8,1.752C601.374,320.309,601.834,322.995,599.671,324.13Z"/><path class="br" d="M599.671,324.13c-2.882,1.519-5.076,2.675-12.059-2.115-2.2-1.508-4.51-3-3.568-5.1l.136-.05s-.762,2.113,3.19,3.368,8.559,3.521,10.786,2.153c1.835-1.122,1.782-3.362,1.707-4.115C601.369,320.313,601.834,322.995,599.671,324.13Z"/><path class="bs" d="M611.768,333.287c-2.465.868-4.342,1.528-8.834-3.574-1.418-1.607-2.919-3.216-1.832-4.866a3.956,3.956,0,0,1,.882-.924c1.815-1.423,8.142.7,9.886,2.65a6.1,6.1,0,0,1,1.069,1.756C613.736,330.288,613.617,332.64,611.768,333.287Z"/><path class="br" d="M611.768,333.287c-2.465.868-4.342,1.528-8.834-3.574-1.418-1.607-2.919-3.216-1.832-4.866l.113-.023a26.484,26.484,0,0,0,4.989,3.935c2.792,1.653,2.774,3.655,4.714,2.819,1.6-.684,1.947-2.6,2.021-3.249C613.732,330.29,613.617,332.64,611.768,333.287Z"/><path class="bs" d="M584.558,323.408c-2.873,1.492-5.061,2.627-11.779-2.445-2.12-1.6-4.343-3.179-3.357-5.314a4.539,4.539,0,0,1,.892-1.248c1.941-2.012,10.281-.771,12.882,1.162a7.512,7.512,0,0,1,1.719,1.838C586.341,319.529,586.714,322.293,584.558,323.408Z"/><path class="br" d="M584.558,323.408c-2.873,1.492-6.115,4.08-12.833-.992-2.12-1.6-3.289-4.632-2.3-6.767l.135-.048s1.049,1.948,4.893,3.326,5.95,2.442,8.176,1.091c1.835-1.109,2.341-1.843,2.289-2.617C586.336,319.533,586.714,322.293,584.558,323.408Z"/><path class="bs" d="M571.778,327.129c-2.873,1.483-5.061,2.611-11.711-2.531-2.1-1.62-4.3-3.225-3.3-5.366a3.556,3.556,0,0,1,.9-1.25c4.941-4.3,10.244-.712,12.819,1.248a7.528,7.528,0,0,1,1.7,1.859C573.583,323.239,573.934,326.021,571.778,327.129Z"/><path class="br" d="M571.778,327.129c-2.873,1.483-5.061,2.611-11.711-2.531-2.1-1.62-4.3-3.225-3.3-5.366l.135-.048a17.483,17.483,0,0,0,6.686,5.177c3.813,1.414,4.548,2.268,6.775.922,1.835-1.1,1.865-3.415,1.819-4.194C573.578,323.242,573.934,326.021,571.778,327.129Z"/><path class="bs" d="M587.913,334.182c-2.683,1.678-4.725,2.954-10.782-2.629-1.911-1.758-3.918-3.5-2.957-5.877a5.358,5.358,0,0,1,.854-1.392c1.837-2.249,9.484-.932,11.829,1.2a7.581,7.581,0,0,1,1.537,2.027C589.653,329.863,589.926,332.928,587.913,334.182Z"/><path class="br" d="M587.913,334.182c-2.683,1.678-6.3,4.156-12.352-1.427a6.453,6.453,0,0,1-1.387-7.079l.126-.055s-.8,2.393,2.706,3.895,7.046,2.358,9.129.841c1.717-1.245,2.287-1.989,2.259-2.849C589.648,329.865,589.926,332.928,587.913,334.182Z"/><path class="bs" d="M560.86,327.914c-1.022,2.6-1.8,4.585-8.882,4.235-2.232-.108-4.523-.151-5.062-2.265a4.529,4.529,0,0,1-.112-1.4c.14-2.513,6.16-5.88,8.885-5.767a6.227,6.227,0,0,1,2.108.5C559.877,324.078,561.63,325.964,560.86,327.914Z"/><path class="br" d="M560.86,327.914c-1.022,2.6-1.8,4.585-8.882,4.235-2.232-.108-4.523-.151-5.062-2.265l.06-.106s.66,2.033,3.877,1.087,7.4-1.419,8.086-3.583c.568-1.78-.684-3.514-1.142-4.069C559.875,324.083,561.63,325.964,560.86,327.914Z"/><path class="bs" d="M559.261,338.838c-.927,2.416-1.634,4.254-8.274,2.683-2.093-.493-4.24-.932-4.77-3.129a5.058,5.058,0,0,1-.122-1.413c.1-2.479,5.705-4.792,8.26-4.209a6.673,6.673,0,0,1,1.981.857C558.3,334.849,559.96,337.029,559.261,338.838Z"/><path class="br" d="M559.261,338.838c-.927,2.416-1.634,4.254-8.274,2.683-2.093-.493-4.24-.932-4.77-3.129l.055-.1s.642,2.139,3.646,1.753,6.919-.135,7.536-2.173c.511-1.673-.682-3.617-1.118-4.249C558.293,334.853,559.96,337.029,559.261,338.838Z"/><path class="bs" d="M603.635,337.173c-2.629,1.743-4.63,3.069-10.632-2.536-1.894-1.764-3.881-3.51-2.953-5.943a5.575,5.575,0,0,1,.83-1.429c1.793-2.313,9.329-1.071,11.653,1.065a7.639,7.639,0,0,1,1.527,2.044C605.316,332.755,605.607,335.872,603.635,337.173Z"/><path class="br" d="M603.635,337.173c-2.629,1.743-4.63,3.069-10.632-2.536-1.894-1.764-3.881-3.51-2.953-5.943l.124-.058s-.769,2.446,2.691,3.93,6.362,1.186,8.4-.386c1.68-1.288,2.827-.931,2.793-1.806C605.311,332.757,605.607,335.872,603.635,337.173Z"/><path class="bs" d="M573.611,338.6c-2.457,2.093-4.328,3.686-11.371-.971-2.222-1.465-4.537-2.9-3.941-5.428a5.363,5.363,0,0,1,.645-1.525c1.508-2.535,9.485-2.393,12.207-.624a7.8,7.8,0,0,1,1.884,1.794C574.689,334.005,575.456,337.033,573.611,338.6Z"/><path class="br" d="M573.611,338.6c-2.457,2.093-4.328,3.686-11.371-.971-2.222-1.465-4.537-2.9-3.941-5.428l.119-.074s-.429,2.518,3.37,3.483,8.33,3.007,10.2,1.167c1.545-1.509,1.208-4.075,1.042-4.931C574.685,334.009,575.456,337.033,573.611,338.6Z"/><path class="bs" d="M590.54,344.2c-2.816,1.565-4.961,2.755-11.625-2.323-2.1-1.6-4.308-3.181-3.357-5.375a4.689,4.689,0,0,1,.868-1.287c1.893-2.082,10.12-.937,12.7,1a7.506,7.506,0,0,1,1.71,1.85C592.26,340.217,592.654,343.033,590.54,344.2Z"/><path class="br" d="M590.54,344.2c-2.816,1.565-4.961,2.755-11.625-2.323-2.1-1.6-4.308-3.181-3.357-5.375l.133-.051s-.777,2.2,3.023,3.555,7.087,2.226,9.267.814c1.8-1.158,2.914-1.967,2.855-2.757C592.255,340.22,592.654,343.033,590.54,344.2Z"/><path class="bs" d="M609.134,342.618c-1.637,2.8-2.885,4.934-11.3,4.355-2.654-.18-5.387-.292-5.7-2.6a3.429,3.429,0,0,1,.088-1.524c1.562-5.1,8.307-6.22,11.55-6.021a7.517,7.517,0,0,1,2.443.6C608.567,338.42,610.366,340.52,609.134,342.618Z"/><path class="br" d="M609.134,342.618c-1.637,2.8-2.885,4.934-11.3,4.355-2.654-.18-5.387-.292-5.7-2.6l.089-.114s.466,2.229,4.465,1.291,9.082-1.335,10.246-3.669c.962-1.918-.26-3.839-.719-4.455C608.565,338.426,610.366,340.52,609.134,342.618Z"/><path class="bs" d="M576.66,347.528c-2.734,1.074-4.816,1.891-10.731-3.082-1.866-1.566-3.829-3.128-2.8-4.916a3.91,3.91,0,0,1,.893-1.02c1.9-1.6,9.529.151,11.82,2.05a6.986,6.986,0,0,1,1.484,1.744C578.522,344.279,578.712,346.726,576.66,347.528Z"/><path class="br" d="M576.66,347.528c-2.734,1.074-4.816,1.891-10.731-3.082-1.866-1.566-3.829-3.128-2.8-4.916l.127-.032s-.866,1.815,2.6,3.328,7.447,3.993,9.577,2.99a3.756,3.756,0,0,0,1.889-3.512C578.517,344.282,578.712,346.726,576.66,347.528Z"/><path class="bs" d="M592.193,352.9c-2.8,1.659-4.934,2.921-12.127-1.539-2.27-1.4-4.643-2.786-3.8-4.936a4.413,4.413,0,0,1,.812-1.28c1.817-2.1,10.367-1.487,13.15.211a7.541,7.541,0,0,1,1.881,1.667C593.71,349,594.3,351.665,592.193,352.9Z"/><path class="br" d="M592.193,352.9c-2.8,1.659-4.934,2.921-12.127-1.539-2.27-1.4-4.643-2.786-3.8-4.936l.134-.058s-.659,2.152,3.343,3.219,7.83,1.865,9.986.389c1.777-1.211,2.491-2.2,2.38-2.952C593.705,349,594.3,351.665,592.193,352.9Z"/><path class="bs" d="M566.8,351.288c-2.553,1.968-4.5,3.465-11.864-.539-2.324-1.259-4.745-2.488-4.134-4.794a4.671,4.671,0,0,1,.666-1.4c1.561-2.338,9.881-2.449,12.728-.929a7.492,7.492,0,0,1,1.973,1.566C567.9,347.1,568.717,349.817,566.8,351.288Z"/><path class="br" d="M566.8,351.288c-2.553,1.968-4.5,3.465-11.864-.539-2.324-1.259-4.745-2.488-4.134-4.794l.124-.071s-.437,2.292,3.529,3.051,8.7,2.473,10.649.752c1.6-1.413,1.242-3.725,1.065-4.5C567.9,347.1,568.717,349.817,566.8,351.288Z"/><path class="bp" d="M558.841,429.1c0,10.453-14.674,18.927-32.78,18.927s-32.779-8.474-32.779-18.927c0-.154,0-.312-.008-.482-.316-11.448-10.822-61.055,34.811-60.626,16.895.158,25.252,8.05,29.173,18.2C563.3,401.8,558.841,422.763,558.841,429.1Z"/><path class="bq" d="M558.841,429.1c0,10.453-14.674,18.927-32.78,18.927s-32.779-8.474-32.779-18.927c0-.154,0-.312-.008-.482,1.149,1.842,4.751,6.455,6.349,6.823,1.752.4,1.619.81,5.4-2.833s5.665-3.375,5.665-3.375,2.562.4,5.261-3.237,2.428-6.337,2.966-6.88,3.78-1.481,4.857-3.642-.81-2.833-.81-4.451,2.428-.134,2.833-3.371-6.608-7.285-.133-6.164S557.222,386.2,557.222,386.2l.036-.012C563.3,401.8,558.841,422.763,558.841,429.1Z"/><path class="bp" d="M558.436,382.562c0,10.453-14.674,18.927-32.779,18.927-9.7,0-18.426-2.436-24.427-6.305-5.2-3.347-8.353-7.77-8.353-12.622,0-10.453,14.674-18.927,32.78-18.927a48.568,48.568,0,0,1,21.594,4.686C554.106,371.789,558.436,376.884,558.436,382.562Z"/><path class="br" d="M555.6,380.943c0,10.453-14.674,18.927-32.779,18.927a48.565,48.565,0,0,1-21.594-4.686c-5.2-3.347-8.353-7.77-8.353-12.622,0-10.453,14.674-18.927,32.78-18.927a48.568,48.568,0,0,1,21.594,4.686C552.447,371.668,555.6,376.091,555.6,380.943Z"/><ellipse class="bq" cx="27.336" cy="15.783" rx="27.336" ry="15.783" transform="translate(498.32 365.161)"/><path class="bs" d="M542.355,372.258c-2.335,1.231-4.113,2.167-9.771-1.714-1.785-1.222-3.655-2.431-2.892-4.134a3.6,3.6,0,0,1,.707-1c1.554-1.624,8.461-.8,10.651.682a6.1,6.1,0,0,1,1.46,1.419C543.735,369.162,544.107,371.338,542.355,372.258Z"/><path class="br" d="M542.355,372.258c-2.335,1.231-4.113,2.167-9.771-1.714-1.785-1.222-3.655-2.431-2.892-4.134l.111-.041s-.617,1.712,2.585,2.729,6.935,2.853,8.74,1.744a3.457,3.457,0,0,0,1.382-3.334C543.731,369.165,544.107,371.338,542.355,372.258Z"/><path class="bs" d="M552.157,379.678c-2,.7-3.518,1.238-7.158-2.9-1.149-1.3-2.365-2.606-1.485-3.943a3.166,3.166,0,0,1,.715-.748c1.47-1.154,6.6.566,8.01,2.147a4.941,4.941,0,0,1,.867,1.422C553.752,377.248,553.655,379.153,552.157,379.678Z"/><path class="br" d="M552.157,379.678c-2,.7-3.518,1.238-7.158-2.9-1.149-1.3-2.365-2.606-1.485-3.943l.091-.019a21.482,21.482,0,0,0,4.043,3.189c2.263,1.339,2.248,2.961,3.82,2.284a3.224,3.224,0,0,0,1.638-2.633C553.748,377.249,553.655,379.153,552.157,379.678Z"/><path class="bs" d="M530.109,371.673c-2.328,1.209-4.1,2.129-9.544-1.981-1.718-1.294-3.519-2.576-2.721-4.306a3.7,3.7,0,0,1,.724-1.011c1.572-1.631,8.33-.625,10.437.942A6.081,6.081,0,0,1,530.4,366.8C531.554,368.53,531.856,370.77,530.109,371.673Z"/><path class="br" d="M530.109,371.673c-2.328,1.209-4.955,3.306-10.4-.8-1.717-1.294-2.664-3.753-1.866-5.483l.11-.039s.85,1.579,3.965,2.7,4.821,1.979,6.625.884c1.486-.9,1.9-1.493,1.855-2.121C531.549,368.533,531.856,370.77,530.109,371.673Z"/><path class="bs" d="M519.753,374.688c-2.327,1.2-4.1,2.115-9.488-2.051-1.7-1.312-3.484-2.613-2.676-4.348a2.891,2.891,0,0,1,.728-1.013c4-3.488,8.3-.577,10.387,1.012a6.08,6.08,0,0,1,1.376,1.506C521.217,371.536,521.5,373.79,519.753,374.688Z"/><path class="br" d="M519.753,374.688c-2.327,1.2-4.1,2.115-9.488-2.051-1.7-1.312-3.484-2.613-2.676-4.348l.11-.039a14.165,14.165,0,0,0,5.417,4.2c3.09,1.146,3.685,1.838,5.49.747a3.688,3.688,0,0,0,1.474-3.4C521.212,371.538,521.5,373.79,519.753,374.688Z"/><path class="bs" d="M532.828,380.4c-2.174,1.359-3.829,2.393-8.737-2.13-1.549-1.425-3.174-2.835-2.4-4.762a4.378,4.378,0,0,1,.692-1.129c1.489-1.822,7.685-.754,9.585.97a6.165,6.165,0,0,1,1.245,1.643C534.237,376.9,534.459,379.387,532.828,380.4Z"/><path class="br" d="M532.828,380.4c-2.174,1.359-5.1,3.367-10.009-1.156a5.231,5.231,0,0,1-1.124-5.736l.1-.045s-.647,1.939,2.193,3.156,5.709,1.911,7.4.681c1.391-1.008,1.853-1.611,1.83-2.308C534.233,376.9,534.459,379.387,532.828,380.4Z"/><path class="bs" d="M510.907,375.324c-.828,2.109-1.459,3.715-7.2,3.432-1.809-.088-3.665-.123-4.1-1.836a3.686,3.686,0,0,1-.092-1.133c.114-2.037,4.992-4.765,7.2-4.674a5.076,5.076,0,0,1,1.708.4C510.11,372.216,511.531,373.744,510.907,375.324Z"/><path class="br" d="M510.907,375.324c-.828,2.109-1.459,3.715-7.2,3.432-1.809-.088-3.665-.123-4.1-1.836l.048-.086s.535,1.648,3.142.881,6-1.15,6.552-2.9a3.779,3.779,0,0,0-.926-3.3C510.109,372.22,511.531,373.744,510.907,375.324Z"/><path class="bs" d="M509.612,384.175c-.752,1.958-1.325,3.448-6.7,2.175-1.7-.4-3.436-.755-3.865-2.536a4.13,4.13,0,0,1-.1-1.145c.082-2.008,4.622-3.883,6.692-3.41a5.4,5.4,0,0,1,1.606.694C508.83,380.943,510.178,382.71,509.612,384.175Z"/><path class="br" d="M509.612,384.175c-.752,1.958-1.325,3.448-6.7,2.175-1.7-.4-3.436-.755-3.865-2.536l.045-.078s.52,1.733,2.954,1.42,5.607-.109,6.106-1.76c.414-1.356-.553-2.93-.9-3.443C508.827,380.947,510.178,382.71,509.612,384.175Z"/><path class="bs" d="M545.567,382.827c-2.13,1.412-3.752,2.486-8.615-2.055-1.535-1.43-3.145-2.845-2.393-4.816a4.5,4.5,0,0,1,.673-1.158c1.452-1.874,7.558-.867,9.442.863a6.212,6.212,0,0,1,1.237,1.657C546.929,379.246,547.165,381.772,545.567,382.827Z"/><path class="br" d="M545.567,382.827c-2.13,1.412-3.752,2.486-8.615-2.055-1.535-1.43-3.145-2.845-2.393-4.816l.1-.047s-.623,1.982,2.181,3.184,5.155.961,6.808-.312c1.361-1.044,2.29-.755,2.263-1.463C546.925,379.248,547.165,381.772,545.567,382.827Z"/><path class="bs" d="M521.239,383.981c-1.991,1.7-3.507,2.985-9.214-.787-1.8-1.188-3.676-2.35-3.193-4.4a4.394,4.394,0,0,1,.522-1.237c1.222-2.053,7.686-1.939,9.892-.505a6.309,6.309,0,0,1,1.526,1.453C522.113,380.26,522.734,382.713,521.239,383.981Z"/><path class="br" d="M521.239,383.981c-1.991,1.7-3.507,2.985-9.214-.787-1.8-1.188-3.676-2.35-3.193-4.4l.1-.061s-.348,2.041,2.73,2.822,6.75,2.437,8.269.946c1.252-1.223.979-3.3.844-4C522.109,380.263,522.734,382.713,521.239,383.981Z"/><path class="bs" d="M534.956,388.522c-2.282,1.268-4.019,2.232-9.42-1.883-1.7-1.3-3.49-2.577-2.719-4.354a3.772,3.772,0,0,1,.7-1.044c1.534-1.687,8.2-.759,10.29.809a6.088,6.088,0,0,1,1.386,1.5C536.35,385.293,536.669,387.574,534.956,388.522Z"/><path class="br" d="M534.956,388.522c-2.282,1.268-4.019,2.232-9.42-1.883-1.7-1.3-3.49-2.577-2.719-4.354l.107-.042s-.629,1.787,2.45,2.881,5.742,1.8,7.509.659c1.455-.938,2.361-1.594,2.313-2.234C536.346,385.3,536.669,387.574,534.956,388.522Z"/><path class="bs" d="M550.022,387.238c-1.326,2.27-2.337,4-9.157,3.529-2.15-.146-4.365-.237-4.615-2.111a2.766,2.766,0,0,1,.072-1.235c1.265-4.133,6.731-5.04,9.358-4.878a6.087,6.087,0,0,1,1.979.484C549.563,383.837,551.021,385.538,550.022,387.238Z"/><path class="br" d="M550.022,387.238c-1.326,2.27-2.337,4-9.157,3.529-2.15-.146-4.365-.237-4.615-2.111l.072-.092s.378,1.806,3.618,1.046,7.359-1.081,8.3-2.973a3.571,3.571,0,0,0-.583-3.61C549.561,383.841,551.021,385.538,550.022,387.238Z"/><path class="bs" d="M523.709,391.217c-2.215.87-3.9,1.532-8.694-2.5-1.513-1.269-3.1-2.534-2.269-3.983a3.13,3.13,0,0,1,.723-.826c1.543-1.3,7.721.122,9.578,1.661a5.658,5.658,0,0,1,1.2,1.413C525.218,388.585,525.372,390.567,523.709,391.217Z"/><path class="br" d="M523.709,391.217c-2.215.87-3.9,1.532-8.694-2.5-1.513-1.269-3.1-2.534-2.269-3.983l.1-.025s-.7,1.47,2.109,2.7,6.034,3.236,7.76,2.423a3.042,3.042,0,0,0,1.531-2.846C525.214,388.587,525.372,390.567,523.709,391.217Z"/><path class="bs" d="M536.3,395.573c-2.27,1.345-4,2.367-9.827-1.246-1.839-1.138-3.762-2.258-3.082-4a3.577,3.577,0,0,1,.658-1.037c1.472-1.7,8.4-1.205,10.655.171a6.113,6.113,0,0,1,1.524,1.35C537.525,392.408,538,394.569,536.3,395.573Z"/><path class="br" d="M536.3,395.573c-2.27,1.345-4,2.367-9.827-1.246-1.839-1.138-3.762-2.258-3.082-4l.108-.047s-.533,1.744,2.709,2.609,6.345,1.51,8.092.314c1.44-.981,2.018-1.783,1.928-2.392C537.521,392.412,538,394.569,536.3,395.573Z"/><path class="bs" d="M515.719,394.264c-2.069,1.594-3.644,2.807-9.613-.437-1.883-1.021-3.845-2.016-3.349-3.885a3.766,3.766,0,0,1,.539-1.134c1.265-1.9,8.007-1.985,10.314-.753a6.1,6.1,0,0,1,1.6,1.269C516.614,390.87,517.273,393.071,515.719,394.264Z"/><path class="br" d="M515.719,394.264c-2.069,1.594-3.644,2.807-9.613-.437-1.883-1.021-3.845-2.016-3.349-3.885l.1-.057s-.354,1.857,2.86,2.472,7.051,2,8.628.609a3.785,3.785,0,0,0,.863-3.642C516.61,390.873,517.273,393.071,515.719,394.264Z"/></g></svg>